;TYPE=PLATED
;Layer: PTH_Through_Via
;EasyEDA Pro Client v2.2.47.7, 2026-07-21 15:34:32
;Gerber Generator version 0.3
M48
METRIC,LZ,0000.00000
;Hole size 1 = 0.30000 METRIC
T01C0.30000
;Hole size 2 = 0.30500 METRIC
T02C0.30500
%
G05
G90
T01
X18.16095Y10.66797
X19.07155Y10.66795
X19.0715Y9.78049
X18.1609Y9.78047
X12.446Y18.288
X12.45945Y17.08746
T02
X15.621Y9.38928
X11.887Y13.208
X17.145Y25.47899
X13.462Y14.605
X13.843Y15.748
X19.177Y16.002
X21.209Y12.065
X16.637Y7.366
X21.082Y7.747
X16.256Y12.573
X22.225Y4.191
X15.0824Y5.58804
X12.886Y21.2708
X8.82664Y22.0422
X1.981Y17.272
X4.953Y14.986
X6.604Y10.668
X21.844Y9.398
X2.286Y10.414
X14.9606Y18.288
X17.907Y13.589
X12.573Y33.782
X23.75008Y35.50699
X4.64375Y10.83496
X7.874Y17.145
X12.446Y19.812
X12.42592Y15.62251
X11.12972Y8.19153
X13.97Y10.033
X10.541Y15.367
X5.461Y20.066
X5.334Y12.319
X11.557Y14.605
X10.541Y10.287
X14.605Y9.017
X32.766Y11.303
X22.733Y14.859
X23.368Y24.13
X26.67Y31.877
X33.528Y8.763
X8.89Y10.795
X11.049Y6.096
X16.764Y5.461
X14.67641Y7.80259
X18.161Y7.112
X20.32Y5.461
X19.939Y7.239
X28.829Y35.052
X16.002Y29.845
X11.938Y28.194
X24.46329Y29.337
X14.605Y23.749
X28.702Y24.13
X34.29Y25.654
X34.22103Y32.04454
X34.163Y22.86
X34.22103Y16.51038
X22.225Y8.255
X26.416Y8.839
X29.464Y8.89
X28.575Y11.43
X25.4Y11.938
X17.653Y35.56
X21.082Y33.147
X13.843Y25.654
X18.034Y27.432
X16.764Y27.45141
X15.621Y27.432
X29.718Y11.43
X27.94Y8.89
X17.64354Y29.845
X2.159Y30.607
X6.604Y30.607
X20.59162Y28.813
M30