G04 Layer: TopSilkscreenLayer*
G04 EasyEDA Pro v2.2.47.7, 2026-07-21 15:34:32*
G04 Gerber Generator version 0.3*
G04 Scale: 100 percent, Rotated: No, Reflected: No*
G04 Dimensions in millimeters*
G04 Leading zeros omitted, absolute positions, 4 integers and 5 decimals*
G04 Generated by one-click*
G04 Object Configs: Pad,Via,Track,Text,Image,Dimension,BoardOutline,BoardCutout,CopperFilled,SolidRegion,FPCStiffener,Line,PlaneZone,ComponentProperty,ComponentSilkscreen,TearDrop*
G04 Layer Configs: 1,2,3,4,5,6,7,8,9,10,11,13,14,56*
G04 Copper Areas: 0*
%FSLAX45Y45*%
%MOMM*%
%ADD10C,0.1524*%
%ADD11C,0.254*%
%ADD12C,0.14999*%
%ADD13C,0.2*%
%ADD14C,0.25*%
%ADD15C,0.3051*%
%ADD16C,0.3*%
G75*


G04 Text Start*
G54D10*
G01X729234Y2037080D02*
G01X664210Y2037080D01*
G01X664210Y2037080D02*
G01X664210Y1999996D01*
G01X729234Y1969770D02*
G01X664210Y1969770D01*
G01X729234Y1969770D02*
G01X729234Y1942084D01*
G01X726186Y1932686D01*
G01X723138Y1929638D01*
G01X716788Y1926590D01*
G01X710692Y1926590D01*
G01X704596Y1929638D01*
G01X701548Y1932686D01*
G01X698246Y1942084D01*
G01X698246Y1969770D01*
G01X698246Y1948180D02*
G01X664210Y1926590D01*
G01X713740Y1850136D02*
G01X720090Y1853184D01*
G01X726186Y1859280D01*
G01X729234Y1865630D01*
G01X729234Y1877822D01*
G01X726186Y1884172D01*
G01X720090Y1890268D01*
G01X713740Y1893316D01*
G01X704596Y1896364D01*
G01X689102Y1896364D01*
G01X679704Y1893316D01*
G01X673608Y1890268D01*
G01X667258Y1884172D01*
G01X664210Y1877822D01*
G01X664210Y1865630D01*
G01X667258Y1859280D01*
G01X673608Y1853184D01*
G01X679704Y1850136D01*
G01X729234Y1819910D02*
G01X664210Y1819910D01*
G01X729234Y1776730D02*
G01X686054Y1819910D01*
G01X701548Y1804670D02*
G01X664210Y1776730D01*
G01X729234Y1677162D02*
G01X664210Y1677162D01*
G01X729234Y1677162D02*
G01X729234Y1655572D01*
G01X726186Y1646428D01*
G01X720090Y1640078D01*
G01X713740Y1637030D01*
G01X704596Y1633982D01*
G01X689102Y1633982D01*
G01X679704Y1637030D01*
G01X673608Y1640078D01*
G01X667258Y1646428D01*
G01X664210Y1655572D01*
G01X664210Y1677162D01*
G01X729234Y1603756D02*
G01X664210Y1603756D01*
G01X729234Y1573530D02*
G01X664210Y1573530D01*
G01X729234Y1573530D02*
G01X664210Y1530350D01*
G01X729234Y1530350D02*
G01X664210Y1530350D01*
G01X729234Y1430782D02*
G01X664210Y1430782D01*
G01X729234Y1430782D02*
G01X729234Y1403096D01*
G01X726186Y1393698D01*
G01X723138Y1390650D01*
G01X716788Y1387602D01*
G01X710692Y1387602D01*
G01X704596Y1390650D01*
G01X701548Y1393698D01*
G01X698246Y1403096D01*
G01X698246Y1430782D02*
G01X698246Y1403096D01*
G01X695198Y1393698D01*
G01X692150Y1390650D01*
G01X686054Y1387602D01*
G01X676656Y1387602D01*
G01X670560Y1390650D01*
G01X667258Y1393698D01*
G01X664210Y1403096D01*
G01X664210Y1430782D01*
G01X713740Y1311148D02*
G01X720090Y1314196D01*
G01X726186Y1320292D01*
G01X729234Y1326642D01*
G01X729234Y1338834D01*
G01X726186Y1345184D01*
G01X720090Y1351280D01*
G01X713740Y1354328D01*
G01X704596Y1357376D01*
G01X689102Y1357376D01*
G01X679704Y1354328D01*
G01X673608Y1351280D01*
G01X667258Y1345184D01*
G01X664210Y1338834D01*
G01X664210Y1326642D01*
G01X667258Y1320292D01*
G01X673608Y1314196D01*
G01X679704Y1311148D01*
G01X729234Y1280922D02*
G01X664210Y1280922D01*
G01X729234Y1237742D02*
G01X686054Y1280922D01*
G01X701548Y1265682D02*
G01X664210Y1237742D01*
G01X856234Y2831592D02*
G01X813054Y2862580D01*
G01X813054Y2816098D01*
G01X856234Y2831592D02*
G01X791210Y2831592D01*
G01X819150Y2785872D02*
G01X819150Y2730246D01*
G01X847090Y2662936D02*
G01X853186Y2665984D01*
G01X856234Y2675382D01*
G01X856234Y2681478D01*
G01X853186Y2690876D01*
G01X843788Y2696972D01*
G01X828548Y2700020D01*
G01X813054Y2700020D01*
G01X800608Y2696972D01*
G01X794258Y2690876D01*
G01X791210Y2681478D01*
G01X791210Y2678430D01*
G01X794258Y2669286D01*
G01X800608Y2662936D01*
G01X809752Y2659888D01*
G01X813054Y2659888D01*
G01X822198Y2662936D01*
G01X828548Y2669286D01*
G01X831596Y2678430D01*
G01X831596Y2681478D01*
G01X828548Y2690876D01*
G01X822198Y2696972D01*
G01X813054Y2700020D01*
G01X806704Y2626614D02*
G01X803656Y2629662D01*
G01X800608Y2626614D01*
G01X803656Y2623566D01*
G01X806704Y2626614D01*
G01X856234Y2556256D02*
G01X856234Y2587244D01*
G01X828548Y2590292D01*
G01X831596Y2587244D01*
G01X834644Y2578100D01*
G01X834644Y2568702D01*
G01X831596Y2559304D01*
G01X825246Y2553208D01*
G01X816102Y2550160D01*
G01X809752Y2550160D01*
G01X800608Y2553208D01*
G01X794258Y2559304D01*
G01X791210Y2568702D01*
G01X791210Y2578100D01*
G01X794258Y2587244D01*
G01X797560Y2590292D01*
G01X803656Y2593340D01*
G01X741934Y2862580D02*
G01X676910Y2837688D01*
G01X741934Y2813050D02*
G01X676910Y2837688D01*
G01X741934Y2782824D02*
G01X676910Y2782824D01*
G01X741934Y2782824D02*
G01X741934Y2761234D01*
G01X738886Y2752090D01*
G01X732790Y2745740D01*
G01X726440Y2742692D01*
G01X717296Y2739644D01*
G01X701802Y2739644D01*
G01X692404Y2742692D01*
G01X686308Y2745740D01*
G01X679958Y2752090D01*
G01X676910Y2761234D01*
G01X676910Y2782824D01*
G01X726440Y2663190D02*
G01X732790Y2666238D01*
G01X738886Y2672334D01*
G01X741934Y2678684D01*
G01X741934Y2690876D01*
G01X738886Y2697226D01*
G01X732790Y2703322D01*
G01X726440Y2706370D01*
G01X717296Y2709418D01*
G01X701802Y2709418D01*
G01X692404Y2706370D01*
G01X686308Y2703322D01*
G01X679958Y2697226D01*
G01X676910Y2690876D01*
G01X676910Y2678684D01*
G01X679958Y2672334D01*
G01X686308Y2666238D01*
G01X692404Y2663190D01*
G01X726440Y2517394D02*
G01X732790Y2520442D01*
G01X738886Y2526538D01*
G01X741934Y2532888D01*
G01X741934Y2545080D01*
G01X738886Y2551430D01*
G01X732790Y2557526D01*
G01X726440Y2560574D01*
G01X717296Y2563622D01*
G01X701802Y2563622D01*
G01X692404Y2560574D01*
G01X686308Y2557526D01*
G01X679958Y2551430D01*
G01X676910Y2545080D01*
G01X676910Y2532888D01*
G01X679958Y2526538D01*
G01X686308Y2520442D01*
G01X692404Y2517394D01*
G01X701802Y2517394D01*
G01X701802Y2532888D02*
G01X701802Y2517394D01*
G01X720344Y2487168D02*
G01X676910Y2487168D01*
G01X707898Y2487168D02*
G01X717296Y2478024D01*
G01X720344Y2471928D01*
G01X720344Y2462530D01*
G01X717296Y2456434D01*
G01X707898Y2453132D01*
G01X676910Y2453132D01*
G01X741934Y2385822D02*
G01X676910Y2385822D01*
G01X710946Y2385822D02*
G01X717296Y2392172D01*
G01X720344Y2398268D01*
G01X720344Y2407666D01*
G01X717296Y2413762D01*
G01X710946Y2419858D01*
G01X701802Y2422906D01*
G01X695452Y2422906D01*
G01X686308Y2419858D01*
G01X679958Y2413762D01*
G01X676910Y2407666D01*
G01X676910Y2398268D01*
G01X679958Y2392172D01*
G01X686308Y2385822D01*
G01X1366520Y3434334D02*
G01X1366520Y3369310D01*
G01X1366520Y3434334D02*
G01X1394460Y3434334D01*
G01X1403604Y3431286D01*
G01X1406652Y3428238D01*
G01X1409954Y3421888D01*
G01X1409954Y3415792D01*
G01X1406652Y3409696D01*
G01X1403604Y3406648D01*
G01X1394460Y3403346D01*
G01X1366520Y3403346D01*
G01X1388110Y3403346D02*
G01X1409954Y3369310D01*
G01X1440180Y3434334D02*
G01X1440180Y3369310D01*
G01X1440180Y3434334D02*
G01X1464818Y3369310D01*
G01X1489710Y3434334D02*
G01X1464818Y3369310D01*
G01X1489710Y3434334D02*
G01X1489710Y3369310D01*
G01X1635506Y3418840D02*
G01X1632458Y3425190D01*
G01X1626362Y3431286D01*
G01X1620012Y3434334D01*
G01X1607820Y3434334D01*
G01X1601470Y3431286D01*
G01X1595374Y3425190D01*
G01X1592326Y3418840D01*
G01X1589278Y3409696D01*
G01X1589278Y3394202D01*
G01X1592326Y3384804D01*
G01X1595374Y3378708D01*
G01X1601470Y3372358D01*
G01X1607820Y3369310D01*
G01X1620012Y3369310D01*
G01X1626362Y3372358D01*
G01X1632458Y3378708D01*
G01X1635506Y3384804D01*
G01X1635506Y3394202D01*
G01X1620012Y3394202D02*
G01X1635506Y3394202D01*
G01X1665732Y3412744D02*
G01X1665732Y3369310D01*
G01X1665732Y3400298D02*
G01X1674876Y3409696D01*
G01X1680972Y3412744D01*
G01X1690370Y3412744D01*
G01X1696466Y3409696D01*
G01X1699768Y3400298D01*
G01X1699768Y3369310D01*
G01X1767078Y3434334D02*
G01X1767078Y3369310D01*
G01X1767078Y3403346D02*
G01X1760728Y3409696D01*
G01X1754632Y3412744D01*
G01X1745234Y3412744D01*
G01X1739138Y3409696D01*
G01X1733042Y3403346D01*
G01X1729994Y3394202D01*
G01X1729994Y3387852D01*
G01X1733042Y3378708D01*
G01X1739138Y3372358D01*
G01X1745234Y3369310D01*
G01X1754632Y3369310D01*
G01X1760728Y3372358D01*
G01X1767078Y3378708D01*
G01X1866646Y3434334D02*
G01X1866646Y3369310D01*
G01X1866646Y3434334D02*
G01X1894332Y3434334D01*
G01X1903730Y3431286D01*
G01X1906778Y3428238D01*
G01X1909826Y3421888D01*
G01X1909826Y3415792D01*
G01X1906778Y3409696D01*
G01X1903730Y3406648D01*
G01X1894332Y3403346D01*
G01X1866646Y3403346D01*
G01X1888236Y3403346D02*
G01X1909826Y3369310D01*
G01X1940052Y3434334D02*
G01X1940052Y3369310D01*
G01X1940052Y3434334D02*
G01X1967738Y3434334D01*
G01X1977136Y3431286D01*
G01X1980184Y3428238D01*
G01X1983232Y3421888D01*
G01X1983232Y3412744D01*
G01X1980184Y3406648D01*
G01X1977136Y3403346D01*
G01X1967738Y3400298D01*
G01X1940052Y3400298D01*
G36*
G01X1270346Y3745692D02*
G01X1270346Y3787256D01*
G01X1281430Y3787256D01*
G01X1281603Y3755217D01*
G01X1289569Y3755044D01*
G01X1297882Y3755217D01*
G01X1299614Y3755390D01*
G01X1301692Y3755563D01*
G01X1304117Y3755909D01*
G01X1306888Y3756429D01*
G01X1308619Y3756949D01*
G01X1310178Y3757468D01*
G01X1312083Y3758161D01*
G01X1313642Y3758854D01*
G01X1315027Y3759546D01*
G01X1316239Y3760239D01*
G01X1317279Y3760932D01*
G01X1318144Y3761624D01*
G01X1319184Y3762317D01*
G01X1320223Y3763183D01*
G01X1322301Y3765261D01*
G01X1323340Y3766647D01*
G01X1324033Y3767513D01*
G01X1324726Y3768552D01*
G01X1325418Y3769764D01*
G01X1326111Y3771149D01*
G01X1326804Y3772708D01*
G01X1327323Y3774094D01*
G01X1327843Y3775999D01*
G01X1328362Y3777731D01*
G01X1328709Y3780155D01*
G01X1329055Y3785004D01*
G01X1329228Y3786563D01*
G01X1329055Y3788121D01*
G01X1328709Y3792624D01*
G01X1328189Y3796261D01*
G01X1327843Y3797646D01*
G01X1327323Y3799378D01*
G01X1326804Y3800937D01*
G01X1326111Y3802496D01*
G01X1325245Y3804401D01*
G01X1324379Y3805786D01*
G01X1323686Y3806998D01*
G01X1322821Y3808037D01*
G01X1321781Y3809249D01*
G01X1320396Y3810635D01*
G01X1317971Y3812713D01*
G01X1316759Y3813579D01*
G01X1315547Y3814272D01*
G01X1312776Y3815657D01*
G01X1311217Y3816350D01*
G01X1308100Y3817389D01*
G01X1306368Y3817909D01*
G01X1304809Y3818255D01*
G01X1302385Y3818601D01*
G01X1298229Y3818948D01*
G01X1289569Y3819121D01*
G01X1281430Y3819121D01*
G01X1281430Y3787256D01*
G01X1281430Y3787256D01*
G01X1270346Y3787256D01*
G01X1270346Y3828473D01*
G01X1284894Y3828473D01*
G01X1299961Y3828299D01*
G01X1303771Y3827953D01*
G01X1306195Y3827607D01*
G01X1308100Y3827261D01*
G01X1310524Y3826741D01*
G01X1312083Y3826221D01*
G01X1313642Y3825875D01*
G01X1315201Y3825356D01*
G01X1317971Y3824316D01*
G01X1322128Y3822238D01*
G01X1323686Y3821372D01*
G01X1324899Y3820506D01*
G01X1325764Y3819814D01*
G01X1326977Y3818774D01*
G01X1328362Y3817736D01*
G01X1330960Y3815138D01*
G01X1333038Y3812540D01*
G01X1334770Y3810116D01*
G01X1335463Y3808903D01*
G01X1336848Y3806132D01*
G01X1337541Y3804574D01*
G01X1338234Y3802842D01*
G01X1338926Y3800591D01*
G01X1339446Y3798859D01*
G01X1340139Y3795049D01*
G01X1340485Y3791585D01*
G01X1340658Y3788121D01*
G01X1340485Y3783619D01*
G01X1340139Y3780501D01*
G01X1339792Y3778423D01*
G01X1339446Y3776864D01*
G01X1338926Y3774613D01*
G01X1338234Y3772362D01*
G01X1337541Y3770630D01*
G01X1336848Y3769071D01*
G01X1334597Y3764569D01*
G01X1333558Y3763010D01*
G01X1332692Y3761798D01*
G01X1331999Y3760932D01*
G01X1331306Y3759893D01*
G01X1330441Y3758854D01*
G01X1326631Y3755044D01*
G01X1325245Y3754004D01*
G01X1324033Y3753139D01*
G01X1322647Y3752273D01*
G01X1321608Y3751580D01*
G01X1320396Y3750887D01*
G01X1319011Y3750194D01*
G01X1317452Y3749502D01*
G01X1315720Y3748809D01*
G01X1312603Y3747770D01*
G01X1310871Y3747251D01*
G01X1309312Y3746904D01*
G01X1305156Y3746211D01*
G01X1302039Y3745865D01*
G01X1285933Y3745692D01*
G01X1270346Y3745692D01*
G37*
G36*
G01X1147041Y3745692D02*
G01X1147041Y3818774D01*
G01X1117946Y3818774D01*
G01X1117946Y3828473D01*
G01X1187912Y3828473D01*
G01X1187912Y3818774D01*
G01X1158124Y3818774D01*
G01X1158124Y3745692D01*
G01X1147041Y3745692D01*
G37*
G36*
G01X1184145Y3745822D02*
G01X1182889Y3746211D01*
G01X1183409Y3747424D01*
G01X1183929Y3748982D01*
G01X1184968Y3751753D01*
G01X1185487Y3753312D01*
G01X1186180Y3755044D01*
G01X1186873Y3757122D01*
G01X1187566Y3758854D01*
G01X1188085Y3760412D01*
G01X1189124Y3763183D01*
G01X1189644Y3764742D01*
G01X1190336Y3766474D01*
G01X1195060Y3779462D01*
G01X1205749Y3779462D01*
G01X1205749Y3778423D01*
G01X1220124Y3778250D01*
G01X1234324Y3778250D01*
G01X1234151Y3778943D01*
G01X1233632Y3780501D01*
G01X1232939Y3782406D01*
G01X1232246Y3784484D01*
G01X1231554Y3786216D01*
G01X1230514Y3789334D01*
G01X1229822Y3791066D01*
G01X1229129Y3793144D01*
G01X1227744Y3796954D01*
G01X1227051Y3799032D01*
G01X1226358Y3800764D01*
G01X1225319Y3803881D01*
G01X1224626Y3805613D01*
G01X1223934Y3807691D01*
G01X1222548Y3811501D01*
G01X1221856Y3813579D01*
G01X1221163Y3815311D01*
G01X1220643Y3816869D01*
G01X1220124Y3817909D01*
G01X1219431Y3817389D01*
G01X1218738Y3815831D01*
G01X1218046Y3813926D01*
G01X1217353Y3811847D01*
G01X1216660Y3810116D01*
G01X1215621Y3806998D01*
G01X1214582Y3804227D01*
G01X1214062Y3802669D01*
G01X1213023Y3799898D01*
G01X1212504Y3798339D01*
G01X1211811Y3796607D01*
G01X1211118Y3794529D01*
G01X1209733Y3790719D01*
G01X1209040Y3788641D01*
G01X1208347Y3786909D01*
G01X1207308Y3783792D01*
G01X1206269Y3781021D01*
G01X1205749Y3779462D01*
G01X1205749Y3779462D01*
G01X1195060Y3779462D01*
G01X1212504Y3827434D01*
G01X1212850Y3828473D01*
G01X1219951Y3828473D01*
G01X1227571Y3828126D01*
G01X1228263Y3826914D01*
G01X1229302Y3824143D01*
G01X1229822Y3822584D01*
G01X1230514Y3820853D01*
G01X1231207Y3818774D01*
G01X1231900Y3817043D01*
G01X1232419Y3815484D01*
G01X1233459Y3812713D01*
G01X1233978Y3811154D01*
G01X1234671Y3809423D01*
G01X1235364Y3807344D01*
G01X1236056Y3805613D01*
G01X1236576Y3804054D01*
G01X1237615Y3801283D01*
G01X1238134Y3799724D01*
G01X1238827Y3797993D01*
G01X1239520Y3795914D01*
G01X1240213Y3794183D01*
G01X1240732Y3792624D01*
G01X1241771Y3789853D01*
G01X1242291Y3788294D01*
G01X1242984Y3786563D01*
G01X1243676Y3784484D01*
G01X1244369Y3782753D01*
G01X1244889Y3781194D01*
G01X1245928Y3778423D01*
G01X1246447Y3776864D01*
G01X1247140Y3775133D01*
G01X1247833Y3773054D01*
G01X1248526Y3771323D01*
G01X1249045Y3769764D01*
G01X1250084Y3766993D01*
G01X1250604Y3765434D01*
G01X1251296Y3763703D01*
G01X1251989Y3761624D01*
G01X1252682Y3759893D01*
G01X1253201Y3758334D01*
G01X1254241Y3755563D01*
G01X1254760Y3754004D01*
G01X1255453Y3752273D01*
G01X1256146Y3750194D01*
G01X1256838Y3748463D01*
G01X1257358Y3746731D01*
G01X1257531Y3745692D01*
G01X1246101Y3745692D01*
G01X1245754Y3746558D01*
G01X1245062Y3748116D01*
G01X1243503Y3752792D01*
G01X1242464Y3755563D01*
G01X1241425Y3758681D01*
G01X1240386Y3761451D01*
G01X1239347Y3764569D01*
G01X1238827Y3765954D01*
G01X1238308Y3767513D01*
G01X1238134Y3768552D01*
G01X1220124Y3768552D01*
G01X1206529Y3768379D01*
G01X1201766Y3767859D01*
G01X1201074Y3766301D01*
G01X1200381Y3764396D01*
G01X1199688Y3762317D01*
G01X1198303Y3758507D01*
G01X1197610Y3756429D01*
G01X1196224Y3752619D01*
G01X1195532Y3750541D01*
G01X1194146Y3746731D01*
G01X1193800Y3745692D01*
G01X1188258Y3745692D01*
G01X1184145Y3745822D01*
G37*
G36*
G01X1574454Y3745692D02*
G01X1574454Y3750887D01*
G01X1574627Y3756949D01*
G01X1574973Y3757728D01*
G01X1575666Y3758334D01*
G01X1581727Y3763529D01*
G01X1585884Y3766993D01*
G01X1587096Y3768206D01*
G01X1588481Y3769244D01*
G01X1589347Y3770111D01*
G01X1591772Y3772189D01*
G01X1594369Y3774786D01*
G01X1596101Y3776172D01*
G01X1603029Y3783099D01*
G01X1604414Y3784831D01*
G01X1606146Y3786563D01*
G01X1607531Y3788294D01*
G01X1608397Y3789161D01*
G01X1609783Y3790892D01*
G01X1610822Y3792278D01*
G01X1611861Y3793836D01*
G01X1613593Y3796954D01*
G01X1614632Y3799724D01*
G01X1615151Y3801629D01*
G01X1615498Y3803361D01*
G01X1615671Y3806132D01*
G01X1615498Y3809249D01*
G01X1614805Y3812021D01*
G01X1614286Y3813406D01*
G01X1613766Y3814445D01*
G01X1613073Y3815311D01*
G01X1610995Y3817389D01*
G01X1609436Y3818428D01*
G01X1608051Y3819121D01*
G01X1606146Y3819814D01*
G01X1604414Y3820333D01*
G01X1600258Y3820679D01*
G01X1599392Y3820679D01*
G01X1597314Y3820506D01*
G01X1595062Y3820333D01*
G01X1593331Y3819987D01*
G01X1590906Y3819467D01*
G01X1588828Y3818948D01*
G01X1585711Y3817909D01*
G01X1584325Y3817389D01*
G01X1583113Y3816869D01*
G01X1581727Y3816177D01*
G01X1578610Y3814445D01*
G01X1577224Y3813752D01*
G01X1576532Y3813579D01*
G01X1576532Y3825356D01*
G01X1579129Y3826394D01*
G01X1581034Y3827087D01*
G01X1582593Y3827607D01*
G01X1586057Y3828473D01*
G01X1587789Y3828992D01*
G01X1591599Y3829685D01*
G01X1594023Y3830031D01*
G01X1599219Y3830204D01*
G01X1605107Y3830031D01*
G01X1608571Y3829339D01*
G01X1610822Y3828819D01*
G01X1612900Y3828126D01*
G01X1614459Y3827434D01*
G01X1615844Y3826741D01*
G01X1617403Y3825875D01*
G01X1618615Y3825009D01*
G01X1620347Y3823624D01*
G01X1622079Y3821892D01*
G01X1623118Y3820679D01*
G01X1623984Y3819467D01*
G01X1624676Y3818255D01*
G01X1625369Y3816696D01*
G01X1626062Y3814791D01*
G01X1626581Y3813059D01*
G01X1626928Y3810635D01*
G01X1627101Y3807691D01*
G01X1626928Y3804747D01*
G01X1626581Y3802322D01*
G01X1626235Y3800417D01*
G01X1625716Y3798339D01*
G01X1625196Y3796781D01*
G01X1624676Y3795395D01*
G01X1623118Y3792278D01*
G01X1621386Y3789507D01*
G01X1620520Y3788294D01*
G01X1620001Y3787429D01*
G01X1619308Y3786563D01*
G01X1617576Y3784484D01*
G01X1616364Y3783272D01*
G01X1615324Y3781887D01*
G01X1606666Y3773228D01*
G01X1604587Y3771496D01*
G01X1602856Y3769764D01*
G01X1600431Y3767686D01*
G01X1599219Y3766474D01*
G01X1597833Y3765434D01*
G01X1596967Y3764569D01*
G01X1592118Y3760412D01*
G01X1590040Y3758681D01*
G01X1589174Y3757814D01*
G01X1587442Y3756429D01*
G01X1586749Y3755563D01*
G01X1592118Y3755174D01*
G01X1608571Y3755044D01*
G01X1630564Y3755044D01*
G01X1630564Y3745692D01*
G01X1574454Y3745692D01*
G37*
G36*
G01X1381009Y3743960D02*
G01X1374948Y3744133D01*
G01X1373043Y3744479D01*
G01X1370965Y3744826D01*
G01X1369753Y3744999D01*
G01X1368021Y3745346D01*
G01X1366462Y3745865D01*
G01X1364904Y3746211D01*
G01X1363172Y3746731D01*
G01X1360054Y3747770D01*
G01X1358496Y3748463D01*
G01X1357846Y3748939D01*
G01X1357630Y3749675D01*
G01X1357803Y3751061D01*
G01X1357803Y3755390D01*
G01X1357630Y3756429D01*
G01X1357803Y3757641D01*
G01X1357803Y3758507D01*
G01X1357630Y3759546D01*
G01X1357846Y3760023D01*
G01X1358496Y3760066D01*
G01X1359881Y3759546D01*
G01X1362306Y3758161D01*
G01X1363864Y3757468D01*
G01X1365596Y3756776D01*
G01X1368367Y3755736D01*
G01X1371831Y3754697D01*
G01X1373736Y3754178D01*
G01X1375468Y3753831D01*
G01X1380317Y3753485D01*
G01X1381183Y3753485D01*
G01X1383261Y3753658D01*
G01X1385512Y3753831D01*
G01X1388629Y3754524D01*
G01X1390188Y3755044D01*
G01X1392093Y3755909D01*
G01X1393652Y3756949D01*
G01X1394864Y3757814D01*
G01X1396596Y3759546D01*
G01X1397635Y3760759D01*
G01X1398501Y3762144D01*
G01X1399194Y3763529D01*
G01X1399713Y3764915D01*
G01X1400406Y3768032D01*
G01X1400579Y3771149D01*
G01X1400406Y3774267D01*
G01X1400059Y3775999D01*
G01X1399540Y3778077D01*
G01X1398847Y3779636D01*
G01X1397981Y3781021D01*
G01X1397116Y3782233D01*
G01X1396249Y3783099D01*
G01X1394864Y3784138D01*
G01X1393306Y3785177D01*
G01X1391747Y3785870D01*
G01X1389842Y3786563D01*
G01X1388283Y3787082D01*
G01X1385859Y3787429D01*
G01X1382049Y3787775D01*
G01X1379278Y3787948D01*
G01X1376507Y3787775D01*
G01X1371658Y3787429D01*
G01X1370446Y3787256D01*
G01X1368887Y3787082D01*
G01X1366809Y3786736D01*
G01X1365077Y3786389D01*
G01X1362999Y3786043D01*
G01X1361440Y3785870D01*
G01X1361440Y3828473D01*
G01X1411316Y3828473D01*
G01X1411316Y3818774D01*
G01X1372177Y3818774D01*
G01X1372177Y3796954D01*
G01X1374429Y3796954D01*
G01X1377199Y3797127D01*
G01X1380490Y3797300D01*
G01X1383781Y3797127D01*
G01X1385686Y3796954D01*
G01X1388283Y3796781D01*
G01X1390708Y3796434D01*
G01X1392786Y3796088D01*
G01X1394864Y3795568D01*
G01X1396942Y3794876D01*
G01X1398674Y3794183D01*
G01X1400059Y3793490D01*
G01X1401445Y3792624D01*
G01X1402657Y3791758D01*
G01X1403696Y3791066D01*
G01X1404736Y3790199D01*
G01X1406814Y3788121D01*
G01X1407853Y3786736D01*
G01X1408546Y3785697D01*
G01X1409238Y3784484D01*
G01X1409931Y3783099D01*
G01X1410451Y3781714D01*
G01X1410970Y3779809D01*
G01X1411489Y3778077D01*
G01X1411836Y3774613D01*
G01X1412009Y3772535D01*
G01X1411836Y3770457D01*
G01X1411663Y3769244D01*
G01X1411489Y3767686D01*
G01X1410797Y3764222D01*
G01X1410277Y3762317D01*
G01X1409584Y3760586D01*
G01X1408892Y3759027D01*
G01X1408199Y3757641D01*
G01X1407333Y3756256D01*
G01X1406467Y3755044D01*
G01X1405948Y3754178D01*
G01X1405255Y3753312D01*
G01X1402138Y3750194D01*
G01X1401272Y3749502D01*
G01X1400059Y3748636D01*
G01X1398674Y3747770D01*
G01X1395903Y3746384D01*
G01X1394518Y3745865D01*
G01X1392959Y3745346D01*
G01X1391227Y3744826D01*
G01X1389669Y3744479D01*
G01X1387244Y3744133D01*
G01X1381009Y3743960D01*
G37*
G36*
G01X1428981Y3745692D02*
G01X1428981Y3751407D01*
G01X1429111Y3755780D01*
G01X1429501Y3757468D01*
G01X1430366Y3758334D01*
G01X1440064Y3766647D01*
G01X1442143Y3768379D01*
G01X1443355Y3769591D01*
G01X1444741Y3770630D01*
G01X1446472Y3772362D01*
G01X1448204Y3773747D01*
G01X1459807Y3785351D01*
G01X1460846Y3786736D01*
G01X1461712Y3787602D01*
G01X1463444Y3789680D01*
G01X1464483Y3790892D01*
G01X1465696Y3792624D01*
G01X1466734Y3794183D01*
G01X1467601Y3795741D01*
G01X1468466Y3797473D01*
G01X1469159Y3799205D01*
G01X1469679Y3800937D01*
G01X1470025Y3802322D01*
G01X1470371Y3806132D01*
G01X1470371Y3806998D01*
G01X1470198Y3808037D01*
G01X1470025Y3809942D01*
G01X1469506Y3812021D01*
G01X1468813Y3813579D01*
G01X1467947Y3814964D01*
G01X1467081Y3816177D01*
G01X1466215Y3817043D01*
G01X1465003Y3817909D01*
G01X1463444Y3818774D01*
G01X1461886Y3819467D01*
G01X1460327Y3819987D01*
G01X1458941Y3820333D01*
G01X1455131Y3820679D01*
G01X1454092Y3820679D01*
G01X1452187Y3820506D01*
G01X1449936Y3820333D01*
G01X1447858Y3819987D01*
G01X1445433Y3819467D01*
G01X1443701Y3818948D01*
G01X1442316Y3818601D01*
G01X1440757Y3818082D01*
G01X1439026Y3817389D01*
G01X1437467Y3816696D01*
G01X1434349Y3815138D01*
G01X1433137Y3814272D01*
G01X1431925Y3813752D01*
G01X1431059Y3813579D01*
G01X1431059Y3818948D01*
G01X1431232Y3824836D01*
G01X1432271Y3825702D01*
G01X1433830Y3826394D01*
G01X1438506Y3827953D01*
G01X1440584Y3828473D01*
G01X1442316Y3828992D01*
G01X1446126Y3829685D01*
G01X1448897Y3830031D01*
G01X1453746Y3830204D01*
G01X1459634Y3830031D01*
G01X1461712Y3829685D01*
G01X1463271Y3829339D01*
G01X1465349Y3828819D01*
G01X1468466Y3827780D01*
G01X1470371Y3826914D01*
G01X1473142Y3825182D01*
G01X1474354Y3824143D01*
G01X1475394Y3823277D01*
G01X1476259Y3822411D01*
G01X1476952Y3821546D01*
G01X1477991Y3820333D01*
G01X1479031Y3818774D01*
G01X1479896Y3817043D01*
G01X1480589Y3815311D01*
G01X1481109Y3813406D01*
G01X1481455Y3811674D01*
G01X1481628Y3808211D01*
G01X1481455Y3803708D01*
G01X1481109Y3801629D01*
G01X1480936Y3800417D01*
G01X1480589Y3799032D01*
G01X1479550Y3795914D01*
G01X1478857Y3794356D01*
G01X1477991Y3792624D01*
G01X1476952Y3790892D01*
G01X1475913Y3789334D01*
G01X1475221Y3788121D01*
G01X1474528Y3787256D01*
G01X1472796Y3785177D01*
G01X1471411Y3783446D01*
G01X1467947Y3779982D01*
G01X1466215Y3777904D01*
G01X1465176Y3777038D01*
G01X1463964Y3775999D01*
G01X1458595Y3770630D01*
G01X1456863Y3769244D01*
G01X1455997Y3768379D01*
G01X1453919Y3766647D01*
G01X1452707Y3765434D01*
G01X1451321Y3764396D01*
G01X1450456Y3763529D01*
G01X1443182Y3757295D01*
G01X1442143Y3756429D01*
G01X1441277Y3755563D01*
G01X1446472Y3755174D01*
G01X1462405Y3755044D01*
G01X1484572Y3754871D01*
G01X1485438Y3754697D01*
G01X1485438Y3745692D01*
G01X1428981Y3745692D01*
G37*
G36*
G01X1536700Y3745692D02*
G01X1536700Y3768898D01*
G01X1496868Y3768898D01*
G01X1496868Y3775133D01*
G01X1497023Y3778077D01*
G01X1505354Y3778077D01*
G01X1521114Y3777904D01*
G01X1536700Y3777904D01*
G01X1536700Y3814618D01*
G01X1536007Y3814272D01*
G01X1534795Y3813059D01*
G01X1527521Y3804574D01*
G01X1526136Y3802842D01*
G01X1524924Y3801629D01*
G01X1523884Y3800244D01*
G01X1523019Y3799378D01*
G01X1506393Y3779982D01*
G01X1505527Y3778943D01*
G01X1505527Y3778943D01*
G01X1505354Y3778077D01*
G01X1497023Y3778077D01*
G01X1497214Y3781714D01*
G01X1498081Y3782926D01*
G01X1534449Y3825356D01*
G01X1535834Y3827087D01*
G01X1536700Y3827953D01*
G01X1538259Y3828343D01*
G01X1542242Y3828473D01*
G01X1547437Y3828473D01*
G01X1547437Y3777904D01*
G01X1559906Y3777904D01*
G01X1559906Y3768898D01*
G01X1547437Y3768898D01*
G01X1547437Y3745692D01*
G01X1536700Y3745692D01*
G37*
G36*
G01X1719926Y3743960D02*
G01X1714384Y3744133D01*
G01X1712479Y3744479D01*
G01X1710401Y3744826D01*
G01X1708843Y3745172D01*
G01X1707111Y3745692D01*
G01X1705379Y3746384D01*
G01X1703821Y3747077D01*
G01X1702435Y3747770D01*
G01X1700876Y3748636D01*
G01X1699491Y3749502D01*
G01X1698452Y3750368D01*
G01X1694642Y3754178D01*
G01X1693776Y3755390D01*
G01X1692910Y3756776D01*
G01X1692217Y3757988D01*
G01X1691524Y3759373D01*
G01X1690832Y3761105D01*
G01X1690139Y3763010D01*
G01X1689619Y3764569D01*
G01X1688927Y3768032D01*
G01X1688581Y3770457D01*
G01X1688234Y3775306D01*
G01X1688061Y3802149D01*
G01X1688061Y3828473D01*
G01X1699144Y3828473D01*
G01X1699144Y3801803D01*
G01X1699318Y3774613D01*
G01X1699491Y3772881D01*
G01X1699664Y3770457D01*
G01X1700011Y3768725D01*
G01X1700357Y3767166D01*
G01X1700876Y3765261D01*
G01X1701569Y3763529D01*
G01X1702435Y3761798D01*
G01X1703647Y3760066D01*
G01X1704686Y3758681D01*
G01X1705899Y3757468D01*
G01X1707457Y3756429D01*
G01X1708843Y3755563D01*
G01X1710401Y3754871D01*
G01X1711787Y3754351D01*
G01X1713692Y3753831D01*
G01X1715597Y3753485D01*
G01X1719407Y3753312D01*
G01X1723217Y3753485D01*
G01X1725641Y3753831D01*
G01X1727200Y3754178D01*
G01X1728932Y3754697D01*
G01X1730491Y3755390D01*
G01X1731876Y3756083D01*
G01X1733261Y3756949D01*
G01X1734474Y3757988D01*
G01X1736552Y3760066D01*
G01X1737591Y3761624D01*
G01X1738284Y3762837D01*
G01X1738803Y3764049D01*
G01X1739323Y3765434D01*
G01X1739842Y3766993D01*
G01X1740189Y3768379D01*
G01X1740535Y3770803D01*
G01X1740881Y3777038D01*
G01X1741054Y3803015D01*
G01X1741054Y3828473D01*
G01X1751792Y3828473D01*
G01X1751792Y3801110D01*
G01X1751619Y3773228D01*
G01X1751272Y3770111D01*
G01X1750926Y3768032D01*
G01X1750406Y3765261D01*
G01X1749887Y3763529D01*
G01X1749541Y3762144D01*
G01X1749021Y3760586D01*
G01X1748328Y3759027D01*
G01X1747462Y3757295D01*
G01X1746423Y3755736D01*
G01X1745731Y3754524D01*
G01X1745038Y3753658D01*
G01X1741574Y3750194D01*
G01X1740362Y3749329D01*
G01X1738803Y3748289D01*
G01X1737418Y3747424D01*
G01X1734993Y3746384D01*
G01X1733608Y3745865D01*
G01X1732049Y3745346D01*
G01X1730144Y3744826D01*
G01X1728412Y3744479D01*
G01X1725641Y3744133D01*
G01X1719926Y3743960D01*
G37*
G36*
G01X1823143Y3744306D02*
G01X1819506Y3744479D01*
G01X1818121Y3744826D01*
G01X1816562Y3745172D01*
G01X1814830Y3745692D01*
G01X1813271Y3746384D01*
G01X1810847Y3747597D01*
G01X1809981Y3748289D01*
G01X1807903Y3750368D01*
G01X1806864Y3751926D01*
G01X1806171Y3753139D01*
G01X1805651Y3754351D01*
G01X1805132Y3755736D01*
G01X1804612Y3757468D01*
G01X1804266Y3759027D01*
G01X1803919Y3762144D01*
G01X1803746Y3780848D01*
G01X1803746Y3799032D01*
G01X1796819Y3799032D01*
G01X1796819Y3807691D01*
G01X1803746Y3807691D01*
G01X1803746Y3825702D01*
G01X1814137Y3825702D01*
G01X1814137Y3807691D01*
G01X1835958Y3807691D01*
G01X1835958Y3799032D01*
G01X1814137Y3799032D01*
G01X1814137Y3783446D01*
G01X1814311Y3767339D01*
G01X1814484Y3764569D01*
G01X1814830Y3761105D01*
G01X1815523Y3759027D01*
G01X1816216Y3757641D01*
G01X1816908Y3756602D01*
G01X1818121Y3755390D01*
G01X1819506Y3754524D01*
G01X1820718Y3754004D01*
G01X1822969Y3753658D01*
G01X1825048Y3753485D01*
G01X1825914Y3753485D01*
G01X1827126Y3753658D01*
G01X1829204Y3753831D01*
G01X1831629Y3754351D01*
G01X1833361Y3754871D01*
G01X1834919Y3755217D01*
G01X1835958Y3755390D01*
G01X1835958Y3751061D01*
G01X1835612Y3746211D01*
G01X1834053Y3745519D01*
G01X1832321Y3745172D01*
G01X1829551Y3744826D01*
G01X1826433Y3744479D01*
G01X1823143Y3744306D01*
G37*
G36*
G01X1848774Y3745692D02*
G01X1848774Y3807691D01*
G01X1859164Y3807691D01*
G01X1859164Y3803361D01*
G01X1859251Y3800158D01*
G01X1859511Y3799205D01*
G01X1860377Y3799724D01*
G01X1861243Y3800417D01*
G01X1862455Y3801283D01*
G01X1865572Y3803361D01*
G01X1866958Y3804227D01*
G01X1869729Y3805613D01*
G01X1872499Y3806652D01*
G01X1874231Y3807171D01*
G01X1875963Y3807518D01*
G01X1879946Y3807691D01*
G01X1884622Y3807518D01*
G01X1886701Y3807171D01*
G01X1887566Y3806998D01*
G01X1887566Y3802322D01*
G01X1887393Y3797127D01*
G01X1886874Y3796781D01*
G01X1885661Y3796781D01*
G01X1883583Y3797127D01*
G01X1878041Y3797473D01*
G01X1877176Y3797473D01*
G01X1876136Y3797300D01*
G01X1873885Y3797127D01*
G01X1871287Y3796607D01*
G01X1869382Y3795914D01*
G01X1867651Y3795222D01*
G01X1866265Y3794529D01*
G01X1865053Y3793836D01*
G01X1863667Y3792971D01*
G01X1862109Y3791931D01*
G01X1860896Y3791066D01*
G01X1859857Y3790373D01*
G01X1859338Y3784571D01*
G01X1859164Y3767859D01*
G01X1859164Y3745692D01*
G01X1848774Y3745692D01*
G37*
G36*
G01X2070446Y3745692D02*
G01X2070446Y3751407D01*
G01X2070576Y3755780D01*
G01X2070966Y3757468D01*
G01X2071832Y3758334D01*
G01X2081530Y3766647D01*
G01X2083608Y3768379D01*
G01X2084821Y3769591D01*
G01X2086206Y3770630D01*
G01X2087072Y3771496D01*
G01X2088804Y3772881D01*
G01X2101273Y3785351D01*
G01X2102312Y3786736D01*
G01X2103178Y3787602D01*
G01X2104563Y3789334D01*
G01X2105429Y3790199D01*
G01X2106122Y3791066D01*
G01X2107854Y3793490D01*
G01X2108546Y3794702D01*
G01X2109412Y3796261D01*
G01X2110105Y3797819D01*
G01X2110624Y3799205D01*
G01X2111144Y3800764D01*
G01X2111491Y3802322D01*
G01X2111664Y3803881D01*
G01X2111837Y3805786D01*
G01X2111837Y3807171D01*
G01X2111491Y3809942D01*
G01X2111144Y3811501D01*
G01X2110451Y3813406D01*
G01X2109412Y3814964D01*
G01X2108546Y3816177D01*
G01X2107681Y3817043D01*
G01X2106468Y3817909D01*
G01X2104909Y3818774D01*
G01X2103351Y3819467D01*
G01X2101792Y3819987D01*
G01X2100407Y3820333D01*
G01X2096597Y3820679D01*
G01X2095731Y3820679D01*
G01X2093826Y3820506D01*
G01X2091401Y3820333D01*
G01X2089323Y3819987D01*
G01X2086899Y3819467D01*
G01X2085167Y3818948D01*
G01X2083781Y3818601D01*
G01X2082223Y3818082D01*
G01X2080491Y3817389D01*
G01X2078932Y3816696D01*
G01X2075815Y3815138D01*
G01X2074603Y3814272D01*
G01X2073391Y3813752D01*
G01X2072524Y3813579D01*
G01X2072524Y3819294D01*
G01X2072871Y3825182D01*
G01X2073737Y3825702D01*
G01X2074949Y3826221D01*
G01X2076334Y3826741D01*
G01X2079452Y3827780D01*
G01X2081184Y3828299D01*
G01X2083435Y3828819D01*
G01X2085859Y3829339D01*
G01X2087591Y3829685D01*
G01X2090362Y3830031D01*
G01X2095558Y3830204D01*
G01X2101099Y3830031D01*
G01X2103178Y3829685D01*
G01X2105602Y3829166D01*
G01X2107334Y3828646D01*
G01X2108719Y3828299D01*
G01X2110105Y3827780D01*
G01X2111491Y3827087D01*
G01X2113049Y3826221D01*
G01X2114434Y3825356D01*
G01X2115474Y3824489D01*
G01X2117898Y3822411D01*
G01X2118937Y3821026D01*
G01X2120149Y3819294D01*
G01X2121016Y3817909D01*
G01X2121535Y3816696D01*
G01X2122054Y3815311D01*
G01X2122574Y3813579D01*
G01X2122921Y3812021D01*
G01X2123094Y3808211D01*
G01X2122921Y3803361D01*
G01X2122574Y3801283D01*
G01X2122228Y3799724D01*
G01X2121708Y3797993D01*
G01X2121189Y3796434D01*
G01X2120669Y3795049D01*
G01X2119284Y3792278D01*
G01X2118418Y3790892D01*
G01X2117379Y3789334D01*
G01X2116686Y3788121D01*
G01X2115993Y3787256D01*
G01X2112529Y3783099D01*
G01X2109932Y3780501D01*
G01X2108546Y3778769D01*
G01X2106295Y3776518D01*
G01X2105602Y3775999D01*
G01X2104736Y3775306D01*
G01X2100061Y3770630D01*
G01X2098675Y3769591D01*
G01X2096943Y3767859D01*
G01X2095211Y3766474D01*
G01X2094346Y3765608D01*
G01X2084647Y3757295D01*
G01X2083608Y3756429D01*
G01X2082742Y3755563D01*
G01X2088154Y3755174D01*
G01X2104736Y3755044D01*
G01X2126904Y3755044D01*
G01X2126904Y3745692D01*
G01X2070446Y3745692D01*
G37*
G36*
G01X2023557Y3745865D02*
G01X2021956Y3746384D01*
G01X2019184Y3753312D01*
G01X2018665Y3754697D01*
G01X2017626Y3757122D01*
G01X2017106Y3758507D01*
G01X2016414Y3760066D01*
G01X2003252Y3792971D01*
G01X2002559Y3794529D01*
G01X1997710Y3806652D01*
G01X1997364Y3807691D01*
G01X2002732Y3807691D01*
G01X2008621Y3807344D01*
G01X2009313Y3806306D01*
G01X2009833Y3804920D01*
G01X2011218Y3801456D01*
G01X2012257Y3798686D01*
G01X2013643Y3795222D01*
G01X2014682Y3792451D01*
G01X2016067Y3788987D01*
G01X2017106Y3786216D01*
G01X2018492Y3782753D01*
G01X2019531Y3779982D01*
G01X2020916Y3776518D01*
G01X2021956Y3773747D01*
G01X2024034Y3768552D01*
G01X2024726Y3766647D01*
G01X2026112Y3763183D01*
G01X2026804Y3761278D01*
G01X2027497Y3759546D01*
G01X2027844Y3759113D01*
G01X2028190Y3759200D01*
G01X2028883Y3760412D01*
G01X2029576Y3762144D01*
G01X2030268Y3764049D01*
G01X2031654Y3767513D01*
G01X2032346Y3769418D01*
G01X2033732Y3772881D01*
G01X2034424Y3774786D01*
G01X2035810Y3778250D01*
G01X2036503Y3780155D01*
G01X2037196Y3781887D01*
G01X2037888Y3783792D01*
G01X2039274Y3787256D01*
G01X2039966Y3789161D01*
G01X2041352Y3792624D01*
G01X2042044Y3794529D01*
G01X2043430Y3797993D01*
G01X2044123Y3799898D01*
G01X2044816Y3801629D01*
G01X2045508Y3803534D01*
G01X2046201Y3805266D01*
G01X2046721Y3806825D01*
G01X2046894Y3807691D01*
G01X2051916Y3807691D01*
G01X2057458Y3807518D01*
G01X2057761Y3807258D01*
G01X2057631Y3806825D01*
G01X2056938Y3805266D01*
G01X2052089Y3793144D01*
G01X2051396Y3791585D01*
G01X2045162Y3775999D01*
G01X2044469Y3774440D01*
G01X2040313Y3764049D01*
G01X2039793Y3762664D01*
G01X2039274Y3761451D01*
G01X2038581Y3759893D01*
G01X2033732Y3747770D01*
G01X2033212Y3746384D01*
G01X2031740Y3745865D01*
G01X2027671Y3745692D01*
G01X2023557Y3745865D01*
G37*
G36*
G01X1911466Y3743960D02*
G01X1906789Y3744133D01*
G01X1903672Y3745172D01*
G01X1902287Y3745692D01*
G01X1900555Y3746558D01*
G01X1898996Y3747597D01*
G01X1897784Y3748463D01*
G01X1895186Y3751061D01*
G01X1894494Y3751926D01*
G01X1893108Y3754004D01*
G01X1892416Y3755390D01*
G01X1891203Y3759027D01*
G01X1891030Y3763183D01*
G01X1891102Y3764915D01*
G01X1901767Y3764915D01*
G01X1901941Y3762144D01*
G01X1902287Y3760586D01*
G01X1902806Y3759027D01*
G01X1903672Y3757641D01*
G01X1904711Y3756429D01*
G01X1905924Y3755563D01*
G01X1907309Y3754871D01*
G01X1908521Y3754351D01*
G01X1909907Y3754004D01*
G01X1909907Y3754004D01*
G01X1910946Y3753831D01*
G01X1914236Y3753658D01*
G01X1917873Y3753831D01*
G01X1919086Y3754004D01*
G01X1920817Y3754351D01*
G01X1922376Y3754871D01*
G01X1923588Y3755217D01*
G01X1924801Y3755736D01*
G01X1927918Y3757295D01*
G01X1929649Y3758334D01*
G01X1931208Y3759373D01*
G01X1932594Y3760239D01*
G01X1933113Y3762707D01*
G01X1933286Y3769418D01*
G01X1933286Y3778250D01*
G01X1932421Y3778250D01*
G01X1931035Y3778077D01*
G01X1926532Y3777731D01*
G01X1922376Y3777384D01*
G01X1921164Y3777211D01*
G01X1919259Y3777038D01*
G01X1916834Y3776691D01*
G01X1914756Y3776345D01*
G01X1913024Y3775999D01*
G01X1911119Y3775479D01*
G01X1909214Y3774786D01*
G01X1907829Y3774094D01*
G01X1906616Y3773401D01*
G01X1905577Y3772708D01*
G01X1904711Y3772016D01*
G01X1903846Y3771149D01*
G01X1903153Y3770284D01*
G01X1902460Y3769071D01*
G01X1901941Y3767686D01*
G01X1901767Y3764915D01*
G01X1891102Y3764915D01*
G01X1891203Y3767339D01*
G01X1891376Y3768552D01*
G01X1891723Y3769937D01*
G01X1892242Y3771496D01*
G01X1892762Y3772881D01*
G01X1893454Y3774094D01*
G01X1894147Y3775133D01*
G01X1894667Y3775999D01*
G01X1895359Y3776864D01*
G01X1897091Y3778596D01*
G01X1898477Y3779636D01*
G01X1900036Y3780674D01*
G01X1901248Y3781367D01*
G01X1903672Y3782406D01*
G01X1905058Y3782926D01*
G01X1908175Y3783965D01*
G01X1909561Y3784311D01*
G01X1913371Y3785004D01*
G01X1915795Y3785351D01*
G01X1922722Y3786043D01*
G01X1927225Y3786389D01*
G01X1930516Y3786563D01*
G01X1933286Y3786563D01*
G01X1933286Y3788294D01*
G01X1933113Y3790892D01*
G01X1932767Y3792278D01*
G01X1932421Y3793490D01*
G01X1931728Y3794876D01*
G01X1930862Y3796088D01*
G01X1929996Y3796954D01*
G01X1929130Y3797646D01*
G01X1927918Y3798339D01*
G01X1926013Y3799032D01*
G01X1924454Y3799551D01*
G01X1921683Y3799898D01*
G01X1917700Y3800071D01*
G01X1913717Y3799898D01*
G01X1910599Y3799551D01*
G01X1908694Y3799205D01*
G01X1906097Y3798686D01*
G01X1904365Y3798166D01*
G01X1902979Y3797819D01*
G01X1898304Y3796261D01*
G01X1896918Y3795914D01*
G01X1896399Y3797170D01*
G01X1896226Y3800937D01*
G01X1896399Y3804833D01*
G01X1896918Y3806479D01*
G01X1898650Y3807171D01*
G01X1900209Y3807518D01*
G01X1904019Y3808211D01*
G01X1906443Y3808557D01*
G01X1909214Y3808903D01*
G01X1914756Y3809249D01*
G01X1916834Y3809423D01*
G01X1918912Y3809249D01*
G01X1920644Y3809076D01*
G01X1923415Y3808903D01*
G01X1925839Y3808557D01*
G01X1927918Y3808211D01*
G01X1930169Y3807691D01*
G01X1931901Y3806998D01*
G01X1933459Y3806306D01*
G01X1935884Y3805093D01*
G01X1936750Y3804401D01*
G01X1939174Y3802322D01*
G01X1939867Y3801456D01*
G01X1940560Y3800417D01*
G01X1941253Y3799205D01*
G01X1941946Y3797819D01*
G01X1942638Y3796261D01*
G01X1943158Y3794356D01*
G01X1943504Y3792624D01*
G01X1943677Y3768898D01*
G01X1943677Y3745692D01*
G01X1933286Y3745692D01*
G01X1933286Y3751926D01*
G01X1932594Y3751580D01*
G01X1931035Y3750541D01*
G01X1929303Y3749329D01*
G01X1928091Y3748463D01*
G01X1926879Y3747770D01*
G01X1924108Y3746384D01*
G01X1922376Y3745692D01*
G01X1920298Y3744999D01*
G01X1918566Y3744479D01*
G01X1916141Y3744133D01*
G01X1911466Y3743960D01*
G37*
G36*
G01X1772227Y3745692D02*
G01X1772227Y3832283D01*
G01X1776730Y3832283D01*
G01X1782099Y3832109D01*
G01X1782964Y3831936D01*
G01X1782964Y3745692D01*
G01X1772227Y3745692D01*
G37*
G01X2611120Y716534D02*
G01X2611120Y651510D01*
G01X2611120Y651510D02*
G01X2648204Y651510D01*
G01X2678430Y716534D02*
G01X2678430Y651510D01*
G01X2678430Y716534D02*
G01X2706116Y716534D01*
G01X2715514Y713486D01*
G01X2718562Y710438D01*
G01X2721610Y704088D01*
G01X2721610Y694944D01*
G01X2718562Y688848D01*
G01X2715514Y685546D01*
G01X2706116Y682498D01*
G01X2678430Y682498D01*
G01X2867406Y701040D02*
G01X2864358Y707390D01*
G01X2858262Y713486D01*
G01X2851912Y716534D01*
G01X2839720Y716534D01*
G01X2833370Y713486D01*
G01X2827274Y707390D01*
G01X2824226Y701040D01*
G01X2821178Y691896D01*
G01X2821178Y676402D01*
G01X2824226Y667004D01*
G01X2827274Y660908D01*
G01X2833370Y654558D01*
G01X2839720Y651510D01*
G01X2851912Y651510D01*
G01X2858262Y654558D01*
G01X2864358Y660908D01*
G01X2867406Y667004D01*
G01X2867406Y676402D01*
G01X2851912Y676402D02*
G01X2867406Y676402D01*
G01X2897632Y694944D02*
G01X2897632Y651510D01*
G01X2897632Y682498D02*
G01X2906776Y691896D01*
G01X2912872Y694944D01*
G01X2922270Y694944D01*
G01X2928366Y691896D01*
G01X2931668Y682498D01*
G01X2931668Y651510D01*
G01X2998978Y716534D02*
G01X2998978Y651510D01*
G01X2998978Y685546D02*
G01X2992628Y691896D01*
G01X2986532Y694944D01*
G01X2977134Y694944D01*
G01X2971038Y691896D01*
G01X2964942Y685546D01*
G01X2961894Y676402D01*
G01X2961894Y670052D01*
G01X2964942Y660908D01*
G01X2971038Y654558D01*
G01X2977134Y651510D01*
G01X2986532Y651510D01*
G01X2992628Y654558D01*
G01X2998978Y660908D01*
G01X3098546Y716534D02*
G01X3098546Y651510D01*
G01X3098546Y651510D02*
G01X3135630Y651510D01*
G01X3165856Y716534D02*
G01X3165856Y651510D01*
G01X3165856Y716534D02*
G01X3190494Y651510D01*
G01X3215386Y716534D02*
G01X3190494Y651510D01*
G01X3215386Y716534D02*
G01X3215386Y651510D01*
G36*
G01X949671Y3617999D02*
G01X946554Y3618172D01*
G01X945169Y3618346D01*
G01X942744Y3618519D01*
G01X939973Y3618865D01*
G01X937895Y3619211D01*
G01X936336Y3619558D01*
G01X934258Y3620077D01*
G01X932699Y3620597D01*
G01X931487Y3620943D01*
G01X929063Y3621982D01*
G01X928024Y3622502D01*
G01X926811Y3623194D01*
G01X925426Y3623887D01*
G01X924387Y3624580D01*
G01X923521Y3625273D01*
G01X922655Y3625792D01*
G01X920057Y3627871D01*
G01X917979Y3629949D01*
G01X916594Y3631681D01*
G01X915554Y3633066D01*
G01X914862Y3633932D01*
G01X912784Y3637569D01*
G01X912091Y3639127D01*
G01X911571Y3640513D01*
G01X911052Y3641725D01*
G01X910532Y3643111D01*
G01X910013Y3645016D01*
G01X909493Y3646574D01*
G01X908801Y3650038D01*
G01X908454Y3652462D01*
G01X908108Y3656272D01*
G01X907934Y3660602D01*
G01X908108Y3664931D01*
G01X908281Y3666144D01*
G01X908454Y3668395D01*
G01X908801Y3670819D01*
G01X909493Y3674283D01*
G01X910013Y3676361D01*
G01X910706Y3678613D01*
G01X911398Y3680518D01*
G01X912091Y3682249D01*
G01X914169Y3686406D01*
G01X914862Y3687445D01*
G01X915728Y3688657D01*
G01X916421Y3689869D01*
G01X917113Y3690736D01*
G01X921443Y3695065D01*
G01X922655Y3696104D01*
G01X924387Y3697316D01*
G01X925946Y3698356D01*
G01X927158Y3699048D01*
G01X929929Y3700434D01*
G01X931141Y3700953D01*
G01X932526Y3701473D01*
G01X937722Y3703031D01*
G01X939281Y3703378D01*
G01X941705Y3703724D01*
G01X946208Y3704071D01*
G01X948632Y3704244D01*
G01X951057Y3704071D01*
G01X952442Y3703897D01*
G01X954521Y3703724D01*
G01X956945Y3703378D01*
G01X958677Y3703031D01*
G01X960755Y3702685D01*
G01X963006Y3702166D01*
G01X966470Y3701126D01*
G01X968029Y3700607D01*
G01X969414Y3700087D01*
G01X971839Y3699048D01*
G01X974956Y3697663D01*
G01X976168Y3697143D01*
G01X976688Y3695411D01*
G01X976861Y3690562D01*
G01X976514Y3683981D01*
G01X975476Y3684328D01*
G01X974263Y3685194D01*
G01X972878Y3686233D01*
G01X971146Y3687445D01*
G01X969587Y3688484D01*
G01X968202Y3689350D01*
G01X966643Y3690216D01*
G01X963526Y3691774D01*
G01X962141Y3692294D01*
G01X959023Y3693333D01*
G01X957638Y3693679D01*
G01X953828Y3694372D01*
G01X948979Y3694719D01*
G01X947939Y3694719D01*
G01X943437Y3694372D01*
G01X941532Y3694026D01*
G01X939107Y3693506D01*
G01X937029Y3692814D01*
G01X935471Y3692121D01*
G01X934085Y3691428D01*
G01X932526Y3690562D01*
G01X931314Y3689696D01*
G01X929582Y3688311D01*
G01X926638Y3685367D01*
G01X925599Y3683981D01*
G01X924906Y3683116D01*
G01X924214Y3681903D01*
G01X922482Y3678439D01*
G01X921789Y3676534D01*
G01X921096Y3674283D01*
G01X920577Y3672551D01*
G01X919884Y3668741D01*
G01X919538Y3664931D01*
G01X919364Y3661641D01*
G01X919538Y3658351D01*
G01X919884Y3654541D01*
G01X920231Y3652462D01*
G01X920750Y3649691D01*
G01X921443Y3647267D01*
G01X922136Y3645362D01*
G01X922655Y3643976D01*
G01X923348Y3642418D01*
G01X924214Y3640859D01*
G01X925079Y3639474D01*
G01X925772Y3638261D01*
G01X927851Y3635664D01*
G01X929582Y3633932D01*
G01X930448Y3633239D01*
G01X932873Y3631507D01*
G01X934085Y3630814D01*
G01X935644Y3630122D01*
G01X938414Y3629083D01*
G01X939973Y3628563D01*
G01X941359Y3628217D01*
G01X943783Y3627871D01*
G01X947766Y3627697D01*
G01X952789Y3627871D01*
G01X955213Y3628217D01*
G01X956599Y3628563D01*
G01X958157Y3628909D01*
G01X960236Y3629429D01*
G01X962314Y3630122D01*
G01X964046Y3630814D01*
G01X965604Y3631507D01*
G01X966989Y3632200D01*
G01X968202Y3632893D01*
G01X969761Y3633759D01*
G01X971319Y3634798D01*
G01X972531Y3635491D01*
G01X973397Y3636183D01*
G01X974263Y3637049D01*
G01X975129Y3637742D01*
G01X976168Y3638261D01*
G01X976861Y3638434D01*
G01X976861Y3632200D01*
G01X976514Y3625619D01*
G01X975302Y3624926D01*
G01X973917Y3624234D01*
G01X971492Y3623194D01*
G01X970107Y3622502D01*
G01X968202Y3621809D01*
G01X966470Y3621116D01*
G01X961274Y3619558D01*
G01X959716Y3619211D01*
G01X955906Y3618519D01*
G01X953135Y3618172D01*
G01X949671Y3617999D01*
G37*
G36*
G01X2601653Y3617999D02*
G01X2598709Y3618172D01*
G01X2597323Y3618346D01*
G01X2594899Y3618519D01*
G01X2592128Y3618865D01*
G01X2590049Y3619211D01*
G01X2588837Y3619384D01*
G01X2587452Y3619731D01*
G01X2583988Y3620770D01*
G01X2582256Y3621463D01*
G01X2580698Y3622156D01*
G01X2577927Y3623541D01*
G01X2576888Y3624234D01*
G01X2575676Y3625099D01*
G01X2574117Y3626139D01*
G01X2572904Y3627178D01*
G01X2569094Y3630988D01*
G01X2568056Y3632373D01*
G01X2567189Y3633586D01*
G01X2566324Y3634971D01*
G01X2564592Y3638088D01*
G01X2563206Y3641206D01*
G01X2562167Y3644323D01*
G01X2561648Y3646054D01*
G01X2561301Y3647613D01*
G01X2560609Y3651077D01*
G01X2560262Y3654194D01*
G01X2560089Y3660429D01*
G01X2560262Y3666663D01*
G01X2560436Y3667876D01*
G01X2560609Y3669781D01*
G01X2560955Y3671512D01*
G01X2561301Y3673417D01*
G01X2561821Y3675842D01*
G01X2562514Y3678093D01*
G01X2563206Y3679998D01*
G01X2563899Y3681730D01*
G01X2564592Y3683289D01*
G01X2566151Y3686406D01*
G01X2568748Y3690043D01*
G01X2570826Y3692467D01*
G01X2571519Y3693333D01*
G01X2573597Y3695065D01*
G01X2574463Y3695931D01*
G01X2575849Y3696970D01*
G01X2577407Y3698009D01*
G01X2578793Y3698875D01*
G01X2580351Y3699741D01*
G01X2583469Y3701126D01*
G01X2585547Y3701819D01*
G01X2587798Y3702512D01*
G01X2589703Y3703031D01*
G01X2591089Y3703378D01*
G01X2593859Y3703724D01*
G01X2600614Y3704244D01*
G01X2602865Y3704071D01*
G01X2606675Y3703724D01*
G01X2610831Y3703031D01*
G01X2612563Y3702685D01*
G01X2614988Y3702166D01*
G01X2616719Y3701646D01*
G01X2617932Y3701299D01*
G01X2619317Y3700780D01*
G01X2620876Y3700261D01*
G01X2622261Y3699741D01*
G01X2625379Y3698356D01*
G01X2626591Y3697836D01*
G01X2628149Y3697143D01*
G01X2629016Y3696624D01*
G01X2629016Y3690389D01*
G01X2628886Y3685670D01*
G01X2628496Y3683981D01*
G01X2627630Y3684154D01*
G01X2625898Y3685540D01*
G01X2624686Y3686406D01*
G01X2621569Y3688484D01*
G01X2620183Y3689350D01*
G01X2617759Y3690736D01*
G01X2614641Y3692121D01*
G01X2613083Y3692641D01*
G01X2609619Y3693679D01*
G01X2608061Y3694026D01*
G01X2605636Y3694372D01*
G01X2600787Y3694719D01*
G01X2599921Y3694719D01*
G01X2598016Y3694546D01*
G01X2595245Y3694372D01*
G01X2591781Y3693679D01*
G01X2589876Y3693160D01*
G01X2588144Y3692467D01*
G01X2586239Y3691601D01*
G01X2584854Y3690736D01*
G01X2583815Y3690216D01*
G01X2582949Y3689523D01*
G01X2580871Y3687791D01*
G01X2580005Y3686926D01*
G01X2578619Y3685194D01*
G01X2577581Y3683981D01*
G01X2576714Y3682769D01*
G01X2576022Y3681557D01*
G01X2574636Y3678786D01*
G01X2573944Y3676881D01*
G01X2572731Y3673244D01*
G01X2572039Y3669781D01*
G01X2571692Y3667009D01*
G01X2571519Y3661641D01*
G01X2571692Y3656272D01*
G01X2572039Y3653155D01*
G01X2572385Y3651250D01*
G01X2572904Y3648826D01*
G01X2573597Y3646747D01*
G01X2574290Y3644842D01*
G01X2576541Y3640339D01*
G01X2577407Y3638954D01*
G01X2578100Y3637915D01*
G01X2579486Y3636183D01*
G01X2582083Y3633586D01*
G01X2582949Y3632893D01*
G01X2584161Y3632027D01*
G01X2585547Y3631161D01*
G01X2588318Y3629776D01*
G01X2589876Y3629256D01*
G01X2591608Y3628736D01*
G01X2593686Y3628217D01*
G01X2595591Y3627871D01*
G01X2599748Y3627697D01*
G01X2604943Y3627871D01*
G01X2607368Y3628217D01*
G01X2608753Y3628563D01*
G01X2610485Y3628909D01*
G01X2612390Y3629429D01*
G01X2613949Y3629949D01*
G01X2615334Y3630468D01*
G01X2621222Y3633412D01*
G01X2622781Y3634451D01*
G01X2623993Y3635144D01*
G01X2624859Y3635837D01*
G01X2626937Y3637569D01*
G01X2628149Y3638261D01*
G01X2629016Y3638434D01*
G01X2629016Y3632373D01*
G01X2628842Y3627654D01*
G01X2628323Y3625619D01*
G01X2626937Y3624753D01*
G01X2625725Y3624234D01*
G01X2624339Y3623541D01*
G01X2622781Y3622848D01*
G01X2621396Y3622329D01*
G01X2620183Y3621809D01*
G01X2617412Y3620770D01*
G01X2615681Y3620251D01*
G01X2611871Y3619211D01*
G01X2610139Y3618865D01*
G01X2607714Y3618519D01*
G01X2604943Y3618172D01*
G01X2601653Y3617999D01*
G37*
G36*
G01X2438516Y3619731D02*
G01X2438516Y3702512D01*
G01X2449599Y3702512D01*
G01X2449599Y3629429D01*
G01X2491163Y3629429D01*
G01X2491163Y3619731D01*
G01X2438516Y3619731D01*
G37*
G36*
G01X2502246Y3619731D02*
G01X2502246Y3702512D01*
G01X2513330Y3702512D01*
G01X2513330Y3629429D01*
G01X2533246Y3629429D01*
G01X2554028Y3629256D01*
G01X2554894Y3629083D01*
G01X2554894Y3619731D01*
G01X2502246Y3619731D01*
G37*
G36*
G01X1016000Y3617999D02*
G01X1011671Y3618172D01*
G01X1010112Y3618519D01*
G01X1007514Y3619038D01*
G01X1005263Y3619731D01*
G01X1003704Y3620424D01*
G01X999894Y3622329D01*
G01X999028Y3623021D01*
G01X996604Y3625099D01*
G01X995738Y3625966D01*
G01X994352Y3627697D01*
G01X993486Y3628563D01*
G01X992621Y3629949D01*
G01X991754Y3631161D01*
G01X991235Y3632200D01*
G01X990542Y3633759D01*
G01X989676Y3635664D01*
G01X988464Y3639301D01*
G01X987771Y3642764D01*
G01X987425Y3645881D01*
G01X987252Y3650038D01*
G01X987310Y3651423D01*
G01X997989Y3651423D01*
G01X998162Y3648306D01*
G01X998509Y3644842D01*
G01X998855Y3642764D01*
G01X999374Y3640166D01*
G01X1000067Y3638088D01*
G01X1000760Y3636529D01*
G01X1001453Y3635144D01*
G01X1002146Y3633932D01*
G01X1002665Y3633066D01*
G01X1003358Y3632200D01*
G01X1005089Y3630468D01*
G01X1005956Y3629776D01*
G01X1006994Y3629083D01*
G01X1008207Y3628390D01*
G01X1009592Y3627871D01*
G01X1011151Y3627351D01*
G01X1015134Y3627004D01*
G01X1015134Y3627004D01*
G01X1018944Y3627178D01*
G01X1020156Y3627351D01*
G01X1021542Y3627697D01*
G01X1023274Y3628390D01*
G01X1025006Y3629256D01*
G01X1026564Y3630295D01*
G01X1027776Y3631334D01*
G01X1028642Y3632200D01*
G01X1029681Y3633412D01*
G01X1030547Y3634798D01*
G01X1031586Y3636876D01*
G01X1032279Y3638434D01*
G01X1032799Y3639993D01*
G01X1033491Y3643457D01*
G01X1033838Y3646574D01*
G01X1034011Y3650211D01*
G01X1033838Y3653848D01*
G01X1033491Y3657311D01*
G01X1032799Y3660775D01*
G01X1032452Y3662161D01*
G01X1031933Y3663719D01*
G01X1031240Y3665278D01*
G01X1030028Y3667702D01*
G01X1029335Y3668568D01*
G01X1028469Y3669607D01*
G01X1027603Y3670473D01*
G01X1026737Y3671166D01*
G01X1025698Y3672032D01*
G01X1024486Y3672724D01*
G01X1023447Y3673244D01*
G01X1020676Y3674283D01*
G01X1016866Y3674629D01*
G01X1016000Y3674629D01*
G01X1014441Y3674456D01*
G01X1012363Y3674283D01*
G01X1010978Y3673937D01*
G01X1009419Y3673417D01*
G01X1007861Y3672724D01*
G01X1006648Y3672205D01*
G01X1005609Y3671512D01*
G01X1004570Y3670646D01*
G01X1003704Y3669781D01*
G01X1003011Y3668914D01*
G01X1001972Y3667702D01*
G01X1001106Y3666317D01*
G01X1000414Y3664931D01*
G01X999721Y3663026D01*
G01X999201Y3661468D01*
G01X998509Y3658004D01*
G01X998162Y3654541D01*
G01X997989Y3651423D01*
G01X987310Y3651423D01*
G01X987425Y3654194D01*
G01X987771Y3657658D01*
G01X988118Y3659563D01*
G01X988637Y3662161D01*
G01X989330Y3664412D01*
G01X990023Y3666317D01*
G01X990716Y3668049D01*
G01X991581Y3669781D01*
G01X992447Y3670993D01*
G01X993140Y3672205D01*
G01X994006Y3673417D01*
G01X996084Y3675842D01*
G01X996950Y3676708D01*
G01X998682Y3678093D01*
G01X999894Y3679132D01*
G01X1001279Y3679998D01*
G01X1004051Y3681384D01*
G01X1005436Y3681903D01*
G01X1006994Y3682423D01*
G01X1009073Y3682942D01*
G01X1010978Y3683289D01*
G01X1015481Y3683462D01*
G01X1019983Y3683289D01*
G01X1021369Y3683116D01*
G01X1023447Y3682769D01*
G01X1025698Y3682076D01*
G01X1027603Y3681384D01*
G01X1030374Y3679998D01*
G01X1031933Y3679132D01*
G01X1033491Y3677920D01*
G01X1034877Y3676881D01*
G01X1036609Y3675149D01*
G01X1037994Y3673417D01*
G01X1039033Y3672205D01*
G01X1039899Y3670819D01*
G01X1041284Y3668395D01*
G01X1041804Y3667183D01*
G01X1042324Y3665797D01*
G01X1043016Y3663892D01*
G01X1043536Y3662161D01*
G01X1044229Y3658697D01*
G01X1044575Y3655579D01*
G01X1044748Y3651077D01*
G01X1044575Y3646574D01*
G01X1044402Y3645362D01*
G01X1044229Y3643803D01*
G01X1043882Y3641725D01*
G01X1043363Y3639301D01*
G01X1042843Y3637569D01*
G01X1042497Y3636356D01*
G01X1041977Y3634971D01*
G01X1041284Y3633412D01*
G01X1040419Y3631681D01*
G01X1039553Y3630295D01*
G01X1038860Y3629083D01*
G01X1036262Y3625966D01*
G01X1034531Y3624234D01*
G01X1032799Y3622848D01*
G01X1031586Y3621982D01*
G01X1030028Y3621116D01*
G01X1028642Y3620424D01*
G01X1027084Y3619731D01*
G01X1024832Y3619038D01*
G01X1023101Y3618519D01*
G01X1020676Y3618172D01*
G01X1016000Y3617999D01*
G37*
G36*
G01X1061027Y3596524D02*
G01X1061027Y3649345D01*
G01X1071418Y3649345D01*
G01X1071764Y3631334D01*
G01X1072804Y3630641D01*
G01X1074016Y3630122D01*
G01X1075401Y3629602D01*
G01X1076960Y3629083D01*
G01X1078692Y3628563D01*
G01X1080251Y3628217D01*
G01X1082502Y3628044D01*
G01X1082502Y3628044D01*
G01X1084407Y3627871D01*
G01X1085966Y3627697D01*
G01X1088217Y3627871D01*
G01X1090641Y3628217D01*
G01X1092893Y3628736D01*
G01X1094451Y3629429D01*
G01X1096183Y3630295D01*
G01X1097396Y3631161D01*
G01X1099127Y3632546D01*
G01X1099993Y3633412D01*
G01X1100859Y3634451D01*
G01X1101725Y3635837D01*
G01X1102591Y3637396D01*
G01X1103630Y3640166D01*
G01X1104149Y3641898D01*
G01X1104496Y3643457D01*
G01X1104842Y3645881D01*
G01X1105016Y3650731D01*
G01X1104842Y3655579D01*
G01X1104496Y3658697D01*
G01X1104149Y3660429D01*
G01X1103630Y3662680D01*
G01X1102937Y3664585D01*
G01X1102244Y3666144D01*
G01X1101379Y3667702D01*
G01X1100513Y3668914D01*
G01X1099820Y3669781D01*
G01X1098954Y3670646D01*
G01X1098088Y3671339D01*
G01X1096876Y3672032D01*
G01X1095491Y3672724D01*
G01X1093759Y3673244D01*
G01X1092027Y3673591D01*
G01X1090122Y3673764D01*
G01X1087524Y3673591D01*
G01X1085446Y3673244D01*
G01X1083368Y3672724D01*
G01X1081116Y3672032D01*
G01X1079558Y3671339D01*
G01X1076441Y3669781D01*
G01X1074709Y3668741D01*
G01X1073150Y3667702D01*
G01X1071938Y3667009D01*
G01X1071548Y3662507D01*
G01X1071418Y3649345D01*
G01X1061027Y3649345D01*
G01X1061027Y3681730D01*
G01X1071418Y3681730D01*
G01X1071418Y3678786D01*
G01X1071548Y3676621D01*
G01X1071938Y3676015D01*
G01X1073323Y3676881D01*
G01X1075055Y3678093D01*
G01X1076787Y3679132D01*
G01X1078172Y3679998D01*
G01X1079558Y3680691D01*
G01X1081116Y3681384D01*
G01X1083887Y3682423D01*
G01X1085966Y3682942D01*
G01X1087871Y3683289D01*
G01X1091334Y3683462D01*
G01X1095491Y3683289D01*
G01X1097222Y3682942D01*
G01X1098781Y3682596D01*
G01X1100513Y3682076D01*
G01X1102071Y3681384D01*
G01X1104496Y3679998D01*
G01X1105708Y3679132D01*
G01X1107786Y3677401D01*
G01X1109172Y3675669D01*
G01X1110038Y3674456D01*
G01X1110904Y3673071D01*
G01X1112636Y3669954D01*
G01X1113328Y3668222D01*
G01X1114541Y3664585D01*
G01X1115233Y3660775D01*
G01X1115579Y3658004D01*
G01X1115753Y3652462D01*
G01X1115579Y3646921D01*
G01X1115406Y3645708D01*
G01X1115233Y3644149D01*
G01X1114887Y3642418D01*
G01X1114541Y3641032D01*
G01X1114194Y3639474D01*
G01X1113674Y3637742D01*
G01X1112982Y3636010D01*
G01X1112289Y3634451D01*
G01X1111596Y3633066D01*
G01X1110731Y3631507D01*
G01X1109691Y3629949D01*
G01X1107959Y3627524D01*
G01X1106921Y3626312D01*
G01X1106054Y3625446D01*
G01X1104323Y3624061D01*
G01X1103111Y3623021D01*
G01X1101898Y3622156D01*
G01X1100686Y3621463D01*
G01X1099301Y3620770D01*
G01X1097742Y3620077D01*
G01X1095491Y3619384D01*
G01X1093759Y3618865D01*
G01X1091334Y3618519D01*
G01X1088563Y3618346D01*
G01X1085792Y3618519D01*
G01X1084407Y3618692D01*
G01X1082675Y3618865D01*
G01X1080943Y3619211D01*
G01X1078172Y3619904D01*
G01X1076614Y3620424D01*
G01X1075055Y3621116D01*
G01X1073669Y3621809D01*
G01X1072284Y3622329D01*
G01X1071418Y3622502D01*
G01X1071418Y3596524D01*
G01X1061027Y3596524D01*
G37*
G36*
G01X1138266Y3596524D02*
G01X1138613Y3597217D01*
G01X1139306Y3598603D01*
G01X1149004Y3620424D01*
G01X1149523Y3621809D01*
G01X1149523Y3623021D01*
G01X1149177Y3624234D01*
G01X1148657Y3625446D01*
G01X1147964Y3627004D01*
G01X1147272Y3628736D01*
G01X1146579Y3630295D01*
G01X1145194Y3633759D01*
G01X1143808Y3636876D01*
G01X1142423Y3640339D01*
G01X1141730Y3641898D01*
G01X1141211Y3643284D01*
G01X1140691Y3644496D01*
G01X1139998Y3646054D01*
G01X1139306Y3647786D01*
G01X1138613Y3649345D01*
G01X1137920Y3651077D01*
G01X1137227Y3652636D01*
G01X1136708Y3654021D01*
G01X1136188Y3655233D01*
G01X1135496Y3656792D01*
G01X1134803Y3658524D01*
G01X1134110Y3660082D01*
G01X1132724Y3663546D01*
G01X1131339Y3666663D01*
G01X1129954Y3670127D01*
G01X1129261Y3671686D01*
G01X1128741Y3673071D01*
G01X1128222Y3674283D01*
G01X1127529Y3675842D01*
G01X1126836Y3677574D01*
G01X1126144Y3679132D01*
G01X1125104Y3681730D01*
G01X1130300Y3681730D01*
G01X1136015Y3681557D01*
G01X1136881Y3680864D01*
G01X1137574Y3679306D01*
G01X1138266Y3677574D01*
G01X1138959Y3676015D01*
G01X1141037Y3670819D01*
G01X1141730Y3669261D01*
G01X1142249Y3667876D01*
G01X1142769Y3666663D01*
G01X1143462Y3665104D01*
G01X1144154Y3663373D01*
G01X1144674Y3661987D01*
G01X1145194Y3660775D01*
G01X1145886Y3659216D01*
G01X1146579Y3657484D01*
G01X1147272Y3655926D01*
G01X1149350Y3650731D01*
G01X1150043Y3649172D01*
G01X1150562Y3647786D01*
G01X1151082Y3646574D01*
G01X1151774Y3645016D01*
G01X1152467Y3643284D01*
G01X1152987Y3641898D01*
G01X1154546Y3638261D01*
G01X1155065Y3636876D01*
G01X1155281Y3636270D01*
G01X1155584Y3636183D01*
G01X1156277Y3637049D01*
G01X1156797Y3638434D01*
G01X1157316Y3639647D01*
G01X1158009Y3641206D01*
G01X1158702Y3642937D01*
G01X1159394Y3644496D01*
G01X1160780Y3647959D01*
G01X1161473Y3649518D01*
G01X1161992Y3650904D01*
G01X1162512Y3652116D01*
G01X1163204Y3653674D01*
G01X1163897Y3655406D01*
G01X1164590Y3656965D01*
G01X1165976Y3660429D01*
G01X1166668Y3661987D01*
G01X1167188Y3663373D01*
G01X1168746Y3667009D01*
G01X1169439Y3668568D01*
G01X1170132Y3670300D01*
G01X1170824Y3671859D01*
G01X1172210Y3675322D01*
G01X1172903Y3676881D01*
G01X1173422Y3678266D01*
G01X1173942Y3679479D01*
G01X1174461Y3680864D01*
G01X1174634Y3681730D01*
G01X1185718Y3681730D01*
G01X1185372Y3680864D01*
G01X1183986Y3677747D01*
G01X1183294Y3676015D01*
G01X1181908Y3672898D01*
G01X1181216Y3671166D01*
G01X1180523Y3669607D01*
G01X1180003Y3668222D01*
G01X1172210Y3650038D01*
G01X1171517Y3648479D01*
G01X1170824Y3646747D01*
G01X1170132Y3645189D01*
G01X1169439Y3643457D01*
G01X1168054Y3640339D01*
G01X1167361Y3638608D01*
G01X1165976Y3635491D01*
G01X1165283Y3633759D01*
G01X1163897Y3630641D01*
G01X1163204Y3628909D01*
G01X1162512Y3627351D01*
G01X1161819Y3625619D01*
G01X1160434Y3622502D01*
G01X1159741Y3620770D01*
G01X1159048Y3619211D01*
G01X1158356Y3617479D01*
G01X1156970Y3614362D01*
G01X1156277Y3612631D01*
G01X1154892Y3609513D01*
G01X1154199Y3607781D01*
G01X1153506Y3606223D01*
G01X1152987Y3604837D01*
G01X1150389Y3598776D01*
G01X1149696Y3597391D01*
G01X1149350Y3596524D01*
G01X1138266Y3596524D01*
G37*
G36*
G01X1199573Y3619731D02*
G01X1199573Y3681730D01*
G01X1209964Y3681730D01*
G01X1209964Y3677920D01*
G01X1210137Y3673591D01*
G01X1210397Y3673287D01*
G01X1210829Y3673417D01*
G01X1211869Y3674110D01*
G01X1212734Y3674803D01*
G01X1213947Y3675669D01*
G01X1215506Y3676708D01*
G01X1216891Y3677574D01*
G01X1217930Y3678266D01*
G01X1219142Y3678959D01*
G01X1220528Y3679652D01*
G01X1221913Y3680171D01*
G01X1223472Y3680691D01*
G01X1225204Y3681211D01*
G01X1226762Y3681557D01*
G01X1231092Y3681730D01*
G01X1235421Y3681557D01*
G01X1237153Y3681384D01*
G01X1238366Y3681384D01*
G01X1238366Y3670646D01*
G01X1236807Y3670819D01*
G01X1234729Y3671166D01*
G01X1229187Y3671512D01*
G01X1228321Y3671512D01*
G01X1226936Y3671339D01*
G01X1225031Y3671166D01*
G01X1223299Y3670819D01*
G01X1221913Y3670473D01*
G01X1220354Y3669954D01*
G01X1218796Y3669261D01*
G01X1215679Y3667702D01*
G01X1212561Y3665624D01*
G01X1211349Y3664758D01*
G01X1210483Y3664239D01*
G01X1210094Y3658567D01*
G01X1209964Y3641898D01*
G01X1209964Y3619731D01*
G01X1199573Y3619731D01*
G37*
G36*
G01X1248410Y3619731D02*
G01X1248410Y3681730D01*
G01X1259147Y3681730D01*
G01X1259147Y3619731D01*
G01X1248410Y3619731D01*
G37*
G36*
G01X1300711Y3595832D02*
G01X1298806Y3596005D01*
G01X1297421Y3596178D01*
G01X1294649Y3596351D01*
G01X1291532Y3596698D01*
G01X1289454Y3597044D01*
G01X1288242Y3597217D01*
G01X1286337Y3597564D01*
G01X1284605Y3598083D01*
G01X1283046Y3598429D01*
G01X1282007Y3598603D01*
G01X1282007Y3609340D01*
G01X1282873Y3609167D01*
G01X1285991Y3608128D01*
G01X1287896Y3607608D01*
G01X1290147Y3606916D01*
G01X1291879Y3606396D01*
G01X1295689Y3605703D01*
G01X1300884Y3605357D01*
G01X1301923Y3605357D01*
G01X1306426Y3605703D01*
G01X1308158Y3606049D01*
G01X1310409Y3606569D01*
G01X1312141Y3607262D01*
G01X1313699Y3608128D01*
G01X1314912Y3608994D01*
G01X1315778Y3609686D01*
G01X1316817Y3610899D01*
G01X1317683Y3612111D01*
G01X1318202Y3613150D01*
G01X1318722Y3614536D01*
G01X1319241Y3616441D01*
G01X1319588Y3618172D01*
G01X1319761Y3623194D01*
G01X1319761Y3627697D01*
G01X1319068Y3627351D01*
G01X1317509Y3626312D01*
G01X1315778Y3625099D01*
G01X1314392Y3624234D01*
G01X1313180Y3623541D01*
G01X1311794Y3622848D01*
G01X1309024Y3621809D01*
G01X1307119Y3621289D01*
G01X1305387Y3620943D01*
G01X1301577Y3620597D01*
G01X1300018Y3620424D01*
G01X1298113Y3620597D01*
G01X1295689Y3620943D01*
G01X1292918Y3621463D01*
G01X1291013Y3622156D01*
G01X1289454Y3622848D01*
G01X1287722Y3623714D01*
G01X1286164Y3624753D01*
G01X1284951Y3625619D01*
G01X1282007Y3628563D01*
G01X1280795Y3630295D01*
G01X1279929Y3631681D01*
G01X1279236Y3632893D01*
G01X1278544Y3634278D01*
G01X1277851Y3636010D01*
G01X1276639Y3639647D01*
G01X1275946Y3643457D01*
G01X1275599Y3646921D01*
G01X1275426Y3650731D01*
G01X1275474Y3651769D01*
G01X1286164Y3651769D01*
G01X1286337Y3649345D01*
G01X1286510Y3647959D01*
G01X1286683Y3645535D01*
G01X1287029Y3643457D01*
G01X1287376Y3641898D01*
G01X1287896Y3639993D01*
G01X1288588Y3638261D01*
G01X1289281Y3636876D01*
G01X1289974Y3635664D01*
G01X1290839Y3634624D01*
G01X1292571Y3632893D01*
G01X1293957Y3632027D01*
G01X1295862Y3631161D01*
G01X1297421Y3630641D01*
G01X1298979Y3630468D01*
G01X1298979Y3630468D01*
G01X1300191Y3630295D01*
G01X1301577Y3630122D01*
G01X1304348Y3630295D01*
G01X1306426Y3630641D01*
G01X1308158Y3630988D01*
G01X1310063Y3631507D01*
G01X1311794Y3632200D01*
G01X1313353Y3632893D01*
G01X1316124Y3634278D01*
G01X1317336Y3634971D01*
G01X1318376Y3635664D01*
G01X1319241Y3636183D01*
G01X1319631Y3640426D01*
G01X1319761Y3652809D01*
G01X1319588Y3670127D01*
G01X1319241Y3670863D01*
G01X1318549Y3671339D01*
G01X1316817Y3672032D01*
G01X1314912Y3672724D01*
G01X1313353Y3673244D01*
G01X1309543Y3673937D01*
G01X1305560Y3674110D01*
G01X1301577Y3673937D01*
G01X1300364Y3673764D01*
G01X1298979Y3673417D01*
G01X1297247Y3672724D01*
G01X1295689Y3672032D01*
G01X1294649Y3671512D01*
G01X1292918Y3670127D01*
G01X1292225Y3669434D01*
G01X1291532Y3668568D01*
G01X1290666Y3667702D01*
G01X1289801Y3666490D01*
G01X1289108Y3665278D01*
G01X1288588Y3664239D01*
G01X1288069Y3663026D01*
G01X1287549Y3661641D01*
G01X1287029Y3659736D01*
G01X1286683Y3658004D01*
G01X1286337Y3654194D01*
G01X1286164Y3651769D01*
G01X1275474Y3651769D01*
G01X1275599Y3654541D01*
G01X1275773Y3655753D01*
G01X1275946Y3657658D01*
G01X1276639Y3661121D01*
G01X1277158Y3663373D01*
G01X1278544Y3666836D01*
G01X1279409Y3668741D01*
G01X1280449Y3670473D01*
G01X1281488Y3672032D01*
G01X1282700Y3673591D01*
G01X1283739Y3674976D01*
G01X1286337Y3677574D01*
G01X1287203Y3678266D01*
G01X1288242Y3678959D01*
G01X1289627Y3679825D01*
G01X1291186Y3680691D01*
G01X1292571Y3681384D01*
G01X1295342Y3682423D01*
G01X1297074Y3682942D01*
G01X1298806Y3683289D01*
G01X1303136Y3683462D01*
G01X1307811Y3683289D01*
G01X1309889Y3682942D01*
G01X1312141Y3682423D01*
G01X1314219Y3681730D01*
G01X1315778Y3681037D01*
G01X1318202Y3679998D01*
G01X1319414Y3679652D01*
G01X1319977Y3679912D01*
G01X1320281Y3680691D01*
G01X1320454Y3681730D01*
G01X1330152Y3681730D01*
G01X1330152Y3652116D01*
G01X1329979Y3621289D01*
G01X1329632Y3618519D01*
G01X1329286Y3616441D01*
G01X1328939Y3614709D01*
G01X1328420Y3612804D01*
G01X1327727Y3611072D01*
G01X1327034Y3609513D01*
G01X1326342Y3608128D01*
G01X1325476Y3606569D01*
G01X1324437Y3605011D01*
G01X1323398Y3603798D01*
G01X1321319Y3601720D01*
G01X1319588Y3600508D01*
G01X1318202Y3599642D01*
G01X1316817Y3598949D01*
G01X1315258Y3598256D01*
G01X1313353Y3597564D01*
G01X1311621Y3597044D01*
G01X1307465Y3596351D01*
G01X1300711Y3595832D01*
G37*
G36*
G01X1350934Y3619731D02*
G01X1350934Y3706322D01*
G01X1361324Y3706322D01*
G01X1361324Y3691255D01*
G01X1361498Y3675669D01*
G01X1361844Y3675452D01*
G01X1362537Y3675842D01*
G01X1363922Y3676881D01*
G01X1365134Y3677747D01*
G01X1366520Y3678613D01*
G01X1368079Y3679479D01*
G01X1369464Y3680344D01*
G01X1372581Y3681730D01*
G01X1373794Y3682249D01*
G01X1375006Y3682596D01*
G01X1378123Y3683289D01*
G01X1382279Y3683462D01*
G01X1386436Y3683289D01*
G01X1388168Y3682942D01*
G01X1390073Y3682423D01*
G01X1391804Y3681730D01*
G01X1393709Y3680864D01*
G01X1395441Y3679652D01*
G01X1396827Y3678613D01*
G01X1398212Y3676881D01*
G01X1399078Y3675842D01*
G01X1399944Y3674456D01*
G01X1400810Y3672898D01*
G01X1401503Y3670993D01*
G01X1402022Y3669434D01*
G01X1402715Y3665971D01*
G01X1403061Y3661121D01*
G01X1403234Y3640166D01*
G01X1403234Y3619731D01*
G01X1392497Y3619731D01*
G01X1392497Y3639820D01*
G01X1392324Y3660429D01*
G01X1391978Y3663546D01*
G01X1391631Y3665278D01*
G01X1391112Y3667183D01*
G01X1390592Y3668568D01*
G01X1389899Y3669607D01*
G01X1387821Y3671686D01*
G01X1386263Y3672551D01*
G01X1384877Y3673071D01*
G01X1383492Y3673417D01*
G01X1382279Y3673591D01*
G01X1380374Y3673764D01*
G01X1378469Y3673591D01*
G01X1375699Y3673244D01*
G01X1374140Y3672898D01*
G01X1372581Y3672378D01*
G01X1370157Y3671339D01*
G01X1367039Y3669781D01*
G01X1365308Y3668741D01*
G01X1362191Y3666663D01*
G01X1361324Y3666144D01*
G01X1361324Y3619731D01*
G01X1350934Y3619731D01*
G37*
G36*
G01X1442720Y3618346D02*
G01X1439083Y3618519D01*
G01X1437005Y3619038D01*
G01X1435273Y3619558D01*
G01X1433714Y3620077D01*
G01X1431809Y3620943D01*
G01X1430597Y3621809D01*
G01X1429558Y3622502D01*
G01X1428173Y3623714D01*
G01X1427134Y3625099D01*
G01X1426441Y3626139D01*
G01X1425748Y3627524D01*
G01X1425056Y3629256D01*
G01X1424536Y3630641D01*
G01X1423843Y3634105D01*
G01X1423670Y3653848D01*
G01X1423670Y3673071D01*
G01X1416396Y3673071D01*
G01X1416396Y3681730D01*
G01X1423670Y3681730D01*
G01X1423670Y3699741D01*
G01X1434061Y3699741D01*
G01X1434061Y3681730D01*
G01X1455536Y3681730D01*
G01X1455536Y3673071D01*
G01X1434061Y3673071D01*
G01X1434061Y3655406D01*
G01X1434234Y3637222D01*
G01X1434581Y3635491D01*
G01X1435100Y3633412D01*
G01X1435793Y3632027D01*
G01X1436486Y3630814D01*
G01X1437698Y3629429D01*
G01X1439429Y3628390D01*
G01X1440815Y3627871D01*
G01X1444971Y3627524D01*
G01X1446357Y3627524D01*
G01X1448781Y3627871D01*
G01X1451379Y3628390D01*
G01X1452938Y3628909D01*
G01X1454496Y3629256D01*
G01X1455536Y3629429D01*
G01X1455536Y3625099D01*
G01X1455189Y3620251D01*
G01X1453804Y3619558D01*
G01X1452245Y3619211D01*
G01X1449474Y3618865D01*
G01X1446011Y3618519D01*
G01X1442720Y3618346D01*
G37*
G36*
G01X1555461Y3607954D02*
G01X1549919Y3608128D01*
G01X1548188Y3608474D01*
G01X1546109Y3608821D01*
G01X1544378Y3609167D01*
G01X1541953Y3609686D01*
G01X1539702Y3610379D01*
G01X1537970Y3611072D01*
G01X1536584Y3611591D01*
G01X1535372Y3612111D01*
G01X1532601Y3613496D01*
G01X1528445Y3616094D01*
G01X1527233Y3616960D01*
G01X1526367Y3617479D01*
G01X1523769Y3619558D01*
G01X1518227Y3625099D01*
G01X1517188Y3626485D01*
G01X1516496Y3627351D01*
G01X1515629Y3628563D01*
G01X1514591Y3630122D01*
G01X1512859Y3632893D01*
G01X1511993Y3634451D01*
G01X1510607Y3637569D01*
G01X1509222Y3641379D01*
G01X1508702Y3643111D01*
G01X1508356Y3644496D01*
G01X1507663Y3647959D01*
G01X1507317Y3650384D01*
G01X1507144Y3655233D01*
G01X1507213Y3657311D01*
G01X1513551Y3657311D01*
G01X1513551Y3656272D01*
G01X1513724Y3654194D01*
G01X1513898Y3651077D01*
G01X1514244Y3648652D01*
G01X1514591Y3646921D01*
G01X1514937Y3645535D01*
G01X1515283Y3643976D01*
G01X1515803Y3642418D01*
G01X1516842Y3639647D01*
G01X1517361Y3638434D01*
G01X1518054Y3636876D01*
G01X1520132Y3633412D01*
G01X1521344Y3631681D01*
G01X1522384Y3630295D01*
G01X1523769Y3628563D01*
G01X1528791Y3623541D01*
G01X1530523Y3622156D01*
G01X1531909Y3621116D01*
G01X1534679Y3619384D01*
G01X1537104Y3617999D01*
G01X1538663Y3617306D01*
G01X1540394Y3616614D01*
G01X1543512Y3615574D01*
G01X1546283Y3614882D01*
G01X1547841Y3614536D01*
G01X1549227Y3614362D01*
G01X1552344Y3614189D01*
G01X1552344Y3614189D01*
G01X1555115Y3614016D01*
G01X1555634Y3614016D01*
G01X1557366Y3614189D01*
G01X1560311Y3614362D01*
G01X1562389Y3614709D01*
G01X1566199Y3615401D01*
G01X1567411Y3615748D01*
G01X1569143Y3616267D01*
G01X1570874Y3616960D01*
G01X1572433Y3617653D01*
G01X1575204Y3619038D01*
G01X1576763Y3619904D01*
G01X1578321Y3620943D01*
G01X1579534Y3621809D01*
G01X1580573Y3622502D01*
G01X1581612Y3623368D01*
G01X1584036Y3625446D01*
G01X1584902Y3626312D01*
G01X1586634Y3628390D01*
G01X1587846Y3629602D01*
G01X1588886Y3630988D01*
G01X1589578Y3631854D01*
G01X1590444Y3633066D01*
G01X1591483Y3634798D01*
G01X1592349Y3636183D01*
G01X1593734Y3638954D01*
G01X1595293Y3643111D01*
G01X1595813Y3645189D01*
G01X1596332Y3646921D01*
G01X1596679Y3649345D01*
G01X1597025Y3652462D01*
G01X1597198Y3655406D01*
G01X1597025Y3658351D01*
G01X1596679Y3661814D01*
G01X1596332Y3664239D01*
G01X1595986Y3665797D01*
G01X1595466Y3668049D01*
G01X1594774Y3670127D01*
G01X1594081Y3672032D01*
G01X1593388Y3673591D01*
G01X1592003Y3676361D01*
G01X1591310Y3677574D01*
G01X1590444Y3678959D01*
G01X1589578Y3680171D01*
G01X1588886Y3681037D01*
G01X1588366Y3681903D01*
G01X1587673Y3682769D01*
G01X1586461Y3683981D01*
G01X1585422Y3685367D01*
G01X1582824Y3687964D01*
G01X1580226Y3690043D01*
G01X1579014Y3690909D01*
G01X1577456Y3691948D01*
G01X1576070Y3692814D01*
G01X1574511Y3693679D01*
G01X1572779Y3694546D01*
G01X1571221Y3695238D01*
G01X1569489Y3695931D01*
G01X1567411Y3696624D01*
G01X1565506Y3697143D01*
G01X1564121Y3697489D01*
G01X1561696Y3697836D01*
G01X1556501Y3698182D01*
G01X1555461Y3698182D01*
G01X1553383Y3698009D01*
G01X1550266Y3697836D01*
G01X1547841Y3697489D01*
G01X1546456Y3697143D01*
G01X1544897Y3696797D01*
G01X1542819Y3696277D01*
G01X1540741Y3695584D01*
G01X1539009Y3694892D01*
G01X1537451Y3694199D01*
G01X1535719Y3693333D01*
G01X1534333Y3692467D01*
G01X1533121Y3691774D01*
G01X1532082Y3691082D01*
G01X1531216Y3690389D01*
G01X1528445Y3688311D01*
G01X1523076Y3682942D01*
G01X1522037Y3681557D01*
G01X1521344Y3680691D01*
G01X1520479Y3679479D01*
G01X1518401Y3676015D01*
G01X1517534Y3674456D01*
G01X1516842Y3672898D01*
G01X1516149Y3671166D01*
G01X1515456Y3669261D01*
G01X1514937Y3667702D01*
G01X1514244Y3664585D01*
G01X1513898Y3662161D01*
G01X1513551Y3657311D01*
G01X1507213Y3657311D01*
G01X1507317Y3660429D01*
G01X1508009Y3665278D01*
G01X1508356Y3666663D01*
G01X1508702Y3668222D01*
G01X1509222Y3670300D01*
G01X1509914Y3672378D01*
G01X1510607Y3674283D01*
G01X1511993Y3677401D01*
G01X1512686Y3678786D01*
G01X1515283Y3682942D01*
G01X1516149Y3684154D01*
G01X1517534Y3685886D01*
G01X1518054Y3686752D01*
G01X1518747Y3687618D01*
G01X1524289Y3693160D01*
G01X1528445Y3696277D01*
G01X1529831Y3697143D01*
G01X1531389Y3698182D01*
G01X1532948Y3699048D01*
G01X1535719Y3700434D01*
G01X1537277Y3701126D01*
G01X1538836Y3701646D01*
G01X1540221Y3702166D01*
G01X1541780Y3702685D01*
G01X1543339Y3703031D01*
G01X1546802Y3703724D01*
G01X1549573Y3704071D01*
G01X1554422Y3704244D01*
G01X1560311Y3704071D01*
G01X1563081Y3703724D01*
G01X1566545Y3703031D01*
G01X1568969Y3702512D01*
G01X1571221Y3701819D01*
G01X1572953Y3701126D01*
G01X1574511Y3700434D01*
G01X1576243Y3699741D01*
G01X1577975Y3698875D01*
G01X1579361Y3698009D01*
G01X1580573Y3697316D01*
G01X1581612Y3696624D01*
G01X1584036Y3694892D01*
G01X1586634Y3692814D01*
G01X1587500Y3691948D01*
G01X1589578Y3690216D01*
G01X1590964Y3688484D01*
G01X1592696Y3686752D01*
G01X1594774Y3683981D01*
G01X1595639Y3682769D01*
G01X1596506Y3681384D01*
G01X1597198Y3680344D01*
G01X1597891Y3679132D01*
G01X1599969Y3674976D01*
G01X1600489Y3673591D01*
G01X1601008Y3672032D01*
G01X1601701Y3670127D01*
G01X1602221Y3668395D01*
G01X1602913Y3664931D01*
G01X1603259Y3662507D01*
G01X1603433Y3656619D01*
G01X1603259Y3650731D01*
G01X1602913Y3648306D01*
G01X1602221Y3644842D01*
G01X1601874Y3643284D01*
G01X1601354Y3641552D01*
G01X1600316Y3638434D01*
G01X1599623Y3636876D01*
G01X1597371Y3632373D01*
G01X1596332Y3630641D01*
G01X1595293Y3629083D01*
G01X1594427Y3627871D01*
G01X1593734Y3627004D01*
G01X1593215Y3626139D01*
G01X1592522Y3625273D01*
G01X1590791Y3623541D01*
G01X1589924Y3622502D01*
G01X1588712Y3621289D01*
G01X1587500Y3620251D01*
G01X1586288Y3619038D01*
G01X1584556Y3617653D01*
G01X1583171Y3616614D01*
G01X1581958Y3615748D01*
G01X1579187Y3614016D01*
G01X1577629Y3613150D01*
G01X1574858Y3611764D01*
G01X1573126Y3611072D01*
G01X1571221Y3610379D01*
G01X1568969Y3609686D01*
G01X1567238Y3609167D01*
G01X1563774Y3608474D01*
G01X1561349Y3608128D01*
G01X1555461Y3607954D01*
G37*
G36*
G01X1556501Y3629776D02*
G01X1550439Y3630122D01*
G01X1548534Y3630641D01*
G01X1547149Y3630988D01*
G01X1545244Y3631507D01*
G01X1543512Y3632200D01*
G01X1542126Y3632893D01*
G01X1540914Y3633586D01*
G01X1539529Y3634451D01*
G01X1538316Y3635317D01*
G01X1537451Y3636010D01*
G01X1534853Y3638608D01*
G01X1533814Y3639993D01*
G01X1532774Y3641725D01*
G01X1532082Y3643111D01*
G01X1531389Y3644669D01*
G01X1530696Y3646921D01*
G01X1530177Y3648652D01*
G01X1529831Y3651077D01*
G01X1529657Y3655233D01*
G01X1529831Y3660429D01*
G01X1530177Y3662853D01*
G01X1530523Y3664239D01*
G01X1530869Y3665797D01*
G01X1531389Y3667356D01*
G01X1532082Y3668914D01*
G01X1532948Y3670819D01*
G01X1533814Y3672205D01*
G01X1535892Y3674976D01*
G01X1538489Y3677574D01*
G01X1539702Y3678439D01*
G01X1541087Y3679306D01*
G01X1542126Y3679998D01*
G01X1543166Y3680518D01*
G01X1544378Y3681037D01*
G01X1545763Y3681557D01*
G01X1547322Y3682076D01*
G01X1549227Y3682596D01*
G01X1550959Y3682942D01*
G01X1553729Y3683289D01*
G01X1555981Y3683462D01*
G01X1558232Y3683289D01*
G01X1561696Y3682942D01*
G01X1563774Y3682596D01*
G01X1566026Y3682076D01*
G01X1569489Y3681037D01*
G01X1574165Y3679479D01*
G01X1575031Y3679306D01*
G01X1575031Y3674283D01*
G01X1574684Y3669088D01*
G01X1573819Y3669261D01*
G01X1571048Y3670993D01*
G01X1566891Y3673071D01*
G01X1564986Y3673764D01*
G01X1563428Y3674283D01*
G01X1560311Y3674976D01*
G01X1557193Y3675149D01*
G01X1554076Y3674976D01*
G01X1552171Y3674629D01*
G01X1550093Y3674110D01*
G01X1548534Y3673417D01*
G01X1546976Y3672551D01*
G01X1545590Y3671686D01*
G01X1544204Y3670473D01*
G01X1543166Y3669088D01*
G01X1542299Y3667876D01*
G01X1541434Y3666144D01*
G01X1540741Y3663892D01*
G01X1540221Y3662161D01*
G01X1539702Y3656965D01*
G01X1540221Y3651769D01*
G01X1540568Y3650038D01*
G01X1541087Y3648133D01*
G01X1541607Y3646747D01*
G01X1542299Y3645189D01*
G01X1543166Y3643976D01*
G01X1543858Y3642937D01*
G01X1545071Y3641552D01*
G01X1546802Y3640339D01*
G01X1548188Y3639474D01*
G01X1549573Y3638954D01*
G01X1551132Y3638434D01*
G01X1552517Y3638088D01*
G01X1553729Y3637915D01*
G01X1556327Y3637742D01*
G01X1559271Y3637915D01*
G01X1561349Y3638261D01*
G01X1563601Y3638781D01*
G01X1565159Y3639301D01*
G01X1566545Y3639820D01*
G01X1571048Y3642071D01*
G01X1572606Y3643111D01*
G01X1574165Y3643803D01*
G01X1575031Y3643976D01*
G01X1575031Y3639127D01*
G01X1574901Y3635404D01*
G01X1574511Y3633932D01*
G01X1573299Y3633239D01*
G01X1571741Y3632546D01*
G01X1569836Y3631854D01*
G01X1568277Y3631334D01*
G01X1565506Y3630641D01*
G01X1561696Y3629949D01*
G01X1556501Y3629776D01*
G37*
G36*
G01X1661622Y3619731D02*
G01X1661622Y3625446D01*
G01X1661752Y3629819D01*
G01X1662141Y3631507D01*
G01X1663007Y3632373D01*
G01X1672706Y3640686D01*
G01X1674784Y3642418D01*
G01X1675996Y3643630D01*
G01X1677381Y3644669D01*
G01X1679113Y3646401D01*
G01X1680845Y3647786D01*
G01X1692448Y3659389D01*
G01X1693487Y3660775D01*
G01X1694353Y3661641D01*
G01X1695739Y3663373D01*
G01X1696604Y3664239D01*
G01X1698336Y3666663D01*
G01X1699029Y3667529D01*
G01X1699722Y3668741D01*
G01X1700588Y3670473D01*
G01X1701281Y3672032D01*
G01X1701800Y3673244D01*
G01X1702319Y3674803D01*
G01X1702666Y3676361D01*
G01X1703012Y3680171D01*
G01X1703012Y3681037D01*
G01X1702839Y3682076D01*
G01X1702666Y3683981D01*
G01X1702146Y3686059D01*
G01X1701454Y3687618D01*
G01X1700588Y3689004D01*
G01X1699722Y3690216D01*
G01X1698856Y3691082D01*
G01X1697644Y3691948D01*
G01X1696085Y3692814D01*
G01X1694526Y3693506D01*
G01X1692968Y3694026D01*
G01X1691582Y3694372D01*
G01X1687772Y3694719D01*
G01X1686733Y3694719D01*
G01X1684828Y3694546D01*
G01X1682577Y3694372D01*
G01X1680499Y3694026D01*
G01X1678074Y3693506D01*
G01X1676342Y3692987D01*
G01X1674957Y3692641D01*
G01X1673398Y3692121D01*
G01X1671666Y3691428D01*
G01X1670108Y3690736D01*
G01X1666991Y3689177D01*
G01X1665778Y3688311D01*
G01X1664566Y3687791D01*
G01X1663700Y3687618D01*
G01X1663700Y3693333D01*
G01X1664046Y3699221D01*
G01X1664912Y3699741D01*
G01X1666124Y3700261D01*
G01X1667510Y3700780D01*
G01X1670627Y3701819D01*
G01X1672359Y3702339D01*
G01X1674611Y3702858D01*
G01X1677035Y3703378D01*
G01X1678767Y3703724D01*
G01X1681538Y3704071D01*
G01X1686387Y3704244D01*
G01X1692275Y3704071D01*
G01X1694353Y3703724D01*
G01X1695912Y3703378D01*
G01X1697990Y3702858D01*
G01X1701107Y3701819D01*
G01X1703012Y3700953D01*
G01X1705783Y3699221D01*
G01X1706996Y3698182D01*
G01X1708034Y3697316D01*
G01X1708901Y3696451D01*
G01X1709593Y3695584D01*
G01X1710632Y3694372D01*
G01X1711671Y3692814D01*
G01X1712537Y3691082D01*
G01X1713230Y3689350D01*
G01X1713749Y3687618D01*
G01X1714096Y3686059D01*
G01X1714269Y3682249D01*
G01X1714096Y3677401D01*
G01X1713749Y3675322D01*
G01X1713403Y3673764D01*
G01X1712884Y3672032D01*
G01X1712364Y3670473D01*
G01X1711844Y3669088D01*
G01X1710459Y3666317D01*
G01X1709593Y3664931D01*
G01X1708554Y3663373D01*
G01X1707861Y3662161D01*
G01X1705783Y3659563D01*
G01X1704917Y3658697D01*
G01X1703532Y3656965D01*
G01X1700934Y3654367D01*
G01X1698856Y3651943D01*
G01X1696778Y3650211D01*
G01X1691236Y3644669D01*
G01X1689851Y3643630D01*
G01X1688119Y3641898D01*
G01X1686387Y3640513D01*
G01X1685521Y3639647D01*
G01X1675823Y3631334D01*
G01X1674784Y3630468D01*
G01X1673918Y3629602D01*
G01X1679113Y3629213D01*
G01X1695046Y3629083D01*
G01X1717213Y3628909D01*
G01X1718079Y3628736D01*
G01X1718079Y3619731D01*
G01X1661622Y3619731D01*
G37*
G36*
G01X1761548Y3617999D02*
G01X1756179Y3618172D01*
G01X1754967Y3618519D01*
G01X1753408Y3618865D01*
G01X1751676Y3619384D01*
G01X1749944Y3620077D01*
G01X1748039Y3620943D01*
G01X1746654Y3621809D01*
G01X1745442Y3622502D01*
G01X1744403Y3623368D01*
G01X1741805Y3625966D01*
G01X1740419Y3627697D01*
G01X1739554Y3628909D01*
G01X1738688Y3630468D01*
G01X1737995Y3631854D01*
G01X1737476Y3633066D01*
G01X1736783Y3634624D01*
G01X1736090Y3636703D01*
G01X1735397Y3638954D01*
G01X1734878Y3640686D01*
G01X1734185Y3644496D01*
G01X1733839Y3646921D01*
G01X1733492Y3649691D01*
G01X1733146Y3654541D01*
G01X1732973Y3660429D01*
G01X1732993Y3661121D01*
G01X1744403Y3661121D01*
G01X1744576Y3651423D01*
G01X1744922Y3646921D01*
G01X1745269Y3644496D01*
G01X1745615Y3642591D01*
G01X1746134Y3640166D01*
G01X1747174Y3637049D01*
G01X1747866Y3635491D01*
G01X1748559Y3634105D01*
G01X1749252Y3632893D01*
G01X1749944Y3631854D01*
G01X1750811Y3630814D01*
G01X1752542Y3629429D01*
G01X1753581Y3628736D01*
G01X1754794Y3628217D01*
G01X1756179Y3627697D01*
G01X1757911Y3627351D01*
G01X1757911Y3627351D01*
G01X1759123Y3627178D01*
G01X1760855Y3627004D01*
G01X1763972Y3627178D01*
G01X1766570Y3627697D01*
G01X1768129Y3628217D01*
G01X1769341Y3628736D01*
G01X1770899Y3629602D01*
G01X1772112Y3630641D01*
G01X1773844Y3632373D01*
G01X1774709Y3633586D01*
G01X1775576Y3635144D01*
G01X1776268Y3636876D01*
G01X1776961Y3638781D01*
G01X1777481Y3640339D01*
G01X1778173Y3643803D01*
G01X1778519Y3646574D01*
G01X1778866Y3650731D01*
G01X1779039Y3660602D01*
G01X1778866Y3670473D01*
G01X1778519Y3674629D01*
G01X1778346Y3675842D01*
G01X1778173Y3677401D01*
G01X1777827Y3679479D01*
G01X1777307Y3681903D01*
G01X1776614Y3684154D01*
G01X1775922Y3685886D01*
G01X1775229Y3687445D01*
G01X1774536Y3688657D01*
G01X1773671Y3689869D01*
G01X1772631Y3691082D01*
G01X1771766Y3691948D01*
G01X1770726Y3692814D01*
G01X1769687Y3693506D01*
G01X1768475Y3694026D01*
G01X1766916Y3694546D01*
G01X1765358Y3694892D01*
G01X1763972Y3695065D01*
G01X1762241Y3695238D01*
G01X1758777Y3694892D01*
G01X1756872Y3694546D01*
G01X1755313Y3694026D01*
G01X1753754Y3693333D01*
G01X1752542Y3692641D01*
G01X1751676Y3691948D01*
G01X1749598Y3689869D01*
G01X1748559Y3688311D01*
G01X1747866Y3687099D01*
G01X1747174Y3685540D01*
G01X1745961Y3681903D01*
G01X1745269Y3678093D01*
G01X1744922Y3675322D01*
G01X1744576Y3670819D01*
G01X1744403Y3661121D01*
G01X1732993Y3661121D01*
G01X1733146Y3666317D01*
G01X1733319Y3668568D01*
G01X1733492Y3671512D01*
G01X1733839Y3674283D01*
G01X1734185Y3676708D01*
G01X1734878Y3680171D01*
G01X1735224Y3681557D01*
G01X1735571Y3683289D01*
G01X1736090Y3685194D01*
G01X1736609Y3686752D01*
G01X1737129Y3688138D01*
G01X1737822Y3689523D01*
G01X1738514Y3691082D01*
G01X1739207Y3692294D01*
G01X1740073Y3693679D01*
G01X1740939Y3694892D01*
G01X1741459Y3695758D01*
G01X1742151Y3696624D01*
G01X1743883Y3698356D01*
G01X1745269Y3699394D01*
G01X1747001Y3700607D01*
G01X1748386Y3701473D01*
G01X1749771Y3702166D01*
G01X1751676Y3702858D01*
G01X1753581Y3703378D01*
G01X1754967Y3703724D01*
G01X1757391Y3704071D01*
G01X1760855Y3704244D01*
G01X1765011Y3704071D01*
G01X1767436Y3703724D01*
G01X1769168Y3703378D01*
G01X1770726Y3703031D01*
G01X1772458Y3702512D01*
G01X1774017Y3701819D01*
G01X1775402Y3701126D01*
G01X1776788Y3700261D01*
G01X1778000Y3699394D01*
G01X1778866Y3698875D01*
G01X1779732Y3698182D01*
G01X1781464Y3696451D01*
G01X1782156Y3695584D01*
G01X1783022Y3694372D01*
G01X1784061Y3692814D01*
G01X1784927Y3691255D01*
G01X1785620Y3689869D01*
G01X1786313Y3688311D01*
G01X1787006Y3686579D01*
G01X1787525Y3685021D01*
G01X1788044Y3682942D01*
G01X1788564Y3681211D01*
G01X1789257Y3677747D01*
G01X1789603Y3675322D01*
G01X1789949Y3672551D01*
G01X1790296Y3667702D01*
G01X1790469Y3661468D01*
G01X1790296Y3655233D01*
G01X1789949Y3650731D01*
G01X1789603Y3647613D01*
G01X1789257Y3645189D01*
G01X1788911Y3643284D01*
G01X1788391Y3640686D01*
G01X1787871Y3638954D01*
G01X1787525Y3637569D01*
G01X1786486Y3634451D01*
G01X1785966Y3633066D01*
G01X1784408Y3629949D01*
G01X1783542Y3628563D01*
G01X1781464Y3625792D01*
G01X1779732Y3624061D01*
G01X1778000Y3622675D01*
G01X1776961Y3621809D01*
G01X1775749Y3621116D01*
G01X1774363Y3620424D01*
G01X1772804Y3619731D01*
G01X1770899Y3619038D01*
G01X1769168Y3618519D01*
G01X1766743Y3618172D01*
G01X1761548Y3617999D01*
G37*
G36*
G01X1807094Y3619731D02*
G01X1807094Y3624926D01*
G01X1807268Y3630988D01*
G01X1807614Y3631767D01*
G01X1808307Y3632373D01*
G01X1811944Y3635491D01*
G01X1814022Y3637222D01*
G01X1816446Y3639301D01*
G01X1818524Y3641032D01*
G01X1819737Y3642244D01*
G01X1821122Y3643284D01*
G01X1821988Y3644149D01*
G01X1824413Y3646228D01*
G01X1827011Y3648826D01*
G01X1828742Y3650211D01*
G01X1835669Y3657138D01*
G01X1837055Y3658870D01*
G01X1838787Y3660602D01*
G01X1840172Y3662334D01*
G01X1841038Y3663199D01*
G01X1842424Y3664931D01*
G01X1843463Y3666317D01*
G01X1844502Y3667876D01*
G01X1846234Y3670993D01*
G01X1847273Y3673764D01*
G01X1847792Y3675669D01*
G01X1848139Y3677401D01*
G01X1848312Y3680171D01*
G01X1848139Y3683289D01*
G01X1847446Y3686059D01*
G01X1846926Y3687445D01*
G01X1846407Y3688484D01*
G01X1845714Y3689350D01*
G01X1843636Y3691428D01*
G01X1842077Y3692467D01*
G01X1840692Y3693160D01*
G01X1838787Y3693853D01*
G01X1837055Y3694372D01*
G01X1832899Y3694719D01*
G01X1832033Y3694719D01*
G01X1829954Y3694546D01*
G01X1827703Y3694372D01*
G01X1825971Y3694026D01*
G01X1823547Y3693506D01*
G01X1821469Y3692987D01*
G01X1818351Y3691948D01*
G01X1816966Y3691428D01*
G01X1812809Y3689350D01*
G01X1811251Y3688484D01*
G01X1809866Y3687791D01*
G01X1809173Y3687618D01*
G01X1809173Y3699394D01*
G01X1811771Y3700434D01*
G01X1813676Y3701126D01*
G01X1815234Y3701646D01*
G01X1818698Y3702512D01*
G01X1820429Y3703031D01*
G01X1824239Y3703724D01*
G01X1826664Y3704071D01*
G01X1831859Y3704244D01*
G01X1837748Y3704071D01*
G01X1841211Y3703378D01*
G01X1843463Y3702858D01*
G01X1845541Y3702166D01*
G01X1847099Y3701473D01*
G01X1848485Y3700780D01*
G01X1850044Y3699914D01*
G01X1851256Y3699048D01*
G01X1852988Y3697663D01*
G01X1854719Y3695931D01*
G01X1855759Y3694719D01*
G01X1856798Y3693160D01*
G01X1857664Y3691601D01*
G01X1858356Y3689869D01*
G01X1858876Y3688484D01*
G01X1859569Y3685021D01*
G01X1859742Y3682076D01*
G01X1859569Y3678786D01*
G01X1859222Y3676361D01*
G01X1858703Y3673591D01*
G01X1858010Y3671339D01*
G01X1857317Y3669434D01*
G01X1855932Y3666663D01*
G01X1855066Y3665104D01*
G01X1854027Y3663546D01*
G01X1853161Y3662334D01*
G01X1852641Y3661468D01*
G01X1851949Y3660602D01*
G01X1850217Y3658524D01*
G01X1849351Y3657658D01*
G01X1847966Y3655926D01*
G01X1839306Y3647267D01*
G01X1837228Y3645535D01*
G01X1834631Y3642937D01*
G01X1832899Y3641552D01*
G01X1832033Y3640686D01*
G01X1824759Y3634451D01*
G01X1822681Y3632719D01*
G01X1821815Y3631854D01*
G01X1820083Y3630468D01*
G01X1819391Y3629602D01*
G01X1824759Y3629213D01*
G01X1841211Y3629083D01*
G01X1863206Y3629083D01*
G01X1863206Y3619731D01*
G01X1807094Y3619731D01*
G37*
G36*
G01X1908059Y3617999D02*
G01X1903384Y3618172D01*
G01X1902171Y3618519D01*
G01X1900439Y3618865D01*
G01X1898534Y3619384D01*
G01X1896629Y3620077D01*
G01X1895071Y3620770D01*
G01X1893686Y3621463D01*
G01X1890914Y3623194D01*
G01X1888836Y3624926D01*
G01X1887971Y3625792D01*
G01X1887278Y3626658D01*
G01X1886412Y3627524D01*
G01X1885719Y3628390D01*
G01X1885199Y3629256D01*
G01X1884507Y3630122D01*
G01X1883814Y3631161D01*
G01X1883121Y3632546D01*
G01X1882256Y3634105D01*
G01X1881563Y3635837D01*
G01X1880870Y3637742D01*
G01X1880351Y3639301D01*
G01X1879658Y3642071D01*
G01X1878965Y3645881D01*
G01X1878619Y3649345D01*
G01X1878497Y3653848D01*
G01X1889529Y3653848D01*
G01X1889702Y3649691D01*
G01X1890049Y3646228D01*
G01X1890395Y3644149D01*
G01X1890914Y3641552D01*
G01X1891434Y3639993D01*
G01X1891954Y3638608D01*
G01X1892646Y3636876D01*
G01X1893512Y3635317D01*
G01X1894378Y3633932D01*
G01X1895244Y3632893D01*
G01X1897322Y3630814D01*
G01X1898708Y3629776D01*
G01X1899747Y3629083D01*
G01X1901132Y3628390D01*
G01X1902691Y3627697D01*
G01X1904076Y3627351D01*
G01X1904076Y3627351D01*
G01X1904942Y3627178D01*
G01X1908059Y3627004D01*
G01X1911523Y3627178D01*
G01X1913255Y3627524D01*
G01X1915160Y3628044D01*
G01X1916719Y3628736D01*
G01X1918104Y3629429D01*
G01X1919316Y3630122D01*
G01X1920356Y3630988D01*
G01X1921221Y3631854D01*
G01X1922261Y3633066D01*
G01X1923299Y3634624D01*
G01X1923992Y3636010D01*
G01X1924512Y3637222D01*
G01X1925031Y3638781D01*
G01X1925378Y3640339D01*
G01X1925724Y3643111D01*
G01X1925897Y3645535D01*
G01X1925724Y3647959D01*
G01X1925378Y3650731D01*
G01X1925031Y3652289D01*
G01X1924512Y3653848D01*
G01X1923819Y3655233D01*
G01X1922953Y3656792D01*
G01X1922087Y3658004D01*
G01X1920356Y3659736D01*
G01X1919316Y3660602D01*
G01X1917931Y3661468D01*
G01X1916199Y3662334D01*
G01X1914641Y3662853D01*
G01X1911869Y3663199D01*
G01X1907713Y3663373D01*
G01X1902864Y3663199D01*
G01X1900786Y3662853D01*
G01X1899401Y3662507D01*
G01X1897842Y3662161D01*
G01X1895937Y3661641D01*
G01X1894205Y3660948D01*
G01X1892819Y3660256D01*
G01X1891261Y3659563D01*
G01X1890049Y3658870D01*
G01X1889702Y3658004D01*
G01X1889529Y3653848D01*
G01X1878497Y3653848D01*
G01X1878446Y3655753D01*
G01X1878619Y3662161D01*
G01X1878792Y3663892D01*
G01X1878965Y3665971D01*
G01X1879311Y3668395D01*
G01X1879658Y3670473D01*
G01X1880697Y3675149D01*
G01X1881216Y3676881D01*
G01X1882256Y3679998D01*
G01X1882948Y3681557D01*
G01X1883641Y3683289D01*
G01X1885026Y3685713D01*
G01X1885892Y3687272D01*
G01X1886931Y3688831D01*
G01X1887797Y3690043D01*
G01X1888490Y3691082D01*
G01X1889356Y3692121D01*
G01X1892819Y3695584D01*
G01X1894205Y3696624D01*
G01X1895937Y3697836D01*
G01X1897149Y3698702D01*
G01X1898361Y3699394D01*
G01X1901132Y3700780D01*
G01X1902864Y3701473D01*
G01X1904769Y3702166D01*
G01X1906328Y3702685D01*
G01X1909099Y3703378D01*
G01X1911869Y3703724D01*
G01X1915679Y3704071D01*
G01X1918624Y3704244D01*
G01X1922261Y3704071D01*
G01X1925031Y3703724D01*
G01X1927802Y3703204D01*
G01X1929014Y3702858D01*
G01X1929014Y3698182D01*
G01X1928841Y3692987D01*
G01X1928582Y3692641D01*
G01X1928149Y3692641D01*
G01X1926936Y3692987D01*
G01X1925551Y3693506D01*
G01X1923646Y3694026D01*
G01X1921914Y3694372D01*
G01X1917584Y3694546D01*
G01X1913255Y3694372D01*
G01X1911177Y3694026D01*
G01X1908926Y3693506D01*
G01X1907367Y3692987D01*
G01X1905981Y3692467D01*
G01X1902864Y3690909D01*
G01X1901132Y3689696D01*
G01X1899747Y3688657D01*
G01X1897149Y3686059D01*
G01X1896456Y3685194D01*
G01X1895591Y3683981D01*
G01X1894551Y3682423D01*
G01X1893686Y3680864D01*
G01X1892993Y3679479D01*
G01X1892300Y3677920D01*
G01X1891088Y3674283D01*
G01X1890395Y3671166D01*
G01X1890049Y3668741D01*
G01X1890049Y3667702D01*
G01X1890352Y3667399D01*
G01X1890914Y3667529D01*
G01X1892127Y3668222D01*
G01X1893512Y3668914D01*
G01X1896629Y3670300D01*
G01X1898534Y3670993D01*
G01X1900093Y3671512D01*
G01X1903211Y3672205D01*
G01X1906674Y3672551D01*
G01X1908926Y3672724D01*
G01X1911177Y3672551D01*
G01X1915333Y3672205D01*
G01X1916546Y3672032D01*
G01X1918451Y3671686D01*
G01X1920182Y3671166D01*
G01X1921394Y3670819D01*
G01X1922607Y3670300D01*
G01X1923992Y3669607D01*
G01X1925551Y3668741D01*
G01X1926763Y3668049D01*
G01X1927629Y3667356D01*
G01X1929707Y3665624D01*
G01X1931786Y3663546D01*
G01X1932824Y3662161D01*
G01X1933517Y3661294D01*
G01X1934210Y3660082D01*
G01X1934903Y3658697D01*
G01X1935422Y3657311D01*
G01X1935942Y3655753D01*
G01X1936461Y3653674D01*
G01X1936808Y3651769D01*
G01X1936981Y3647094D01*
G01X1936808Y3642418D01*
G01X1936634Y3641206D01*
G01X1936288Y3639301D01*
G01X1935769Y3637569D01*
G01X1935422Y3636183D01*
G01X1934903Y3634798D01*
G01X1933344Y3631681D01*
G01X1932478Y3630295D01*
G01X1930400Y3627524D01*
G01X1927802Y3624926D01*
G01X1925031Y3622848D01*
G01X1924166Y3622156D01*
G01X1922953Y3621463D01*
G01X1921568Y3620770D01*
G01X1920009Y3620077D01*
G01X1918277Y3619384D01*
G01X1916719Y3618865D01*
G01X1915333Y3618519D01*
G01X1912909Y3618172D01*
G01X1908059Y3617999D01*
G37*
G36*
G01X1985126Y3619731D02*
G01X1985472Y3620770D01*
G01X1986164Y3622502D01*
G01X1986684Y3624061D01*
G01X1987723Y3626831D01*
G01X1988243Y3628390D01*
G01X1988936Y3630122D01*
G01X1989628Y3632200D01*
G01X1990321Y3633932D01*
G01X1990841Y3635491D01*
G01X1991879Y3638261D01*
G01X1992399Y3639820D01*
G01X1993092Y3641552D01*
G01X1993784Y3643630D01*
G01X1994477Y3645362D01*
G01X1994997Y3646921D01*
G01X1996036Y3649691D01*
G01X1996556Y3651250D01*
G01X1997248Y3652982D01*
G01X1997421Y3653501D01*
G01X2008159Y3653501D01*
G01X2008159Y3652462D01*
G01X2022533Y3652289D01*
G01X2036734Y3652289D01*
G01X2035694Y3655406D01*
G01X2034309Y3659216D01*
G01X2033616Y3661294D01*
G01X2032924Y3663026D01*
G01X2031884Y3666144D01*
G01X2031192Y3667876D01*
G01X2030499Y3669954D01*
G01X2029114Y3673764D01*
G01X2028421Y3675842D01*
G01X2027728Y3677574D01*
G01X2026689Y3680691D01*
G01X2025650Y3683462D01*
G01X2025131Y3685021D01*
G01X2024091Y3687791D01*
G01X2023572Y3689350D01*
G01X2023052Y3691082D01*
G01X2022793Y3691818D01*
G01X2022359Y3691948D01*
G01X2021494Y3690909D01*
G01X2019416Y3685194D01*
G01X2018723Y3683116D01*
G01X2018030Y3681384D01*
G01X2016991Y3678266D01*
G01X2015952Y3675496D01*
G01X2015432Y3673937D01*
G01X2014393Y3671166D01*
G01X2013874Y3669607D01*
G01X2013181Y3667876D01*
G01X2012488Y3665797D01*
G01X2011103Y3661987D01*
G01X2010410Y3659909D01*
G01X2009717Y3658177D01*
G01X2008159Y3653501D01*
G01X2008159Y3653501D01*
G01X1997421Y3653501D01*
G01X1997941Y3655060D01*
G01X1998634Y3656792D01*
G01X1999153Y3658351D01*
G01X2000192Y3661121D01*
G01X2000712Y3662680D01*
G01X2001404Y3664412D01*
G01X2002097Y3666490D01*
G01X2002790Y3668222D01*
G01X2003309Y3669781D01*
G01X2004349Y3672551D01*
G01X2004868Y3674110D01*
G01X2005561Y3675842D01*
G01X2006254Y3677920D01*
G01X2006946Y3679652D01*
G01X2007466Y3681211D01*
G01X2008505Y3683981D01*
G01X2009024Y3685540D01*
G01X2009717Y3687272D01*
G01X2010410Y3689350D01*
G01X2011103Y3691082D01*
G01X2012142Y3693853D01*
G01X2012661Y3695411D01*
G01X2013701Y3698182D01*
G01X2014220Y3699741D01*
G01X2014913Y3701473D01*
G01X2015259Y3702512D01*
G01X2022533Y3702512D01*
G01X2028074Y3702339D01*
G01X2030153Y3701819D01*
G01X2030846Y3700434D01*
G01X2031365Y3698875D01*
G01X2032404Y3696104D01*
G01X2032924Y3694546D01*
G01X2033616Y3692814D01*
G01X2034309Y3690736D01*
G01X2035002Y3689004D01*
G01X2035521Y3687445D01*
G01X2036561Y3684674D01*
G01X2037080Y3683116D01*
G01X2037773Y3681384D01*
G01X2038466Y3679306D01*
G01X2039158Y3677574D01*
G01X2039678Y3676015D01*
G01X2040717Y3673244D01*
G01X2041236Y3671686D01*
G01X2041929Y3669954D01*
G01X2042622Y3667876D01*
G01X2043314Y3666144D01*
G01X2043834Y3664585D01*
G01X2044873Y3661814D01*
G01X2045393Y3660256D01*
G01X2046432Y3657484D01*
G01X2047124Y3655753D01*
G01X2047817Y3653674D01*
G01X2049203Y3649864D01*
G01X2049896Y3648133D01*
G01X2050415Y3646574D01*
G01X2051454Y3643803D01*
G01X2051974Y3642244D01*
G01X2052666Y3640513D01*
G01X2053359Y3638434D01*
G01X2054052Y3636703D01*
G01X2054571Y3635144D01*
G01X2055611Y3632373D01*
G01X2056130Y3630814D01*
G01X2056823Y3629083D01*
G01X2057516Y3627004D01*
G01X2058208Y3625273D01*
G01X2058728Y3623714D01*
G01X2059247Y3622329D01*
G01X2059767Y3620770D01*
G01X2059940Y3619731D01*
G01X2048164Y3619731D01*
G01X2047991Y3620597D01*
G01X2046951Y3623714D01*
G01X2045912Y3626485D01*
G01X2044354Y3631161D01*
G01X2043314Y3633932D01*
G01X2042276Y3637049D01*
G01X2041236Y3639820D01*
G01X2040717Y3641552D01*
G01X2040544Y3642591D01*
G01X2022533Y3642591D01*
G01X2008938Y3642461D01*
G01X2004176Y3642071D01*
G01X2003483Y3640513D01*
G01X2002790Y3638434D01*
G01X2001404Y3634624D01*
G01X2000712Y3632546D01*
G01X1999326Y3628736D01*
G01X1998634Y3626658D01*
G01X1997248Y3622848D01*
G01X1996209Y3619731D01*
G01X1985126Y3619731D01*
G37*
G36*
G01X2091286Y3617999D02*
G01X2086783Y3618172D01*
G01X2083666Y3619211D01*
G01X2082281Y3619731D01*
G01X2080895Y3620424D01*
G01X2079509Y3621289D01*
G01X2078297Y3622156D01*
G01X2077431Y3622848D01*
G01X2076219Y3624061D01*
G01X2075180Y3625446D01*
G01X2074487Y3626485D01*
G01X2073968Y3627524D01*
G01X2073448Y3628390D01*
G01X2072929Y3629602D01*
G01X2072409Y3631161D01*
G01X2071889Y3632893D01*
G01X2071543Y3634451D01*
G01X2071197Y3636876D01*
G01X2071024Y3659563D01*
G01X2071024Y3681730D01*
G01X2081414Y3681730D01*
G01X2081414Y3662334D01*
G01X2081588Y3642418D01*
G01X2081761Y3640686D01*
G01X2081934Y3638608D01*
G01X2082281Y3636876D01*
G01X2082627Y3635491D01*
G01X2082973Y3634278D01*
G01X2083666Y3632893D01*
G01X2084705Y3631334D01*
G01X2085744Y3630295D01*
G01X2086610Y3629602D01*
G01X2087649Y3628909D01*
G01X2089034Y3628390D01*
G01X2090420Y3628044D01*
G01X2091632Y3627871D01*
G01X2093537Y3627697D01*
G01X2095442Y3627871D01*
G01X2096828Y3628044D01*
G01X2098906Y3628390D01*
G01X2100638Y3628909D01*
G01X2101850Y3629256D01*
G01X2103062Y3629776D01*
G01X2104621Y3630468D01*
G01X2106526Y3631334D01*
G01X2107911Y3632200D01*
G01X2109124Y3632893D01*
G01X2110682Y3633932D01*
G01X2112068Y3634798D01*
G01X2112457Y3640773D01*
G01X2112587Y3658351D01*
G01X2112587Y3681730D01*
G01X2122978Y3681730D01*
G01X2122978Y3619731D01*
G01X2112587Y3619731D01*
G01X2112587Y3622675D01*
G01X2112241Y3625792D01*
G01X2111029Y3625273D01*
G01X2109297Y3624061D01*
G01X2107738Y3623021D01*
G01X2104967Y3621289D01*
G01X2103236Y3620424D01*
G01X2101677Y3619731D01*
G01X2100118Y3619211D01*
G01X2098386Y3618692D01*
G01X2097001Y3618346D01*
G01X2095789Y3618172D01*
G01X2091286Y3617999D01*
G37*
G36*
G01X2163849Y3617999D02*
G01X2159519Y3618172D01*
G01X2158134Y3618519D01*
G01X2156229Y3619038D01*
G01X2154844Y3619558D01*
G01X2153804Y3620077D01*
G01X2151380Y3621463D01*
G01X2150514Y3621982D01*
G01X2149648Y3622675D01*
G01X2148436Y3623887D01*
G01X2147224Y3624926D01*
G01X2146531Y3625792D01*
G01X2145492Y3627178D01*
G01X2144453Y3628736D01*
G01X2143760Y3629949D01*
G01X2142721Y3632027D01*
G01X2142201Y3633239D01*
G01X2141682Y3634624D01*
G01X2141162Y3636183D01*
G01X2140816Y3637569D01*
G01X2140123Y3641032D01*
G01X2139777Y3643803D01*
G01X2139604Y3648999D01*
G01X2139661Y3651077D01*
G01X2150341Y3651077D01*
G01X2150514Y3645881D01*
G01X2150861Y3643111D01*
G01X2151380Y3640339D01*
G01X2151899Y3638608D01*
G01X2152246Y3637396D01*
G01X2152766Y3636183D01*
G01X2153458Y3634798D01*
G01X2154151Y3633586D01*
G01X2155017Y3632373D01*
G01X2156056Y3631161D01*
G01X2157441Y3630122D01*
G01X2159346Y3629083D01*
G01X2161078Y3628390D01*
G01X2162810Y3628044D01*
G01X2162810Y3628044D01*
G01X2164022Y3627871D01*
G01X2165408Y3627697D01*
G01X2167139Y3627871D01*
G01X2169911Y3628217D01*
G01X2171469Y3628563D01*
G01X2173374Y3629083D01*
G01X2175106Y3629776D01*
G01X2179262Y3631854D01*
G01X2180648Y3632719D01*
G01X2182206Y3633759D01*
G01X2183419Y3634451D01*
G01X2183808Y3638911D01*
G01X2183938Y3651943D01*
G01X2183765Y3670127D01*
G01X2183462Y3670819D01*
G01X2182899Y3671166D01*
G01X2181687Y3671686D01*
G01X2180301Y3672205D01*
G01X2178743Y3672724D01*
G01X2176838Y3673244D01*
G01X2175106Y3673591D01*
G01X2169911Y3674110D01*
G01X2167139Y3673937D01*
G01X2164715Y3673591D01*
G01X2162810Y3673071D01*
G01X2160905Y3672378D01*
G01X2159519Y3671686D01*
G01X2158481Y3670993D01*
G01X2156749Y3669607D01*
G01X2155536Y3668395D01*
G01X2154497Y3667009D01*
G01X2153631Y3665624D01*
G01X2152766Y3664066D01*
G01X2151726Y3661294D01*
G01X2151207Y3659563D01*
G01X2150861Y3658004D01*
G01X2150514Y3655579D01*
G01X2150341Y3651077D01*
G01X2139661Y3651077D01*
G01X2139777Y3655233D01*
G01X2140123Y3657658D01*
G01X2140469Y3659389D01*
G01X2140816Y3660775D01*
G01X2141162Y3662334D01*
G01X2141682Y3664066D01*
G01X2142201Y3665451D01*
G01X2142721Y3666663D01*
G01X2144106Y3669434D01*
G01X2145838Y3672205D01*
G01X2147916Y3674976D01*
G01X2149648Y3676708D01*
G01X2151380Y3678093D01*
G01X2152419Y3678959D01*
G01X2153978Y3679998D01*
G01X2155536Y3680864D01*
G01X2157961Y3681903D01*
G01X2159346Y3682423D01*
G01X2161251Y3682942D01*
G01X2162983Y3683289D01*
G01X2166793Y3683462D01*
G01X2171642Y3683289D01*
G01X2173721Y3682942D01*
G01X2175279Y3682596D01*
G01X2177184Y3682076D01*
G01X2178569Y3681557D01*
G01X2180128Y3681037D01*
G01X2181687Y3680344D01*
G01X2183072Y3679825D01*
G01X2183938Y3679652D01*
G01X2183938Y3706322D01*
G01X2194329Y3706322D01*
G01X2194329Y3619731D01*
G01X2183938Y3619731D01*
G01X2183938Y3622502D01*
G01X2183592Y3625446D01*
G01X2182899Y3625273D01*
G01X2182033Y3624580D01*
G01X2180648Y3623541D01*
G01X2179089Y3622502D01*
G01X2177704Y3621636D01*
G01X2176145Y3620770D01*
G01X2174759Y3620077D01*
G01X2173374Y3619558D01*
G01X2171816Y3619038D01*
G01X2170084Y3618519D01*
G01X2168525Y3618172D01*
G01X2163849Y3617999D01*
G37*
G36*
G01X2235200Y3617999D02*
G01X2230351Y3618346D01*
G01X2228446Y3618865D01*
G01X2226714Y3619384D01*
G01X2225156Y3620077D01*
G01X2223943Y3620770D01*
G01X2222904Y3621289D01*
G01X2222038Y3621982D01*
G01X2220826Y3623194D01*
G01X2219614Y3624234D01*
G01X2218921Y3625099D01*
G01X2218228Y3626139D01*
G01X2216843Y3628563D01*
G01X2216323Y3629949D01*
G01X2215804Y3631507D01*
G01X2215284Y3633412D01*
G01X2214938Y3635144D01*
G01X2214591Y3638954D01*
G01X2214418Y3660602D01*
G01X2214418Y3681730D01*
G01X2225156Y3681730D01*
G01X2225156Y3661641D01*
G01X2225329Y3639993D01*
G01X2225675Y3637569D01*
G01X2226368Y3634798D01*
G01X2227061Y3633066D01*
G01X2227926Y3631854D01*
G01X2228619Y3630988D01*
G01X2229831Y3629776D01*
G01X2231563Y3628736D01*
G01X2232949Y3628217D01*
G01X2235373Y3627871D01*
G01X2237105Y3627697D01*
G01X2239183Y3627871D01*
G01X2241261Y3628217D01*
G01X2243686Y3628736D01*
G01X2245764Y3629429D01*
G01X2247496Y3630122D01*
G01X2250267Y3631507D01*
G01X2251826Y3632373D01*
G01X2253211Y3633239D01*
G01X2254250Y3633932D01*
G01X2255462Y3634798D01*
G01X2256328Y3635317D01*
G01X2256328Y3681730D01*
G01X2266719Y3681730D01*
G01X2266719Y3619731D01*
G01X2256328Y3619731D01*
G01X2256328Y3622502D01*
G01X2256155Y3625792D01*
G01X2255852Y3626052D01*
G01X2255289Y3625792D01*
G01X2252864Y3624061D01*
G01X2251306Y3623021D01*
G01X2249921Y3622156D01*
G01X2247496Y3620770D01*
G01X2246111Y3620077D01*
G01X2244379Y3619384D01*
G01X2242993Y3618865D01*
G01X2239529Y3618172D01*
G01X2235200Y3617999D01*
G37*
G36*
G01X2303434Y3617999D02*
G01X2298758Y3618172D01*
G01X2297026Y3618692D01*
G01X2294948Y3619384D01*
G01X2293389Y3620077D01*
G01X2292177Y3620770D01*
G01X2291138Y3621289D01*
G01X2290272Y3621982D01*
G01X2287154Y3625099D01*
G01X2286116Y3626485D01*
G01X2285076Y3628044D01*
G01X2284384Y3629429D01*
G01X2283691Y3631334D01*
G01X2283171Y3633066D01*
G01X2282998Y3634451D01*
G01X2282825Y3636183D01*
G01X2282825Y3637569D01*
G01X2282998Y3638954D01*
G01X2293736Y3638954D01*
G01X2293909Y3635837D01*
G01X2294428Y3633932D01*
G01X2295121Y3632373D01*
G01X2295814Y3631334D01*
G01X2297026Y3630122D01*
G01X2298758Y3629083D01*
G01X2300316Y3628390D01*
G01X2301875Y3628044D01*
G01X2301875Y3628044D01*
G01X2302914Y3627871D01*
G01X2305858Y3627697D01*
G01X2309841Y3627871D01*
G01X2311919Y3628217D01*
G01X2313998Y3628736D01*
G01X2315903Y3629429D01*
G01X2317461Y3630122D01*
G01X2319886Y3631507D01*
G01X2321271Y3632200D01*
G01X2322657Y3633066D01*
G01X2323869Y3633932D01*
G01X2324735Y3634451D01*
G01X2325125Y3636789D01*
G01X2325254Y3643457D01*
G01X2325254Y3652289D01*
G01X2324389Y3652289D01*
G01X2323003Y3652116D01*
G01X2318154Y3651769D01*
G01X2314344Y3651423D01*
G01X2311227Y3651077D01*
G01X2308456Y3650731D01*
G01X2307244Y3650557D01*
G01X2305339Y3650211D01*
G01X2303087Y3649518D01*
G01X2301182Y3648826D01*
G01X2299797Y3648133D01*
G01X2298584Y3647440D01*
G01X2297546Y3646747D01*
G01X2296679Y3646054D01*
G01X2295467Y3644842D01*
G01X2294428Y3643111D01*
G01X2293909Y3641725D01*
G01X2293736Y3638954D01*
G01X2282998Y3638954D01*
G01X2283171Y3641379D01*
G01X2283691Y3644149D01*
G01X2284384Y3646228D01*
G01X2285249Y3647959D01*
G01X2286116Y3649172D01*
G01X2286635Y3650038D01*
G01X2287328Y3650904D01*
G01X2289406Y3652982D01*
G01X2291138Y3654194D01*
G01X2292523Y3655060D01*
G01X2293909Y3655753D01*
G01X2295467Y3656446D01*
G01X2300143Y3658004D01*
G01X2301529Y3658351D01*
G01X2305339Y3659043D01*
G01X2307763Y3659389D01*
G01X2314691Y3660082D01*
G01X2319193Y3660429D01*
G01X2322484Y3660602D01*
G01X2325254Y3660602D01*
G01X2325254Y3661987D01*
G01X2325081Y3664585D01*
G01X2324735Y3666317D01*
G01X2324389Y3667529D01*
G01X2323869Y3668568D01*
G01X2323003Y3669781D01*
G01X2321964Y3670993D01*
G01X2321098Y3671686D01*
G01X2319886Y3672378D01*
G01X2317981Y3673071D01*
G01X2316422Y3673591D01*
G01X2313651Y3673937D01*
G01X2310014Y3674110D01*
G01X2305339Y3673937D01*
G01X2302568Y3673591D01*
G01X2300489Y3673244D01*
G01X2299104Y3672898D01*
G01X2297546Y3672551D01*
G01X2295294Y3672032D01*
G01X2293389Y3671339D01*
G01X2290272Y3670300D01*
G01X2288886Y3669954D01*
G01X2288367Y3671209D01*
G01X2288194Y3674976D01*
G01X2288367Y3678873D01*
G01X2288886Y3680518D01*
G01X2290618Y3681211D01*
G01X2292177Y3681557D01*
G01X2295987Y3682249D01*
G01X2298411Y3682596D01*
G01X2301182Y3682942D01*
G01X2306724Y3683289D01*
G01X2308802Y3683462D01*
G01X2310881Y3683289D01*
G01X2312612Y3683116D01*
G01X2315383Y3682942D01*
G01X2317808Y3682596D01*
G01X2319886Y3682249D01*
G01X2322137Y3681730D01*
G01X2323869Y3681037D01*
G01X2325428Y3680344D01*
G01X2327159Y3679479D01*
G01X2328372Y3678613D01*
G01X2329238Y3677920D01*
G01X2330450Y3676881D01*
G01X2331836Y3675322D01*
G01X2332874Y3673764D01*
G01X2333567Y3672551D01*
G01X2334087Y3671339D01*
G01X2334606Y3669954D01*
G01X2335126Y3668049D01*
G01X2335472Y3666317D01*
G01X2335646Y3642764D01*
G01X2335646Y3619731D01*
G01X2325254Y3619731D01*
G01X2325254Y3625966D01*
G01X2324562Y3625619D01*
G01X2323176Y3624753D01*
G01X2320752Y3623021D01*
G01X2319366Y3622156D01*
G01X2318154Y3621463D01*
G01X2316769Y3620770D01*
G01X2315210Y3620077D01*
G01X2312093Y3619038D01*
G01X2310014Y3618519D01*
G01X2308109Y3618172D01*
G01X2303434Y3617999D01*
G37*
G36*
G01X2354999Y3599079D02*
G01X2354003Y3599469D01*
G01X2354349Y3600681D01*
G01X2354869Y3602413D01*
G01X2355388Y3604664D01*
G01X2356081Y3607089D01*
G01X2356601Y3608821D01*
G01X2356947Y3610379D01*
G01X2357466Y3612457D01*
G01X2357986Y3614016D01*
G01X2358332Y3615574D01*
G01X2358852Y3617653D01*
G01X2359371Y3619211D01*
G01X2359718Y3620770D01*
G01X2360237Y3622848D01*
G01X2360757Y3624407D01*
G01X2361103Y3625966D01*
G01X2361623Y3628044D01*
G01X2362142Y3629602D01*
G01X2362489Y3631334D01*
G01X2363008Y3633239D01*
G01X2363354Y3634624D01*
G01X2365130Y3635144D01*
G01X2370455Y3635317D01*
G01X2375737Y3635231D01*
G01X2377382Y3634971D01*
G01X2376863Y3633759D01*
G01X2376170Y3632027D01*
G01X2374784Y3628909D01*
G01X2374092Y3627178D01*
G01X2371321Y3620943D01*
G01X2370628Y3619211D01*
G01X2369243Y3616094D01*
G01X2368550Y3614362D01*
G01X2367164Y3611245D01*
G01X2366472Y3609513D01*
G01X2365086Y3606396D01*
G01X2364394Y3604664D01*
G01X2363008Y3601547D01*
G01X2361969Y3598949D01*
G01X2357986Y3598949D01*
G01X2354999Y3599079D01*
G37*
G36*
G01X1247717Y3692467D02*
G01X1247717Y3703204D01*
G01X1259494Y3703204D01*
G01X1259494Y3692467D01*
G01X1247717Y3692467D01*
G37*
G01X1247140Y2968498D02*
G01X1253490Y2971546D01*
G01X1259586Y2977896D01*
G01X1262634Y2983992D01*
G01X1262634Y2996438D01*
G01X1259586Y3002534D01*
G01X1253490Y3008884D01*
G01X1247140Y3011932D01*
G01X1237996Y3014980D01*
G01X1222502Y3014980D01*
G01X1213104Y3011932D01*
G01X1207008Y3008884D01*
G01X1200658Y3002534D01*
G01X1197610Y2996438D01*
G01X1197610Y2983992D01*
G01X1200658Y2977896D01*
G01X1207008Y2971546D01*
G01X1213104Y2968498D01*
G01X1262634Y2913634D02*
G01X1197610Y2938272D01*
G01X1262634Y2913634D02*
G01X1197610Y2888742D01*
G01X1219454Y2929128D02*
G01X1219454Y2898140D01*
G01X1262634Y2858516D02*
G01X1197610Y2858516D01*
G01X1262634Y2858516D02*
G01X1262634Y2830830D01*
G01X1259586Y2821432D01*
G01X1256538Y2818384D01*
G01X1250188Y2815336D01*
G01X1241044Y2815336D01*
G01X1234948Y2818384D01*
G01X1231646Y2821432D01*
G01X1228598Y2830830D01*
G01X1228598Y2858516D01*
G01X1262634Y2697226D02*
G01X1259586Y2703576D01*
G01X1253490Y2709672D01*
G01X1247140Y2712720D01*
G01X1237996Y2715768D01*
G01X1222502Y2715768D01*
G01X1213104Y2712720D01*
G01X1207008Y2709672D01*
G01X1200658Y2703576D01*
G01X1197610Y2697226D01*
G01X1197610Y2685034D01*
G01X1200658Y2678684D01*
G01X1207008Y2672588D01*
G01X1213104Y2669540D01*
G01X1222502Y2666238D01*
G01X1237996Y2666238D01*
G01X1247140Y2669540D01*
G01X1253490Y2672588D01*
G01X1259586Y2678684D01*
G01X1262634Y2685034D01*
G01X1262634Y2697226D01*
G01X1262634Y2636012D02*
G01X1197610Y2636012D01*
G01X1262634Y2636012D02*
G01X1262634Y2608326D01*
G01X1259586Y2598928D01*
G01X1256538Y2595880D01*
G01X1250188Y2592832D01*
G01X1244092Y2592832D01*
G01X1237996Y2595880D01*
G01X1234948Y2598928D01*
G01X1231646Y2608326D01*
G01X1231646Y2636012D01*
G01X1231646Y2614422D02*
G01X1197610Y2592832D01*
G01X1247140Y2447036D02*
G01X1253490Y2450084D01*
G01X1259586Y2456180D01*
G01X1262634Y2462530D01*
G01X1262634Y2474722D01*
G01X1259586Y2481072D01*
G01X1253490Y2487168D01*
G01X1247140Y2490216D01*
G01X1237996Y2493264D01*
G01X1222502Y2493264D01*
G01X1213104Y2490216D01*
G01X1207008Y2487168D01*
G01X1200658Y2481072D01*
G01X1197610Y2474722D01*
G01X1197610Y2462530D01*
G01X1200658Y2456180D01*
G01X1207008Y2450084D01*
G01X1213104Y2447036D01*
G01X1222502Y2447036D01*
G01X1222502Y2462530D02*
G01X1222502Y2447036D01*
G01X1262634Y2416810D02*
G01X1197610Y2416810D01*
G01X1262634Y2416810D02*
G01X1197610Y2373630D01*
G01X1262634Y2373630D02*
G01X1197610Y2373630D01*
G01X1262634Y2343404D02*
G01X1197610Y2343404D01*
G01X1262634Y2343404D02*
G01X1262634Y2321814D01*
G01X1259586Y2312670D01*
G01X1253490Y2306320D01*
G01X1247140Y2303272D01*
G01X1237996Y2300224D01*
G01X1222502Y2300224D01*
G01X1213104Y2303272D01*
G01X1207008Y2306320D01*
G01X1200658Y2312670D01*
G01X1197610Y2321814D01*
G01X1197610Y2343404D01*
G01X2330958Y406061D02*
G01X2327910Y412411D01*
G01X2321560Y418507D01*
G01X2315464Y421555D01*
G01X2303018Y421555D01*
G01X2296922Y418507D01*
G01X2290572Y412411D01*
G01X2287524Y406061D01*
G01X2284476Y396917D01*
G01X2284476Y381423D01*
G01X2287524Y372025D01*
G01X2290572Y365929D01*
G01X2296922Y359579D01*
G01X2303018Y356531D01*
G01X2315464Y356531D01*
G01X2321560Y359579D01*
G01X2327910Y365929D01*
G01X2330958Y372025D01*
G01X2385822Y421555D02*
G01X2361184Y356531D01*
G01X2385822Y421555D02*
G01X2410714Y356531D01*
G01X2370328Y378375D02*
G01X2401316Y378375D01*
G01X2440940Y421555D02*
G01X2440940Y356531D01*
G01X2440940Y421555D02*
G01X2468626Y421555D01*
G01X2478024Y418507D01*
G01X2481072Y415459D01*
G01X2484120Y409109D01*
G01X2484120Y399965D01*
G01X2481072Y393869D01*
G01X2478024Y390567D01*
G01X2468626Y387519D01*
G01X2440940Y387519D01*
G01X2602230Y421555D02*
G01X2595880Y418507D01*
G01X2589784Y412411D01*
G01X2586736Y406061D01*
G01X2583688Y396917D01*
G01X2583688Y381423D01*
G01X2586736Y372025D01*
G01X2589784Y365929D01*
G01X2595880Y359579D01*
G01X2602230Y356531D01*
G01X2614422Y356531D01*
G01X2620772Y359579D01*
G01X2626868Y365929D01*
G01X2629916Y372025D01*
G01X2633218Y381423D01*
G01X2633218Y396917D01*
G01X2629916Y406061D01*
G01X2626868Y412411D01*
G01X2620772Y418507D01*
G01X2614422Y421555D01*
G01X2602230Y421555D01*
G01X2663444Y421555D02*
G01X2663444Y356531D01*
G01X2663444Y356531D02*
G01X2700528Y356531D01*
G01X2846324Y406061D02*
G01X2843276Y412411D01*
G01X2837180Y418507D01*
G01X2830830Y421555D01*
G01X2818638Y421555D01*
G01X2812288Y418507D01*
G01X2806192Y412411D01*
G01X2803144Y406061D01*
G01X2800096Y396917D01*
G01X2800096Y381423D01*
G01X2803144Y372025D01*
G01X2806192Y365929D01*
G01X2812288Y359579D01*
G01X2818638Y356531D01*
G01X2830830Y356531D01*
G01X2837180Y359579D01*
G01X2843276Y365929D01*
G01X2846324Y372025D01*
G01X2846324Y381423D01*
G01X2830830Y381423D02*
G01X2846324Y381423D01*
G01X2876550Y421555D02*
G01X2876550Y356531D01*
G01X2876550Y421555D02*
G01X2919730Y356531D01*
G01X2919730Y421555D02*
G01X2919730Y356531D01*
G01X2949956Y421555D02*
G01X2949956Y356531D01*
G01X2949956Y421555D02*
G01X2971546Y421555D01*
G01X2980690Y418507D01*
G01X2987040Y412411D01*
G01X2990088Y406061D01*
G01X2993136Y396917D01*
G01X2993136Y381423D01*
G01X2990088Y372025D01*
G01X2987040Y365929D01*
G01X2980690Y359579D01*
G01X2971546Y356531D01*
G01X2949956Y356531D01*
G01X922020Y627634D02*
G01X922020Y581152D01*
G01X925068Y572008D01*
G01X931418Y565658D01*
G01X940562Y562610D01*
G01X946912Y562610D01*
G01X956056Y565658D01*
G01X962152Y572008D01*
G01X965454Y581152D01*
G01X965454Y627634D01*
G01X1001776Y627634D02*
G01X1035812Y627634D01*
G01X1017270Y602996D01*
G01X1026414Y602996D01*
G01X1032764Y599948D01*
G01X1035812Y596646D01*
G01X1038860Y587502D01*
G01X1038860Y581152D01*
G01X1035812Y572008D01*
G01X1029716Y565658D01*
G01X1020318Y562610D01*
G01X1010920Y562610D01*
G01X1001776Y565658D01*
G01X998728Y568960D01*
G01X995680Y575056D01*
G01X1565402Y2567940D02*
G01X1562354Y2574290D01*
G01X1556004Y2580386D01*
G01X1549908Y2583434D01*
G01X1537462Y2583434D01*
G01X1531366Y2580386D01*
G01X1525016Y2574290D01*
G01X1521968Y2567940D01*
G01X1518920Y2558796D01*
G01X1518920Y2543302D01*
G01X1521968Y2533904D01*
G01X1525016Y2527808D01*
G01X1531366Y2521458D01*
G01X1537462Y2518410D01*
G01X1549908Y2518410D01*
G01X1556004Y2521458D01*
G01X1562354Y2527808D01*
G01X1565402Y2533904D01*
G01X1638808Y2583434D02*
G01X1607820Y2518410D01*
G01X1595628Y2583434D02*
G01X1638808Y2583434D01*
G01X1912620Y1351534D02*
G01X1912620Y1305052D01*
G01X1915668Y1295908D01*
G01X1922018Y1289558D01*
G01X1931162Y1286510D01*
G01X1937512Y1286510D01*
G01X1946656Y1289558D01*
G01X1952752Y1295908D01*
G01X1956054Y1305052D01*
G01X1956054Y1351534D01*
G01X1986280Y1339088D02*
G01X1992376Y1342390D01*
G01X2001520Y1351534D01*
G01X2001520Y1286510D01*
G01X1540002Y624840D02*
G01X1536954Y631190D01*
G01X1530604Y637286D01*
G01X1524508Y640334D01*
G01X1512062Y640334D01*
G01X1505966Y637286D01*
G01X1499616Y631190D01*
G01X1496568Y624840D01*
G01X1493520Y615696D01*
G01X1493520Y600202D01*
G01X1496568Y590804D01*
G01X1499616Y584708D01*
G01X1505966Y578358D01*
G01X1512062Y575310D01*
G01X1524508Y575310D01*
G01X1530604Y578358D01*
G01X1536954Y584708D01*
G01X1540002Y590804D01*
G01X1570228Y627888D02*
G01X1576324Y631190D01*
G01X1585468Y640334D01*
G01X1585468Y575310D01*
G01X1618742Y624840D02*
G01X1618742Y627888D01*
G01X1621790Y634238D01*
G01X1624838Y637286D01*
G01X1630934Y640334D01*
G01X1643380Y640334D01*
G01X1649730Y637286D01*
G01X1652778Y634238D01*
G01X1655826Y627888D01*
G01X1655826Y621792D01*
G01X1652778Y615696D01*
G01X1646428Y606298D01*
G01X1615694Y575310D01*
G01X1658874Y575310D01*
G01X1501902Y1082040D02*
G01X1498854Y1088390D01*
G01X1492504Y1094486D01*
G01X1486408Y1097534D01*
G01X1473962Y1097534D01*
G01X1467866Y1094486D01*
G01X1461516Y1088390D01*
G01X1458468Y1082040D01*
G01X1455420Y1072896D01*
G01X1455420Y1057402D01*
G01X1458468Y1048004D01*
G01X1461516Y1041908D01*
G01X1467866Y1035558D01*
G01X1473962Y1032510D01*
G01X1486408Y1032510D01*
G01X1492504Y1035558D01*
G01X1498854Y1041908D01*
G01X1501902Y1048004D01*
G01X1547368Y1097534D02*
G01X1538224Y1094486D01*
G01X1535176Y1088390D01*
G01X1535176Y1082040D01*
G01X1538224Y1075944D01*
G01X1544320Y1072896D01*
G01X1556766Y1069848D01*
G01X1566164Y1066546D01*
G01X1572260Y1060450D01*
G01X1575308Y1054354D01*
G01X1575308Y1044956D01*
G01X1572260Y1038860D01*
G01X1569212Y1035558D01*
G01X1559814Y1032510D01*
G01X1547368Y1032510D01*
G01X1538224Y1035558D01*
G01X1535176Y1038860D01*
G01X1532128Y1044956D01*
G01X1532128Y1054354D01*
G01X1535176Y1060450D01*
G01X1541272Y1066546D01*
G01X1550670Y1069848D01*
G01X1562862Y1072896D01*
G01X1569212Y1075944D01*
G01X1572260Y1082040D01*
G01X1572260Y1088390D01*
G01X1569212Y1094486D01*
G01X1559814Y1097534D01*
G01X1547368Y1097534D01*
G01X1781302Y1602740D02*
G01X1778254Y1609090D01*
G01X1771904Y1615186D01*
G01X1765808Y1618234D01*
G01X1753362Y1618234D01*
G01X1747266Y1615186D01*
G01X1740916Y1609090D01*
G01X1737868Y1602740D01*
G01X1734820Y1593596D01*
G01X1734820Y1578102D01*
G01X1737868Y1568704D01*
G01X1740916Y1562608D01*
G01X1747266Y1556258D01*
G01X1753362Y1553210D01*
G01X1765808Y1553210D01*
G01X1771904Y1556258D01*
G01X1778254Y1562608D01*
G01X1781302Y1568704D01*
G01X1848612Y1609090D02*
G01X1845564Y1615186D01*
G01X1836166Y1618234D01*
G01X1830070Y1618234D01*
G01X1820672Y1615186D01*
G01X1814576Y1605788D01*
G01X1811528Y1590548D01*
G01X1811528Y1575054D01*
G01X1814576Y1562608D01*
G01X1820672Y1556258D01*
G01X1830070Y1553210D01*
G01X1833118Y1553210D01*
G01X1842262Y1556258D01*
G01X1848612Y1562608D01*
G01X1851660Y1571752D01*
G01X1851660Y1575054D01*
G01X1848612Y1584198D01*
G01X1842262Y1590548D01*
G01X1833118Y1593596D01*
G01X1830070Y1593596D01*
G01X1820672Y1590548D01*
G01X1814576Y1584198D01*
G01X1811528Y1575054D01*
G01X1349502Y510540D02*
G01X1346454Y516890D01*
G01X1340104Y522986D01*
G01X1334008Y526034D01*
G01X1321562Y526034D01*
G01X1315466Y522986D01*
G01X1309116Y516890D01*
G01X1306068Y510540D01*
G01X1303020Y501396D01*
G01X1303020Y485902D01*
G01X1306068Y476504D01*
G01X1309116Y470408D01*
G01X1315466Y464058D01*
G01X1321562Y461010D01*
G01X1334008Y461010D01*
G01X1340104Y464058D01*
G01X1346454Y470408D01*
G01X1349502Y476504D01*
G01X1379728Y513588D02*
G01X1385824Y516890D01*
G01X1394968Y526034D01*
G01X1394968Y461010D01*
G01X1431290Y526034D02*
G01X1465326Y526034D01*
G01X1446784Y501396D01*
G01X1455928Y501396D01*
G01X1462278Y498348D01*
G01X1465326Y495046D01*
G01X1468374Y485902D01*
G01X1468374Y479552D01*
G01X1465326Y470408D01*
G01X1459230Y464058D01*
G01X1449832Y461010D01*
G01X1440434Y461010D01*
G01X1431290Y464058D01*
G01X1428242Y467360D01*
G01X1425194Y473456D01*
G01X1311402Y1539240D02*
G01X1308354Y1545590D01*
G01X1302004Y1551686D01*
G01X1295908Y1554734D01*
G01X1283462Y1554734D01*
G01X1277366Y1551686D01*
G01X1271016Y1545590D01*
G01X1267968Y1539240D01*
G01X1264920Y1530096D01*
G01X1264920Y1514602D01*
G01X1267968Y1505204D01*
G01X1271016Y1499108D01*
G01X1277366Y1492758D01*
G01X1283462Y1489710D01*
G01X1295908Y1489710D01*
G01X1302004Y1492758D01*
G01X1308354Y1499108D01*
G01X1311402Y1505204D01*
G01X1381760Y1533144D02*
G01X1378712Y1523746D01*
G01X1372362Y1517650D01*
G01X1363218Y1514602D01*
G01X1360170Y1514602D01*
G01X1350772Y1517650D01*
G01X1344676Y1523746D01*
G01X1341628Y1533144D01*
G01X1341628Y1536192D01*
G01X1344676Y1545590D01*
G01X1350772Y1551686D01*
G01X1360170Y1554734D01*
G01X1363218Y1554734D01*
G01X1372362Y1551686D01*
G01X1378712Y1545590D01*
G01X1381760Y1533144D01*
G01X1381760Y1517650D01*
G01X1378712Y1502156D01*
G01X1372362Y1492758D01*
G01X1363218Y1489710D01*
G01X1356868Y1489710D01*
G01X1347724Y1492758D01*
G01X1344676Y1499108D01*
G01X930402Y1856740D02*
G01X927354Y1863090D01*
G01X921004Y1869186D01*
G01X914908Y1872234D01*
G01X902462Y1872234D01*
G01X896366Y1869186D01*
G01X890016Y1863090D01*
G01X886968Y1856740D01*
G01X883920Y1847596D01*
G01X883920Y1832102D01*
G01X886968Y1822704D01*
G01X890016Y1816608D01*
G01X896366Y1810258D01*
G01X902462Y1807210D01*
G01X914908Y1807210D01*
G01X921004Y1810258D01*
G01X927354Y1816608D01*
G01X930402Y1822704D01*
G01X991362Y1872234D02*
G01X960628Y1829054D01*
G01X1006856Y1829054D01*
G01X991362Y1872234D02*
G01X991362Y1807210D01*
G01X2172208Y1503934D02*
G01X2172208Y1454404D01*
G01X2169160Y1445260D01*
G01X2166112Y1441958D01*
G01X2159762Y1438910D01*
G01X2153666Y1438910D01*
G01X2147316Y1441958D01*
G01X2144268Y1445260D01*
G01X2141220Y1454404D01*
G01X2141220Y1460754D01*
G01X2202434Y1491488D02*
G01X2208530Y1494790D01*
G01X2217674Y1503934D01*
G01X2217674Y1438910D01*
G01X2197608Y3383534D02*
G01X2197608Y3334004D01*
G01X2194560Y3324860D01*
G01X2191512Y3321558D01*
G01X2185162Y3318510D01*
G01X2179066Y3318510D01*
G01X2172716Y3321558D01*
G01X2169668Y3324860D01*
G01X2166620Y3334004D01*
G01X2166620Y3340354D01*
G01X2230882Y3368040D02*
G01X2230882Y3371088D01*
G01X2233930Y3377438D01*
G01X2236978Y3380486D01*
G01X2243074Y3383534D01*
G01X2255520Y3383534D01*
G01X2261870Y3380486D01*
G01X2264918Y3377438D01*
G01X2267966Y3371088D01*
G01X2267966Y3364992D01*
G01X2264918Y3358896D01*
G01X2258568Y3349498D01*
G01X2227834Y3318510D01*
G01X2271014Y3318510D01*
G01X1137920Y3231134D02*
G01X1137920Y3166110D01*
G01X1181354Y3231134D02*
G01X1181354Y3166110D01*
G01X1137920Y3200146D02*
G01X1181354Y3200146D01*
G01X1214628Y3215640D02*
G01X1214628Y3218688D01*
G01X1217676Y3225038D01*
G01X1220724Y3228086D01*
G01X1226820Y3231134D01*
G01X1239266Y3231134D01*
G01X1245616Y3228086D01*
G01X1248664Y3225038D01*
G01X1251712Y3218688D01*
G01X1251712Y3212592D01*
G01X1248664Y3206496D01*
G01X1242314Y3197098D01*
G01X1211580Y3166110D01*
G01X1254760Y3166110D01*
G01X3360420Y1376934D02*
G01X3360420Y1311910D01*
G01X3403854Y1376934D02*
G01X3403854Y1311910D01*
G01X3360420Y1345946D02*
G01X3403854Y1345946D01*
G01X3434080Y1364488D02*
G01X3440176Y1367790D01*
G01X3449320Y1376934D01*
G01X3449320Y1311910D01*
G01X1061720Y2037334D02*
G01X1061720Y1990852D01*
G01X1064768Y1981708D01*
G01X1071118Y1975358D01*
G01X1080262Y1972310D01*
G01X1086612Y1972310D01*
G01X1095756Y1975358D01*
G01X1101852Y1981708D01*
G01X1105154Y1990852D01*
G01X1105154Y2037334D01*
G01X1138428Y2021840D02*
G01X1138428Y2024888D01*
G01X1141476Y2031238D01*
G01X1144524Y2034286D01*
G01X1150620Y2037334D01*
G01X1163066Y2037334D01*
G01X1169416Y2034286D01*
G01X1172464Y2031238D01*
G01X1175512Y2024888D01*
G01X1175512Y2018792D01*
G01X1172464Y2012696D01*
G01X1166114Y2003298D01*
G01X1135380Y1972310D01*
G01X1178560Y1972310D01*
G01X689102Y751840D02*
G01X686054Y758190D01*
G01X679704Y764286D01*
G01X673608Y767334D01*
G01X661162Y767334D01*
G01X655066Y764286D01*
G01X648716Y758190D01*
G01X645668Y751840D01*
G01X642620Y742696D01*
G01X642620Y727202D01*
G01X645668Y717804D01*
G01X648716Y711708D01*
G01X655066Y705358D01*
G01X661162Y702310D01*
G01X673608Y702310D01*
G01X679704Y705358D01*
G01X686054Y711708D01*
G01X689102Y717804D01*
G01X756412Y767334D02*
G01X725424Y767334D01*
G01X722376Y739648D01*
G01X725424Y742696D01*
G01X734568Y745744D01*
G01X743966Y745744D01*
G01X753364Y742696D01*
G01X759460Y736346D01*
G01X762508Y727202D01*
G01X762508Y720852D01*
G01X759460Y711708D01*
G01X753364Y705358D01*
G01X743966Y702310D01*
G01X734568Y702310D01*
G01X725424Y705358D01*
G01X722376Y708660D01*
G01X719328Y714756D01*
G01X998220Y1491234D02*
G01X998220Y1426210D01*
G01X998220Y1491234D02*
G01X1026160Y1491234D01*
G01X1035304Y1488186D01*
G01X1038352Y1485138D01*
G01X1041654Y1478788D01*
G01X1041654Y1472692D01*
G01X1038352Y1466596D01*
G01X1035304Y1463548D01*
G01X1026160Y1460246D01*
G01X998220Y1460246D01*
G01X1019810Y1460246D02*
G01X1041654Y1426210D01*
G01X1108964Y1491234D02*
G01X1077976Y1491234D01*
G01X1074928Y1463548D01*
G01X1077976Y1466596D01*
G01X1087120Y1469644D01*
G01X1096518Y1469644D01*
G01X1105916Y1466596D01*
G01X1112012Y1460246D01*
G01X1115060Y1451102D01*
G01X1115060Y1444752D01*
G01X1112012Y1435608D01*
G01X1105916Y1429258D01*
G01X1096518Y1426210D01*
G01X1087120Y1426210D01*
G01X1077976Y1429258D01*
G01X1074928Y1432560D01*
G01X1071880Y1438656D01*
G01X1023620Y1288034D02*
G01X1023620Y1223010D01*
G01X1023620Y1288034D02*
G01X1051560Y1288034D01*
G01X1060704Y1284986D01*
G01X1063752Y1281938D01*
G01X1067054Y1275588D01*
G01X1067054Y1269492D01*
G01X1063752Y1263396D01*
G01X1060704Y1260348D01*
G01X1051560Y1257046D01*
G01X1023620Y1257046D01*
G01X1045210Y1257046D02*
G01X1067054Y1223010D01*
G01X1134364Y1278890D02*
G01X1131316Y1284986D01*
G01X1121918Y1288034D01*
G01X1115822Y1288034D01*
G01X1106424Y1284986D01*
G01X1100328Y1275588D01*
G01X1097280Y1260348D01*
G01X1097280Y1244854D01*
G01X1100328Y1232408D01*
G01X1106424Y1226058D01*
G01X1115822Y1223010D01*
G01X1118870Y1223010D01*
G01X1128014Y1226058D01*
G01X1134364Y1232408D01*
G01X1137412Y1241552D01*
G01X1137412Y1244854D01*
G01X1134364Y1253998D01*
G01X1128014Y1260348D01*
G01X1118870Y1263396D01*
G01X1115822Y1263396D01*
G01X1106424Y1260348D01*
G01X1100328Y1253998D01*
G01X1097280Y1244854D01*
G01X934720Y1135634D02*
G01X934720Y1070610D01*
G01X934720Y1135634D02*
G01X962660Y1135634D01*
G01X971804Y1132586D01*
G01X974852Y1129538D01*
G01X978154Y1123188D01*
G01X978154Y1117092D01*
G01X974852Y1110996D01*
G01X971804Y1107948D01*
G01X962660Y1104646D01*
G01X934720Y1104646D01*
G01X956310Y1104646D02*
G01X978154Y1070610D01*
G01X1051560Y1135634D02*
G01X1020572Y1070610D01*
G01X1008380Y1135634D02*
G01X1051560Y1135634D01*
G01X1540002Y1628140D02*
G01X1536954Y1634490D01*
G01X1530604Y1640586D01*
G01X1524508Y1643634D01*
G01X1512062Y1643634D01*
G01X1505966Y1640586D01*
G01X1499616Y1634490D01*
G01X1496568Y1628140D01*
G01X1493520Y1618996D01*
G01X1493520Y1603502D01*
G01X1496568Y1594104D01*
G01X1499616Y1588008D01*
G01X1505966Y1581658D01*
G01X1512062Y1578610D01*
G01X1524508Y1578610D01*
G01X1530604Y1581658D01*
G01X1536954Y1588008D01*
G01X1540002Y1594104D01*
G01X1570228Y1631188D02*
G01X1576324Y1634490D01*
G01X1585468Y1643634D01*
G01X1585468Y1578610D01*
G01X1615694Y1631188D02*
G01X1621790Y1634490D01*
G01X1630934Y1643634D01*
G01X1630934Y1578610D01*
G01X435102Y3088640D02*
G01X432054Y3094990D01*
G01X425704Y3101086D01*
G01X419608Y3104134D01*
G01X407162Y3104134D01*
G01X401066Y3101086D01*
G01X394716Y3094990D01*
G01X391668Y3088640D01*
G01X388620Y3079496D01*
G01X388620Y3064002D01*
G01X391668Y3054604D01*
G01X394716Y3048508D01*
G01X401066Y3042158D01*
G01X407162Y3039110D01*
G01X419608Y3039110D01*
G01X425704Y3042158D01*
G01X432054Y3048508D01*
G01X435102Y3054604D01*
G01X465328Y3104134D02*
G01X465328Y3039110D01*
G01X465328Y3104134D02*
G01X508508Y3039110D01*
G01X508508Y3104134D02*
G01X508508Y3039110D01*
G01X541782Y3088640D02*
G01X541782Y3091688D01*
G01X544830Y3098038D01*
G01X547878Y3101086D01*
G01X553974Y3104134D01*
G01X566420Y3104134D01*
G01X572770Y3101086D01*
G01X575818Y3098038D01*
G01X578866Y3091688D01*
G01X578866Y3085592D01*
G01X575818Y3079496D01*
G01X569468Y3070098D01*
G01X538734Y3039110D01*
G01X581914Y3039110D01*
G01X447802Y2199640D02*
G01X444754Y2205990D01*
G01X438404Y2212086D01*
G01X432308Y2215134D01*
G01X419862Y2215134D01*
G01X413766Y2212086D01*
G01X407416Y2205990D01*
G01X404368Y2199640D01*
G01X401320Y2190496D01*
G01X401320Y2175002D01*
G01X404368Y2165604D01*
G01X407416Y2159508D01*
G01X413766Y2153158D01*
G01X419862Y2150110D01*
G01X432308Y2150110D01*
G01X438404Y2153158D01*
G01X444754Y2159508D01*
G01X447802Y2165604D01*
G01X478028Y2215134D02*
G01X478028Y2150110D01*
G01X478028Y2215134D02*
G01X521208Y2150110D01*
G01X521208Y2215134D02*
G01X521208Y2150110D01*
G01X551434Y2202688D02*
G01X557530Y2205990D01*
G01X566674Y2215134D01*
G01X566674Y2150110D01*
G01X1684020Y449834D02*
G01X1684020Y384810D01*
G01X1684020Y449834D02*
G01X1711960Y449834D01*
G01X1721104Y446786D01*
G01X1724152Y443738D01*
G01X1727454Y437388D01*
G01X1727454Y431292D01*
G01X1724152Y425196D01*
G01X1721104Y422148D01*
G01X1711960Y418846D01*
G01X1684020Y418846D01*
G01X1705610Y418846D02*
G01X1727454Y384810D01*
G01X1800860Y440690D02*
G01X1794764Y446786D01*
G01X1785366Y449834D01*
G01X1772920Y449834D01*
G01X1763776Y446786D01*
G01X1757680Y440690D01*
G01X1757680Y434340D01*
G01X1760728Y428244D01*
G01X1763776Y425196D01*
G01X1769872Y422148D01*
G01X1788414Y415798D01*
G01X1794764Y412750D01*
G01X1797812Y409702D01*
G01X1800860Y403352D01*
G01X1800860Y394208D01*
G01X1794764Y387858D01*
G01X1785366Y384810D01*
G01X1772920Y384810D01*
G01X1763776Y387858D01*
G01X1757680Y394208D01*
G01X1831086Y449834D02*
G01X1831086Y384810D01*
G01X1831086Y449834D02*
G01X1874266Y384810D01*
G01X1874266Y449834D02*
G01X1874266Y384810D01*
G01X1950720Y434340D02*
G01X1947672Y440690D01*
G01X1941576Y446786D01*
G01X1935226Y449834D01*
G01X1923034Y449834D01*
G01X1916684Y446786D01*
G01X1910588Y440690D01*
G01X1907540Y434340D01*
G01X1904492Y425196D01*
G01X1904492Y409702D01*
G01X1907540Y400304D01*
G01X1910588Y394208D01*
G01X1916684Y387858D01*
G01X1923034Y384810D01*
G01X1935226Y384810D01*
G01X1941576Y387858D01*
G01X1947672Y394208D01*
G01X1950720Y400304D01*
G01X1950720Y409702D01*
G01X1935226Y409702D02*
G01X1950720Y409702D01*
G01X1980946Y449834D02*
G01X1980946Y384810D01*
G01X1980946Y384810D02*
G01X2018030Y384810D01*
G01X2369820Y1034034D02*
G01X2369820Y969010D01*
G01X2369820Y1034034D02*
G01X2397760Y1034034D01*
G01X2406904Y1030986D01*
G01X2409952Y1027938D01*
G01X2413254Y1021588D01*
G01X2413254Y1015492D01*
G01X2409952Y1009396D01*
G01X2406904Y1006348D01*
G01X2397760Y1003046D01*
G01X2369820Y1003046D01*
G01X2391410Y1003046D02*
G01X2413254Y969010D01*
G01X2443480Y1021588D02*
G01X2449576Y1024890D01*
G01X2458720Y1034034D01*
G01X2458720Y969010D01*
G01X3297174Y1034034D02*
G01X3297174Y969010D01*
G01X3297174Y1034034D02*
G01X3325114Y1034034D01*
G01X3334258Y1030986D01*
G01X3337306Y1027938D01*
G01X3340608Y1021588D01*
G01X3340608Y1015492D01*
G01X3337306Y1009396D01*
G01X3334258Y1006348D01*
G01X3325114Y1003046D01*
G01X3297174Y1003046D01*
G01X3318764Y1003046D02*
G01X3340608Y969010D01*
G01X3373882Y1018540D02*
G01X3373882Y1021588D01*
G01X3376930Y1027938D01*
G01X3379978Y1030986D01*
G01X3386074Y1034034D01*
G01X3398520Y1034034D01*
G01X3404870Y1030986D01*
G01X3407918Y1027938D01*
G01X3410966Y1021588D01*
G01X3410966Y1015492D01*
G01X3407918Y1009396D01*
G01X3401568Y999998D01*
G01X3370834Y969010D01*
G01X3414014Y969010D01*
G01X2026666Y2725420D02*
G01X2091690Y2725420D01*
G01X2026666Y2725420D02*
G01X2026666Y2753360D01*
G01X2029714Y2762504D01*
G01X2032762Y2765552D01*
G01X2039112Y2768854D01*
G01X2045208Y2768854D01*
G01X2051304Y2765552D01*
G01X2054352Y2762504D01*
G01X2057654Y2753360D01*
G01X2057654Y2725420D01*
G01X2057654Y2747010D02*
G01X2091690Y2768854D01*
G01X2026666Y2805176D02*
G01X2026666Y2839212D01*
G01X2051304Y2820670D01*
G01X2051304Y2829814D01*
G01X2054352Y2836164D01*
G01X2057654Y2839212D01*
G01X2066798Y2842260D01*
G01X2073148Y2842260D01*
G01X2082292Y2839212D01*
G01X2088642Y2833116D01*
G01X2091690Y2823718D01*
G01X2091690Y2814320D01*
G01X2088642Y2805176D01*
G01X2085340Y2802128D01*
G01X2079244Y2799080D01*
G01X1391920Y2685034D02*
G01X1391920Y2620010D01*
G01X1391920Y2685034D02*
G01X1419860Y2685034D01*
G01X1429004Y2681986D01*
G01X1432052Y2678938D01*
G01X1435354Y2672588D01*
G01X1435354Y2666492D01*
G01X1432052Y2660396D01*
G01X1429004Y2657348D01*
G01X1419860Y2654046D01*
G01X1391920Y2654046D01*
G01X1413510Y2654046D02*
G01X1435354Y2620010D01*
G01X1496314Y2685034D02*
G01X1465580Y2641854D01*
G01X1511808Y2641854D01*
G01X1496314Y2685034D02*
G01X1496314Y2620010D01*
G01X2898902Y1094740D02*
G01X2895854Y1101090D01*
G01X2889504Y1107186D01*
G01X2883408Y1110234D01*
G01X2870962Y1110234D01*
G01X2864866Y1107186D01*
G01X2858516Y1101090D01*
G01X2855468Y1094740D01*
G01X2852420Y1085596D01*
G01X2852420Y1070102D01*
G01X2855468Y1060704D01*
G01X2858516Y1054608D01*
G01X2864866Y1048258D01*
G01X2870962Y1045210D01*
G01X2883408Y1045210D01*
G01X2889504Y1048258D01*
G01X2895854Y1054608D01*
G01X2898902Y1060704D01*
G01X2929128Y1097788D02*
G01X2935224Y1101090D01*
G01X2944368Y1110234D01*
G01X2944368Y1045210D01*
G01X1641602Y2694940D02*
G01X1638554Y2701290D01*
G01X1632204Y2707386D01*
G01X1626108Y2710434D01*
G01X1613662Y2710434D01*
G01X1607566Y2707386D01*
G01X1601216Y2701290D01*
G01X1598168Y2694940D01*
G01X1595120Y2685796D01*
G01X1595120Y2670302D01*
G01X1598168Y2660904D01*
G01X1601216Y2654808D01*
G01X1607566Y2648458D01*
G01X1613662Y2645410D01*
G01X1626108Y2645410D01*
G01X1632204Y2648458D01*
G01X1638554Y2654808D01*
G01X1641602Y2660904D01*
G01X1671828Y2697988D02*
G01X1677924Y2701290D01*
G01X1687068Y2710434D01*
G01X1687068Y2645410D01*
G01X1748028Y2710434D02*
G01X1717294Y2667254D01*
G01X1763522Y2667254D01*
G01X1748028Y2710434D02*
G01X1748028Y2645410D01*
G01X2065020Y691134D02*
G01X2065020Y626110D01*
G01X2065020Y691134D02*
G01X2092960Y691134D01*
G01X2102104Y688086D01*
G01X2105152Y685038D01*
G01X2108454Y678688D01*
G01X2108454Y672592D01*
G01X2105152Y666496D01*
G01X2102104Y663448D01*
G01X2092960Y660146D01*
G01X2065020Y660146D01*
G01X2086610Y660146D02*
G01X2108454Y626110D01*
G01X2153920Y691134D02*
G01X2144776Y688086D01*
G01X2141728Y681990D01*
G01X2141728Y675640D01*
G01X2144776Y669544D01*
G01X2150872Y666496D01*
G01X2163318Y663448D01*
G01X2172716Y660146D01*
G01X2178812Y654050D01*
G01X2181860Y647954D01*
G01X2181860Y638556D01*
G01X2178812Y632460D01*
G01X2175764Y629158D01*
G01X2166366Y626110D01*
G01X2153920Y626110D01*
G01X2144776Y629158D01*
G01X2141728Y632460D01*
G01X2138680Y638556D01*
G01X2138680Y647954D01*
G01X2141728Y654050D01*
G01X2147824Y660146D01*
G01X2157222Y663448D01*
G01X2169414Y666496D01*
G01X2175764Y669544D01*
G01X2178812Y675640D01*
G01X2178812Y681990D01*
G01X2175764Y688086D01*
G01X2166366Y691134D01*
G01X2153920Y691134D01*
G01X1336802Y2250440D02*
G01X1333754Y2256790D01*
G01X1327404Y2262886D01*
G01X1321308Y2265934D01*
G01X1308862Y2265934D01*
G01X1302766Y2262886D01*
G01X1296416Y2256790D01*
G01X1293368Y2250440D01*
G01X1290320Y2241296D01*
G01X1290320Y2225802D01*
G01X1293368Y2216404D01*
G01X1296416Y2210308D01*
G01X1302766Y2203958D01*
G01X1308862Y2200910D01*
G01X1321308Y2200910D01*
G01X1327404Y2203958D01*
G01X1333754Y2210308D01*
G01X1336802Y2216404D01*
G01X1367028Y2253488D02*
G01X1373124Y2256790D01*
G01X1382268Y2265934D01*
G01X1382268Y2200910D01*
G01X1455674Y2265934D02*
G01X1424686Y2200910D01*
G01X1412494Y2265934D02*
G01X1455674Y2265934D01*
G01X2530602Y1145540D02*
G01X2527554Y1151890D01*
G01X2521204Y1157986D01*
G01X2515108Y1161034D01*
G01X2502662Y1161034D01*
G01X2496566Y1157986D01*
G01X2490216Y1151890D01*
G01X2487168Y1145540D01*
G01X2484120Y1136396D01*
G01X2484120Y1120902D01*
G01X2487168Y1111504D01*
G01X2490216Y1105408D01*
G01X2496566Y1099058D01*
G01X2502662Y1096010D01*
G01X2515108Y1096010D01*
G01X2521204Y1099058D01*
G01X2527554Y1105408D01*
G01X2530602Y1111504D01*
G01X2563876Y1145540D02*
G01X2563876Y1148588D01*
G01X2566924Y1154938D01*
G01X2569972Y1157986D01*
G01X2576068Y1161034D01*
G01X2588514Y1161034D01*
G01X2594864Y1157986D01*
G01X2597912Y1154938D01*
G01X2600960Y1148588D01*
G01X2600960Y1142492D01*
G01X2597912Y1136396D01*
G01X2591562Y1126998D01*
G01X2560828Y1096010D01*
G01X2604008Y1096010D01*
G01X3381502Y1145540D02*
G01X3378454Y1151890D01*
G01X3372104Y1157986D01*
G01X3366008Y1161034D01*
G01X3353562Y1161034D01*
G01X3347466Y1157986D01*
G01X3341116Y1151890D01*
G01X3338068Y1145540D01*
G01X3335020Y1136396D01*
G01X3335020Y1120902D01*
G01X3338068Y1111504D01*
G01X3341116Y1105408D01*
G01X3347466Y1099058D01*
G01X3353562Y1096010D01*
G01X3366008Y1096010D01*
G01X3372104Y1099058D01*
G01X3378454Y1105408D01*
G01X3381502Y1111504D01*
G01X3417824Y1161034D02*
G01X3451860Y1161034D01*
G01X3433318Y1136396D01*
G01X3442462Y1136396D01*
G01X3448812Y1133348D01*
G01X3451860Y1130046D01*
G01X3454908Y1120902D01*
G01X3454908Y1114552D01*
G01X3451860Y1105408D01*
G01X3445764Y1099058D01*
G01X3436366Y1096010D01*
G01X3426968Y1096010D01*
G01X3417824Y1099058D01*
G01X3414776Y1102360D01*
G01X3411728Y1108456D01*
G01X1292860Y2898902D02*
G01X1286510Y2895854D01*
G01X1280414Y2889504D01*
G01X1277366Y2883408D01*
G01X1277366Y2870962D01*
G01X1280414Y2864866D01*
G01X1286510Y2858516D01*
G01X1292860Y2855468D01*
G01X1302004Y2852420D01*
G01X1317498Y2852420D01*
G01X1326896Y2855468D01*
G01X1332992Y2858516D01*
G01X1339342Y2864866D01*
G01X1342390Y2870962D01*
G01X1342390Y2883408D01*
G01X1339342Y2889504D01*
G01X1332992Y2895854D01*
G01X1326896Y2898902D01*
G01X1289812Y2929128D02*
G01X1286510Y2935224D01*
G01X1277366Y2944368D01*
G01X1342390Y2944368D01*
G01X1277366Y3011678D02*
G01X1277366Y2980690D01*
G01X1305052Y2977642D01*
G01X1302004Y2980690D01*
G01X1298956Y2989834D01*
G01X1298956Y2999232D01*
G01X1302004Y3008630D01*
G01X1308354Y3014726D01*
G01X1317498Y3017774D01*
G01X1323848Y3017774D01*
G01X1332992Y3014726D01*
G01X1339342Y3008630D01*
G01X1342390Y2999232D01*
G01X1342390Y2989834D01*
G01X1339342Y2980690D01*
G01X1336040Y2977642D01*
G01X1329944Y2974594D01*
G01X2072640Y3031998D02*
G01X2078990Y3035046D01*
G01X2085086Y3041396D01*
G01X2088134Y3047492D01*
G01X2088134Y3059938D01*
G01X2085086Y3066034D01*
G01X2078990Y3072384D01*
G01X2072640Y3075432D01*
G01X2063496Y3078480D01*
G01X2048002Y3078480D01*
G01X2038604Y3075432D01*
G01X2032508Y3072384D01*
G01X2026158Y3066034D01*
G01X2023110Y3059938D01*
G01X2023110Y3047492D01*
G01X2026158Y3041396D01*
G01X2032508Y3035046D01*
G01X2038604Y3031998D01*
G01X2075688Y3001772D02*
G01X2078990Y2995676D01*
G01X2088134Y2986532D01*
G01X2023110Y2986532D01*
G01X2078990Y2919222D02*
G01X2085086Y2922270D01*
G01X2088134Y2931668D01*
G01X2088134Y2937764D01*
G01X2085086Y2947162D01*
G01X2075688Y2953258D01*
G01X2060448Y2956306D01*
G01X2044954Y2956306D01*
G01X2032508Y2953258D01*
G01X2026158Y2947162D01*
G01X2023110Y2937764D01*
G01X2023110Y2934716D01*
G01X2026158Y2925572D01*
G01X2032508Y2919222D01*
G01X2041652Y2916174D01*
G01X2044954Y2916174D01*
G01X2054098Y2919222D01*
G01X2060448Y2925572D01*
G01X2063496Y2934716D01*
G01X2063496Y2937764D01*
G01X2060448Y2947162D01*
G01X2054098Y2953258D01*
G01X2044954Y2956306D01*
G01X768266Y2275906D02*
G01X833290Y2275906D01*
G01X768266Y2319340D02*
G01X833290Y2319340D01*
G01X799254Y2275906D02*
G01X799254Y2319340D01*
G01X768266Y2392746D02*
G01X833290Y2361758D01*
G01X768266Y2349566D02*
G01X768266Y2392746D01*
G01X2344420Y805434D02*
G01X2344420Y740410D01*
G01X2387854Y805434D02*
G01X2387854Y740410D01*
G01X2344420Y774446D02*
G01X2387854Y774446D01*
G01X2433320Y805434D02*
G01X2424176Y802386D01*
G01X2421128Y796290D01*
G01X2421128Y789940D01*
G01X2424176Y783844D01*
G01X2430272Y780796D01*
G01X2442718Y777748D01*
G01X2452116Y774446D01*
G01X2458212Y768350D01*
G01X2461260Y762254D01*
G01X2461260Y752856D01*
G01X2458212Y746760D01*
G01X2455164Y743458D01*
G01X2445766Y740410D01*
G01X2433320Y740410D01*
G01X2424176Y743458D01*
G01X2421128Y746760D01*
G01X2418080Y752856D01*
G01X2418080Y762254D01*
G01X2421128Y768350D01*
G01X2427224Y774446D01*
G01X2436622Y777748D01*
G01X2448814Y780796D01*
G01X2455164Y783844D01*
G01X2458212Y789940D01*
G01X2458212Y796290D01*
G01X2455164Y802386D01*
G01X2445766Y805434D01*
G01X2433320Y805434D01*
G36*
G01X2205990Y3820287D02*
G01X2205990Y3789934D01*
G01X2213610Y3789934D01*
G01X2213610Y3815715D01*
G01X2213674Y3835019D01*
G01X2213864Y3841369D01*
G01X2214372Y3840607D01*
G01X2215388Y3838321D01*
G01X2216404Y3836289D01*
G01X2217420Y3834003D01*
G01X2218436Y3831971D01*
G01X2219452Y3829685D01*
G01X2220468Y3827653D01*
G01X2221484Y3825367D01*
G01X2222500Y3823335D01*
G01X2223516Y3821049D01*
G01X2225167Y3817747D01*
G01X2225675Y3816604D01*
G01X2226056Y3815715D01*
G01X2226564Y3814699D01*
G01X2227580Y3812413D01*
G01X2228596Y3810381D01*
G01X2229612Y3808095D01*
G01X2230247Y3807079D01*
G01X2231136Y3806793D01*
G01X2233041Y3806698D01*
G01X2235454Y3806698D01*
G01X2235581Y3807333D01*
G01X2235962Y3808349D01*
G01X2237486Y3811397D01*
G01X2237994Y3812667D01*
G01X2239518Y3815715D01*
G01X2240534Y3818001D01*
G01X2242058Y3821049D01*
G01X2242566Y3822319D01*
G01X2244090Y3825367D01*
G01X2245106Y3827653D01*
G01X2246630Y3830701D01*
G01X2247646Y3832987D01*
G01X2249170Y3836035D01*
G01X2249932Y3837813D01*
G01X2251456Y3840861D01*
G01X2251964Y3841623D01*
G01X2252155Y3835241D01*
G01X2252218Y3815842D01*
G01X2252218Y3789934D01*
G01X2260346Y3789934D01*
G01X2260346Y3850640D01*
G01X2254631Y3850640D01*
G01X2250313Y3850513D01*
G01X2248789Y3850132D01*
G01X2248408Y3849243D01*
G01X2247900Y3848227D01*
G01X2246884Y3845941D01*
G01X2246376Y3844925D01*
G01X2245360Y3842639D01*
G01X2244852Y3841623D01*
G01X2243836Y3839337D01*
G01X2243328Y3838321D01*
G01X2242312Y3836035D01*
G01X2241296Y3834003D01*
G01X2240534Y3832225D01*
G01X2240026Y3831209D01*
G01X2239010Y3828923D01*
G01X2238502Y3827907D01*
G01X2237486Y3825621D01*
G01X2236978Y3824605D01*
G01X2235962Y3822319D01*
G01X2235454Y3821303D01*
G01X2234438Y3819017D01*
G01X2233930Y3818001D01*
G01X2233644Y3817557D01*
G01X2233295Y3817493D01*
G01X2232660Y3818255D01*
G01X2231644Y3820287D01*
G01X2230628Y3822573D01*
G01X2228596Y3826637D01*
G01X2228088Y3827907D01*
G01X2226056Y3831971D01*
G01X2225040Y3834257D01*
G01X2223008Y3838321D01*
G01X2222500Y3839591D01*
G01X2220468Y3843655D01*
G01X2219452Y3845941D01*
G01X2217420Y3850005D01*
G01X2217166Y3850640D01*
G01X2205990Y3850640D01*
G01X2205990Y3820287D01*
G37*
G36*
G01X2167890Y3816731D02*
G01X2167890Y3789934D01*
G01X2176018Y3789934D01*
G01X2176018Y3843528D01*
G01X2197862Y3843528D01*
G01X2197862Y3850640D01*
G01X2146554Y3850640D01*
G01X2146554Y3843528D01*
G01X2167890Y3843528D01*
G01X2167890Y3816731D01*
G37*
G04 Text End*

G04 PolygonModel Start*
G54D11*
G01X1162050Y965197D02*
G01X1022353Y965203D01*
G01X1134445Y673103D02*
G01X1049967Y673103D01*
G01X1181103Y850897D02*
G01X1181103Y774703D01*
G01X1504500Y1970100D02*
G01X1934500Y1970100D01*
G01X1504500Y1930100D02*
G01X1924500Y1930100D01*
G01X1541386Y1705102D02*
G01X1499502Y1705102D01*
G01X1499502Y1705102D02*
G01X1499502Y2435101D01*
G01X1504500Y1950100D02*
G01X1623786Y1950100D01*
G01X1623786Y1950100D02*
G01X1924500Y1950100D01*
G01X1887614Y2435101D02*
G01X1929501Y2435101D01*
G01X1929501Y2435101D02*
G01X1929501Y1705102D01*
G01X1929501Y1705102D02*
G01X1887614Y1705102D01*
G01X1499502Y2435101D02*
G01X1541386Y2435101D01*
G54D12*
G01X1703357Y1224412D02*
G01X1686316Y1224412D01*
G01X1686316Y1224412D02*
G01X1650401Y1188344D01*
G01X1650401Y1188344D02*
G01X1650401Y1175644D01*
G01X2028982Y795409D02*
G01X2081306Y795409D01*
G01X2081306Y795409D02*
G01X2081306Y847987D01*
G01X1703868Y795409D02*
G01X1651287Y795409D01*
G01X1651287Y795409D02*
G01X1651287Y847987D01*
G01X2028982Y1225428D02*
G01X2081306Y1225428D01*
G01X2081306Y1225428D02*
G01X2081306Y1173109D01*
G36*
G01X1613281Y1136043D02*
G02X1638521Y1136043I12620J179D01*
G02X1613281Y1136043I-12620J-179D01*
G37*
G54D10*
G01X1499646Y689861D02*
G01X1499646Y739861D01*
G01X1584124Y674619D02*
G01X1514884Y674619D01*
G01X1599364Y739861D02*
G01X1599364Y689861D01*
G01X1599151Y834139D02*
G01X1599151Y784139D01*
G01X1499438Y784139D02*
G01X1499438Y834139D01*
G01X1514673Y849381D02*
G01X1583916Y849381D01*
G01X1499436Y834139D02*
G02X1514676Y849379I15240J0D01*
G01X1583916Y849379D02*
G02X1599156Y834139I0J-15240D01*
G01X1599364Y689861D02*
G02X1584124Y674621I-15240J0D01*
G01X1514884Y674621D02*
G02X1499644Y689861I0J15240D01*
G01X1561054Y1278639D02*
G01X1561054Y1228639D01*
G01X1476576Y1293881D02*
G01X1545816Y1293881D01*
G01X1461336Y1228639D02*
G01X1461336Y1278639D01*
G01X1461549Y1134361D02*
G01X1461549Y1184361D01*
G01X1561262Y1184361D02*
G01X1561262Y1134361D01*
G01X1546027Y1119119D02*
G01X1476784Y1119119D01*
G01X1561264Y1134361D02*
G02X1546024Y1119121I-15240J0D01*
G01X1476784Y1119121D02*
G02X1461544Y1134361I0J15240D01*
G01X1461336Y1278639D02*
G02X1476576Y1293879I15240J0D01*
G01X1545816Y1293879D02*
G02X1561056Y1278639I0J-15240D01*
G01X1900939Y1423446D02*
G01X1850939Y1423446D01*
G01X1916181Y1507924D02*
G01X1916181Y1438684D01*
G01X1850939Y1523164D02*
G01X1900939Y1523164D01*
G01X1756661Y1522951D02*
G01X1806661Y1522951D01*
G01X1806661Y1423238D02*
G01X1756661Y1423238D01*
G01X1741419Y1438473D02*
G01X1741419Y1507716D01*
G01X1756661Y1423236D02*
G02X1741421Y1438476I0J15240D01*
G01X1741421Y1507716D02*
G02X1756661Y1522956I15240J0D01*
G01X1900939Y1523164D02*
G02X1916179Y1507924I0J-15240D01*
G01X1916179Y1438684D02*
G02X1900939Y1423444I-15240J0D01*
G54D11*
G01X1442557Y695881D02*
G01X1442557Y615884D01*
G01X1442603Y751926D02*
G01X1442603Y831924D01*
G01X1300589Y695881D02*
G01X1300589Y615884D01*
G01X1300637Y751926D02*
G01X1300637Y831924D01*
G01X1411575Y584909D02*
G01X1331570Y584909D01*
G01X1331623Y862902D02*
G01X1411625Y862902D01*
G01X1300637Y831919D02*
G02X1331623Y862902I30983J0D01*
G01X1411620Y862902D02*
G02X1442603Y831919I0J-30983D01*
G01X1442557Y615889D02*
G02X1411575Y584909I-30983J3D01*
G01X1331577Y584909D02*
G02X1300589Y615889I-5J30983D01*
G01X1275243Y1285319D02*
G01X1275243Y1365316D01*
G01X1275197Y1229274D02*
G01X1275197Y1149276D01*
G01X1417211Y1285319D02*
G01X1417211Y1365316D01*
G01X1417163Y1229274D02*
G01X1417163Y1149276D01*
G01X1306225Y1396291D02*
G01X1386230Y1396291D01*
G01X1386177Y1118299D02*
G01X1306175Y1118299D01*
G01X1417163Y1149281D02*
G02X1386177Y1118299I-30983J0D01*
G01X1306180Y1118299D02*
G02X1275197Y1149281I0J30983D01*
G01X1275243Y1365311D02*
G02X1306225Y1396291I30983J-3D01*
G01X1386223Y1396291D02*
G02X1417211Y1365311I5J-30983D01*
G54D10*
G01X867661Y1764254D02*
G01X917661Y1764254D01*
G01X852419Y1679776D02*
G01X852419Y1749016D01*
G01X917661Y1664536D02*
G01X867661Y1664536D01*
G01X1011939Y1664749D02*
G01X961939Y1664749D01*
G01X961939Y1764462D02*
G01X1011939Y1764462D01*
G01X1027181Y1749227D02*
G01X1027181Y1679984D01*
G01X1011939Y1764464D02*
G02X1027179Y1749224I0J-15240D01*
G01X1027179Y1679984D02*
G02X1011939Y1664744I-15240J0D01*
G01X867661Y1664536D02*
G02X852421Y1679776I0J15240D01*
G01X852421Y1749016D02*
G02X867661Y1764256I15240J0D01*
G54D11*
G01X3542099Y1566901D02*
G01X3542099Y2166899D01*
G01X2142101Y1546901D02*
G01X3542099Y1546901D01*
G01X3542099Y1546901D02*
G01X3542099Y1566901D01*
G01X3542099Y1566901D02*
G01X3942098Y1566901D01*
G01X3942098Y1566901D02*
G01X3942098Y2166899D01*
G01X3942098Y2166899D02*
G01X3542099Y2166899D01*
G01X3542099Y2166899D02*
G01X3542099Y2356899D01*
G01X3542099Y2356899D02*
G01X2142101Y2356899D01*
G01X2142101Y2356899D02*
G01X2142101Y1606901D01*
G01X2142101Y1606901D02*
G01X2142101Y1547901D01*
G01X3542099Y2481301D02*
G01X3542099Y3081299D01*
G01X2142101Y2461301D02*
G01X3542099Y2461301D01*
G01X3542099Y2461301D02*
G01X3542099Y2481301D01*
G01X3542099Y2481301D02*
G01X3942098Y2481301D01*
G01X3942098Y2481301D02*
G01X3942098Y3081299D01*
G01X3942098Y3081299D02*
G01X3542099Y3081299D01*
G01X3542099Y3081299D02*
G01X3542099Y3271299D01*
G01X3542099Y3271299D02*
G01X2142101Y3271299D01*
G01X2142101Y3271299D02*
G01X2142101Y2521301D01*
G01X2142101Y2521301D02*
G01X2142101Y2462301D01*
G01X1549400Y3325398D02*
G01X1549400Y3075399D01*
G01X2057298Y3325398D02*
G01X2057298Y3075399D01*
G01X1295400Y3325398D02*
G01X2057298Y3325398D01*
G01X1295400Y3075399D02*
G01X1295400Y3325398D01*
G01X2057400Y3075399D02*
G01X1295400Y3075399D01*
G01X3035300Y1221202D02*
G01X3035300Y1471201D01*
G01X2527402Y1221202D02*
G01X2527402Y1471201D01*
G01X3289300Y1221202D02*
G01X2527402Y1221202D01*
G01X3289300Y1471201D02*
G01X3289300Y1221202D01*
G01X2527300Y1471201D02*
G01X3289300Y1471201D01*
G54D13*
G01X1132101Y1942800D02*
G01X1067100Y1942800D01*
G01X1067100Y1942800D02*
G01X1067100Y1892800D01*
G01X1357099Y1942800D02*
G01X1422100Y1942800D01*
G01X1422100Y1942800D02*
G01X1422100Y1892800D01*
G01X1422100Y1637800D02*
G01X1422100Y1587800D01*
G01X1422100Y1587800D02*
G01X1357099Y1587800D01*
G01X1067100Y1637800D02*
G01X1067100Y1587800D01*
G01X1067100Y1587800D02*
G01X1132101Y1587800D01*
G54D14*
G01X1452118Y1605280D02*
G03X1477116Y1605407I12499J127D01*
G03X1452118Y1605534I-12499J0D01*
G54D11*
G01X683181Y830743D02*
G01X603184Y830743D01*
G01X739226Y830697D02*
G01X819224Y830697D01*
G01X683181Y972711D02*
G01X603184Y972711D01*
G01X739226Y972663D02*
G01X819224Y972663D01*
G01X572209Y861725D02*
G01X572209Y941730D01*
G01X850202Y941677D02*
G01X850202Y861675D01*
G01X819219Y972663D02*
G02X850202Y941677I0J-30983D01*
G01X850202Y861680D02*
G02X819219Y830697I-30983J0D01*
G01X603189Y830743D02*
G02X572209Y861725I3J30983D01*
G01X572209Y941723D02*
G02X603189Y972711I30983J5D01*
G54D10*
G01X924321Y1586560D02*
G01X996125Y1586560D01*
G01X996125Y1586560D02*
G01X996125Y1486840D01*
G01X996125Y1486840D02*
G01X924321Y1486840D01*
G01X879079Y1586560D02*
G01X807276Y1586560D01*
G01X807276Y1586560D02*
G01X807276Y1486840D01*
G01X807276Y1486840D02*
G01X879079Y1486840D01*
G01X924321Y1421460D02*
G01X996125Y1421460D01*
G01X996125Y1421460D02*
G01X996125Y1321740D01*
G01X996125Y1321740D02*
G01X924321Y1321740D01*
G01X879079Y1421460D02*
G01X807276Y1421460D01*
G01X807276Y1421460D02*
G01X807276Y1321740D01*
G01X807276Y1321740D02*
G01X879079Y1321740D01*
G01X924321Y1256360D02*
G01X996125Y1256360D01*
G01X996125Y1256360D02*
G01X996125Y1156640D01*
G01X996125Y1156640D02*
G01X924321Y1156640D01*
G01X879079Y1256360D02*
G01X807276Y1256360D01*
G01X807276Y1256360D02*
G01X807276Y1156640D01*
G01X807276Y1156640D02*
G01X879079Y1156640D01*
G54D11*
G01X1534081Y1402243D02*
G01X1454084Y1402243D01*
G01X1590126Y1402197D02*
G01X1670124Y1402197D01*
G01X1534081Y1544211D02*
G01X1454084Y1544211D01*
G01X1590126Y1544163D02*
G01X1670124Y1544163D01*
G01X1423109Y1433225D02*
G01X1423109Y1513230D01*
G01X1701102Y1513177D02*
G01X1701102Y1433175D01*
G01X1670119Y1544163D02*
G02X1701102Y1513177I0J-30983D01*
G01X1701102Y1433180D02*
G02X1670119Y1402197I-30983J0D01*
G01X1454089Y1402243D02*
G02X1423109Y1433225I3J30983D01*
G01X1423109Y1513223D02*
G02X1454089Y1544211I30983J5D01*
G01X612150Y2249086D02*
G01X612150Y2999095D01*
G01X33035Y2247257D02*
G01X613044Y2247257D01*
G01X33035Y2247257D02*
G01X33035Y2997264D01*
G01X33035Y2999095D02*
G01X612150Y2999095D01*
G01X96535Y2308215D02*
G01X96535Y2935595D01*
G01X96535Y2935595D02*
G01X551193Y2935595D01*
G01X35573Y2994015D02*
G01X43193Y2994015D01*
G01X43193Y2994015D02*
G01X104150Y2933057D01*
G01X35573Y2249795D02*
G01X43193Y2249795D01*
G01X43193Y2249795D02*
G01X104150Y2310757D01*
G01X464835Y2247257D02*
G01X464835Y2305672D01*
G01X482615Y2938135D02*
G01X482615Y2996557D01*
G01X609615Y2371715D02*
G01X551193Y2371715D01*
G01X551193Y2935595D02*
G01X551193Y2308215D01*
G01X551193Y2308215D02*
G01X99073Y2308215D01*
G01X99073Y2308215D02*
G01X99073Y2310757D01*
G01X610885Y2449185D02*
G01X552465Y2449185D01*
G01X609615Y2795895D02*
G01X551193Y2795895D01*
G01X610885Y2873365D02*
G01X552465Y2873365D01*
G01X22301Y2125599D02*
G01X22301Y1125601D01*
G01X612297Y1292906D02*
G01X533400Y1292906D01*
G01X612297Y1356406D02*
G01X533400Y1356406D01*
G01X406400Y1225903D02*
G01X406400Y1125604D01*
G01X22299Y1125604D02*
G01X612297Y1125604D01*
G01X612300Y1885478D02*
G01X533400Y1885478D01*
G01X612300Y1947164D02*
G01X533400Y1947164D01*
G01X400741Y2125599D02*
G01X400741Y2025299D01*
G01X612300Y2125599D02*
G01X612300Y1125601D01*
G01X22301Y2125599D02*
G01X612300Y2125599D01*
G54D10*
G01X1909521Y480040D02*
G01X2005409Y480040D01*
G01X2005409Y480040D02*
G01X2005409Y612160D01*
G01X2005409Y612160D02*
G01X1909521Y612160D01*
G01X1824279Y480040D02*
G01X1728391Y480040D01*
G01X1728391Y480040D02*
G01X1728391Y612160D01*
G01X1728391Y612160D02*
G01X1824279Y612160D01*
G01X2631679Y940740D02*
G01X2559876Y940740D01*
G01X2559876Y940740D02*
G01X2559876Y1040460D01*
G01X2559876Y1040460D02*
G01X2631679Y1040460D01*
G01X2676921Y940740D02*
G01X2748725Y940740D01*
G01X2748725Y940740D02*
G01X2748725Y1040460D01*
G01X2748725Y1040460D02*
G01X2676921Y1040460D01*
G01X3197621Y1040460D02*
G01X3269425Y1040460D01*
G01X3269425Y1040460D02*
G01X3269425Y940740D01*
G01X3269425Y940740D02*
G01X3197621Y940740D01*
G01X3152379Y1040460D02*
G01X3080576Y1040460D01*
G01X3080576Y1040460D02*
G01X3080576Y940740D01*
G01X3080576Y940740D02*
G01X3152379Y940740D01*
G01X1980260Y2784079D02*
G01X1980260Y2712276D01*
G01X1980260Y2712276D02*
G01X1880540Y2712276D01*
G01X1880540Y2712276D02*
G01X1880540Y2784079D01*
G01X1980260Y2829321D02*
G01X1980260Y2901125D01*
G01X1980260Y2901125D02*
G01X1880540Y2901125D01*
G01X1880540Y2901125D02*
G01X1880540Y2829321D01*
G01X1472260Y2784079D02*
G01X1472260Y2712276D01*
G01X1472260Y2712276D02*
G01X1372540Y2712276D01*
G01X1372540Y2712276D02*
G01X1372540Y2784079D01*
G01X1472260Y2829321D02*
G01X1472260Y2901125D01*
G01X1472260Y2901125D02*
G01X1372540Y2901125D01*
G01X1372540Y2901125D02*
G01X1372540Y2829321D01*
G01X2980439Y940846D02*
G01X2930439Y940846D01*
G01X2995681Y1025324D02*
G01X2995681Y956084D01*
G01X2930439Y1040564D02*
G01X2980439Y1040564D01*
G01X2836161Y1040351D02*
G01X2886161Y1040351D01*
G01X2886161Y940638D02*
G01X2836161Y940638D01*
G01X2820919Y955873D02*
G01X2820919Y1025116D01*
G01X2836161Y940636D02*
G02X2820921Y955876I0J15240D01*
G01X2820921Y1025116D02*
G02X2836161Y1040356I15240J0D01*
G01X2980439Y1040564D02*
G02X2995679Y1025324I0J-15240D01*
G01X2995679Y956084D02*
G02X2980439Y940844I-15240J0D01*
G01X1604261Y2894554D02*
G01X1654261Y2894554D01*
G01X1589019Y2810076D02*
G01X1589019Y2879316D01*
G01X1654261Y2794836D02*
G01X1604261Y2794836D01*
G01X1748539Y2795049D02*
G01X1698539Y2795049D01*
G01X1698539Y2894762D02*
G01X1748539Y2894762D01*
G01X1763781Y2879527D02*
G01X1763781Y2810284D01*
G01X1748539Y2894764D02*
G02X1763779Y2879524I0J-15240D01*
G01X1763779Y2810284D02*
G02X1748539Y2795044I-15240J0D01*
G01X1604261Y2794836D02*
G02X1589021Y2810076I0J15240D01*
G01X1589021Y2879316D02*
G02X1604261Y2894556I15240J0D01*
G01X2170760Y485379D02*
G01X2170760Y413576D01*
G01X2170760Y413576D02*
G01X2071040Y413576D01*
G01X2071040Y413576D02*
G01X2071040Y485379D01*
G01X2170760Y530621D02*
G01X2170760Y602425D01*
G01X2170760Y602425D02*
G01X2071040Y602425D01*
G01X2071040Y602425D02*
G01X2071040Y530621D01*
G01X1446754Y2142239D02*
G01X1446754Y2092239D01*
G01X1362276Y2157481D02*
G01X1431516Y2157481D01*
G01X1347036Y2092239D02*
G01X1347036Y2142239D01*
G01X1347249Y1997961D02*
G01X1347249Y2047961D01*
G01X1446962Y2047961D02*
G01X1446962Y1997961D01*
G01X1431727Y1982719D02*
G01X1362484Y1982719D01*
G01X1446964Y1997961D02*
G02X1431724Y1982721I-15240J0D01*
G01X1362484Y1982721D02*
G02X1347244Y1997961I0J15240D01*
G01X1347036Y2142239D02*
G02X1362276Y2157479I15240J0D01*
G01X1431516Y2157479D02*
G02X1446756Y2142239I0J-15240D01*
G01X2632961Y1180054D02*
G01X2682961Y1180054D01*
G01X2617719Y1095576D02*
G01X2617719Y1164816D01*
G01X2682961Y1080336D02*
G01X2632961Y1080336D01*
G01X2777239Y1080549D02*
G01X2727239Y1080549D01*
G01X2727239Y1180262D02*
G01X2777239Y1180262D01*
G01X2792481Y1165027D02*
G01X2792481Y1095784D01*
G01X2777239Y1180264D02*
G02X2792479Y1165024I0J-15240D01*
G01X2792479Y1095784D02*
G02X2777239Y1080544I-15240J0D01*
G01X2632961Y1080336D02*
G02X2617721Y1095576I0J15240D01*
G01X2617721Y1164816D02*
G02X2632961Y1180056I15240J0D01*
G01X3196339Y1080546D02*
G01X3146339Y1080546D01*
G01X3211581Y1165024D02*
G01X3211581Y1095784D01*
G01X3146339Y1180264D02*
G01X3196339Y1180264D01*
G01X3052061Y1180051D02*
G01X3102061Y1180051D01*
G01X3102061Y1080338D02*
G01X3052061Y1080338D01*
G01X3036819Y1095573D02*
G01X3036819Y1164816D01*
G01X3052061Y1080336D02*
G02X3036821Y1095576I0J15240D01*
G01X3036821Y1164816D02*
G02X3052061Y1180056I15240J0D01*
G01X3196339Y1180264D02*
G02X3211579Y1165024I0J-15240D01*
G01X3211579Y1095784D02*
G02X3196339Y1080544I-15240J0D01*
G01X1388361Y3034254D02*
G01X1438361Y3034254D01*
G01X1373119Y2949776D02*
G01X1373119Y3019016D01*
G01X1438361Y2934536D02*
G01X1388361Y2934536D01*
G01X1532639Y2934749D02*
G01X1482639Y2934749D01*
G01X1482639Y3034462D02*
G01X1532639Y3034462D01*
G01X1547881Y3019227D02*
G01X1547881Y2949984D01*
G01X1532639Y3034464D02*
G02X1547879Y3019224I0J-15240D01*
G01X1547879Y2949984D02*
G02X1532639Y2934744I-15240J0D01*
G01X1388361Y2934536D02*
G02X1373121Y2949776I0J15240D01*
G01X1373121Y3019016D02*
G02X1388361Y3034256I15240J0D01*
G01X1964439Y2934746D02*
G01X1914439Y2934746D01*
G01X1979681Y3019224D02*
G01X1979681Y2949984D01*
G01X1914439Y3034464D02*
G01X1964439Y3034464D01*
G01X1820161Y3034251D02*
G01X1870161Y3034251D01*
G01X1870161Y2934538D02*
G01X1820161Y2934538D01*
G01X1804919Y2949773D02*
G01X1804919Y3019016D01*
G01X1820161Y2934536D02*
G02X1804921Y2949776I0J15240D01*
G01X1804921Y3019016D02*
G02X1820161Y3034256I15240J0D01*
G01X1964439Y3034464D02*
G02X1979679Y3019224I0J-15240D01*
G01X1979679Y2949984D02*
G02X1964439Y2934744I-15240J0D01*
G54D11*
G01X887900Y2534986D02*
G01X1137900Y2534986D01*
G01X887900Y3042885D02*
G01X1137900Y3042885D01*
G01X887900Y2280986D02*
G01X887900Y3042885D01*
G01X1137900Y2280986D02*
G01X887900Y2280986D01*
G01X1137900Y3042986D02*
G01X1137900Y2280986D01*
G01X2730500Y446502D02*
G01X2730500Y696501D01*
G01X2222602Y446502D02*
G01X2222602Y696501D01*
G01X2984500Y446502D02*
G01X2222602Y446502D01*
G01X2984500Y696501D02*
G01X2984500Y446502D01*
G01X2222500Y696501D02*
G01X2984500Y696501D01*

G04 Rect Start*
G01X101600Y2024596D02*
G01X533400Y2024596D01*
G01X533400Y1231887D01*
G01X101600Y1231887D01*
G01X101600Y2024596D01*
G04 Rect End*

G04 Circle Start*
G54D16*
G01X876198Y908822D02*
G03X906221Y908822I15011J0D01*
G03X876198Y908822I-15011J0D01*
G04 Circle End*

M02*

