G04 Layer: BottomLayer*
G04 EasyEDA Pro v2.2.47.7, 2026-07-21 15:34:32*
G04 Gerber Generator version 0.3*
G04 Scale: 100 percent, Rotated: No, Reflected: No*
G04 Dimensions in millimeters*
G04 Leading zeros omitted, absolute positions, 4 integers and 5 decimals*
G04 Generated by one-click*
G04 Object Configs: Pad,Via,Track,Text,Image,Dimension,BoardOutline,BoardCutout,CopperFilled,SolidRegion,FPCStiffener,Line,PlaneZone,ComponentProperty,ComponentSilkscreen,TearDrop*
G04 Layer Configs: 1,2,3,4,5,6,7,8,9,10,11,13,14,56*
G04 Copper Areas: 44*
%FSLAX45Y45*%
%MOMM*%
%ADD10C,0.3048*%
%ADD11C,0.2286*%
%ADD12C,3.51536*%
%ADD13O,1.5X3.49999*%
%ADD14R,1.7X1.7*%
%ADD15C,1.7*%
%ADD16C,1.69926*%
%ADD17C,1.5029*%
%ADD18C,1.5*%
%ADD19R,1.5X1.5*%
%ADD20C,0.61*%
%ADD21C,0.5*%
%ADD22C,0.254*%
G75*


G04 Copper Start*
G36*
G01X66294Y3732425D02*
G01X68292Y3757816D01*
G01X74238Y3782581D01*
G01X83984Y3806111D01*
G01X97292Y3827826D01*
G01X113832Y3847193D01*
G01X133199Y3863734D01*
G01X154915Y3877041D01*
G01X178445Y3886788D01*
G01X203210Y3892733D01*
G01X228600Y3894731D01*
G01X3403600Y3894731D01*
G01X3428990Y3892733D01*
G01X3453755Y3886788D01*
G01X3477285Y3877041D01*
G01X3499001Y3863734D01*
G01X3518368Y3847193D01*
G01X3534908Y3827826D01*
G01X3548216Y3806111D01*
G01X3557962Y3782581D01*
G01X3563908Y3757816D01*
G01X3565906Y3732425D01*
G01X3565906Y508000D01*
G01X3563908Y482610D01*
G01X3557962Y457845D01*
G01X3548216Y434315D01*
G01X3534908Y412599D01*
G01X3518368Y393232D01*
G01X3499001Y376692D01*
G01X3477285Y363384D01*
G01X3453755Y353638D01*
G01X3428990Y347692D01*
G01X3403600Y345694D01*
G01X228600Y345694D01*
G01X203210Y347692D01*
G01X178445Y353638D01*
G01X154915Y363384D01*
G01X133199Y376692D01*
G01X113832Y393232D01*
G01X97292Y412599D01*
G01X83984Y434315D01*
G01X74238Y457845D01*
G01X68292Y482610D01*
G01X66294Y508000D01*
G01X66294Y596900D01*
G01X113538Y596900D01*
G01X115556Y567398D01*
G01X121572Y538445D01*
G01X131475Y510582D01*
G01X145080Y484326D01*
G01X162133Y460167D01*
G01X182317Y438556D01*
G01X205255Y419894D01*
G01X230521Y404529D01*
G01X257644Y392748D01*
G01X286119Y384770D01*
G01X315414Y380743D01*
G01X344986Y380743D01*
G01X374281Y384770D01*
G01X402756Y392748D01*
G01X429879Y404529D01*
G01X455145Y419894D01*
G01X478083Y438556D01*
G01X498267Y460167D01*
G01X515320Y484326D01*
G01X528925Y510582D01*
G01X538828Y538445D01*
G01X544844Y567398D01*
G01X546862Y596900D01*
G01X544844Y626402D01*
G01X538828Y655355D01*
G01X528925Y683218D01*
G01X515320Y709474D01*
G01X498267Y733633D01*
G01X478083Y755244D01*
G01X455145Y773906D01*
G01X451963Y775841D01*
G01X1396383Y775841D01*
G01X1399064Y760402D01*
G01X1405048Y745920D01*
G01X1414047Y733092D01*
G01X1414047Y729459D01*
G01X1415873Y715588D01*
G01X1421227Y702662D01*
G01X1429744Y691563D01*
G01X1613103Y508203D01*
G01X1619905Y502449D01*
G01X1630566Y491361D01*
G01X1643355Y482814D01*
G01X1657677Y477205D01*
G01X1672869Y474793D01*
G01X1688224Y475692D01*
G01X1703031Y479859D01*
G01X1716602Y487100D01*
G01X1728306Y497081D01*
G01X1737601Y509337D01*
G01X1744055Y523299D01*
G01X1747369Y538320D01*
G01X1747388Y553701D01*
G01X1744112Y568730D01*
G01X1737694Y582709D01*
G01X1728430Y594988D01*
G01X1716750Y604998D01*
G01X1703198Y612274D01*
G01X1688402Y616478D01*
G01X1673049Y617415D01*
G01X1657851Y615042D01*
G01X1551417Y721476D01*
G01X1922547Y721476D01*
G01X1924965Y705325D01*
G01X1930989Y690145D01*
G01X1940306Y676732D01*
G01X1940306Y584200D01*
G01X1942132Y570329D01*
G01X1947486Y557403D01*
G01X1956003Y546303D01*
G01X1960751Y541556D01*
G01X1963490Y526014D01*
G01X1969576Y511454D01*
G01X1978712Y498586D01*
G01X1990453Y488040D01*
G01X2004223Y480331D01*
G01X2019350Y475836D01*
G01X2035096Y474773D01*
G01X2050690Y477196D01*
G01X2065371Y482985D01*
G01X2078421Y491858D01*
G01X2089204Y503382D01*
G01X2097191Y516992D01*
G01X2101993Y532025D01*
G01X2103375Y547746D01*
G01X2101270Y563386D01*
G01X2098259Y571500D01*
G01X2223606Y571500D01*
G01X2225519Y549639D01*
G01X2231198Y528442D01*
G01X2240473Y508553D01*
G01X2253060Y490577D01*
G01X2268577Y475060D01*
G01X2286553Y462473D01*
G01X2306442Y453198D01*
G01X2327639Y447519D01*
G01X2349500Y445606D01*
G01X2371361Y447519D01*
G01X2392558Y453198D01*
G01X2412447Y462473D01*
G01X2430423Y475060D01*
G01X2445940Y490577D01*
G01X2458527Y508553D01*
G01X2467802Y528442D01*
G01X2473481Y549639D01*
G01X2475394Y571500D01*
G01X2475394Y571500D01*
G01X2477606Y571500D01*
G01X2479519Y549639D01*
G01X2485198Y528442D01*
G01X2494473Y508553D01*
G01X2507060Y490577D01*
G01X2522577Y475060D01*
G01X2540553Y462473D01*
G01X2560442Y453198D01*
G01X2581639Y447519D01*
G01X2603500Y445606D01*
G01X2625361Y447519D01*
G01X2646558Y453198D01*
G01X2666447Y462473D01*
G01X2684423Y475060D01*
G01X2699940Y490577D01*
G01X2712527Y508553D01*
G01X2721802Y528442D01*
G01X2727481Y549639D01*
G01X2729394Y571500D01*
G01X2729394Y571500D01*
G01X2727481Y593361D01*
G01X2721802Y614558D01*
G01X2712527Y634447D01*
G01X2699940Y652423D01*
G01X2695863Y656500D01*
G01X2731606Y656500D01*
G01X2731606Y486500D01*
G01X2733608Y473863D01*
G01X2739416Y462463D01*
G01X2748463Y453416D01*
G01X2759863Y447608D01*
G01X2772500Y445606D01*
G01X2942500Y445606D01*
G01X2955137Y447608D01*
G01X2966537Y453416D01*
G01X2975584Y462463D01*
G01X2981392Y473863D01*
G01X2983394Y486500D01*
G01X2983394Y596900D01*
G01X3085338Y596900D01*
G01X3087356Y567398D01*
G01X3093372Y538445D01*
G01X3103275Y510582D01*
G01X3116880Y484326D01*
G01X3133933Y460167D01*
G01X3154117Y438556D01*
G01X3177055Y419894D01*
G01X3202321Y404529D01*
G01X3229444Y392748D01*
G01X3257919Y384770D01*
G01X3287214Y380743D01*
G01X3316786Y380743D01*
G01X3346081Y384770D01*
G01X3374556Y392748D01*
G01X3401679Y404529D01*
G01X3426945Y419894D01*
G01X3449883Y438556D01*
G01X3470067Y460167D01*
G01X3487120Y484326D01*
G01X3500725Y510582D01*
G01X3510628Y538445D01*
G01X3516644Y567398D01*
G01X3518662Y596900D01*
G01X3516644Y626402D01*
G01X3510628Y655355D01*
G01X3500725Y683218D01*
G01X3487120Y709474D01*
G01X3470067Y733633D01*
G01X3449883Y755244D01*
G01X3426945Y773906D01*
G01X3401679Y789271D01*
G01X3374556Y801052D01*
G01X3346081Y809030D01*
G01X3316786Y813057D01*
G01X3287214Y813057D01*
G01X3257919Y809030D01*
G01X3229444Y801052D01*
G01X3202321Y789271D01*
G01X3177055Y773906D01*
G01X3154117Y755244D01*
G01X3133933Y733633D01*
G01X3116880Y709474D01*
G01X3103275Y683218D01*
G01X3093372Y655355D01*
G01X3087356Y626402D01*
G01X3085338Y596900D01*
G01X3085338Y596900D01*
G01X2983394Y596900D01*
G01X2983394Y656500D01*
G01X2981392Y669137D01*
G01X2975584Y680537D01*
G01X2966537Y689584D01*
G01X2955137Y695392D01*
G01X2942500Y697394D01*
G01X2772500Y697394D01*
G01X2772500Y697394D01*
G01X2759863Y695392D01*
G01X2748463Y689584D01*
G01X2739416Y680537D01*
G01X2733608Y669137D01*
G01X2731606Y656500D01*
G01X2695863Y656500D01*
G01X2684423Y667940D01*
G01X2666447Y680527D01*
G01X2646558Y689802D01*
G01X2625361Y695481D01*
G01X2603500Y697394D01*
G01X2581639Y695481D01*
G01X2560442Y689802D01*
G01X2540553Y680527D01*
G01X2522577Y667940D01*
G01X2507060Y652423D01*
G01X2494473Y634447D01*
G01X2485198Y614558D01*
G01X2479519Y593361D01*
G01X2477606Y571500D01*
G01X2475394Y571500D01*
G01X2473481Y593361D01*
G01X2467802Y614558D01*
G01X2458527Y634447D01*
G01X2445940Y652423D01*
G01X2430423Y667940D01*
G01X2412447Y680527D01*
G01X2392558Y689802D01*
G01X2371361Y695481D01*
G01X2349500Y697394D01*
G01X2327639Y695481D01*
G01X2306442Y689802D01*
G01X2286553Y680527D01*
G01X2268577Y667940D01*
G01X2253060Y652423D01*
G01X2240473Y634447D01*
G01X2231198Y614558D01*
G01X2225519Y593361D01*
G01X2223606Y571500D01*
G01X2098259Y571500D01*
G01X2095780Y578182D01*
G01X2087174Y591410D01*
G01X2075872Y602424D01*
G01X2062426Y610686D01*
G01X2047494Y615793D01*
G01X2047494Y676732D01*
G01X2047494Y676732D01*
G01X2056811Y690145D01*
G01X2062835Y705325D01*
G01X2065253Y721476D01*
G01X2063937Y737754D01*
G01X2058956Y753308D01*
G01X2050571Y767322D01*
G01X2039221Y779064D01*
G01X2025499Y787920D01*
G01X2010124Y793426D01*
G01X1993900Y795294D01*
G01X1977676Y793426D01*
G01X1962301Y787920D01*
G01X1948579Y779064D01*
G01X1937229Y767322D01*
G01X1928844Y753308D01*
G01X1923863Y737754D01*
G01X1922547Y721476D01*
G01X1551417Y721476D01*
G01X1529049Y743844D01*
G01X1529049Y743844D01*
G01X1535515Y758118D01*
G01X1538710Y773459D01*
G01X1538482Y789127D01*
G01X1534841Y804368D01*
G01X1527963Y818448D01*
G01X1518179Y830688D01*
G01X1505960Y840498D01*
G01X1491895Y847407D01*
G01X1476662Y851081D01*
G01X1460995Y851343D01*
G01X1445647Y848181D01*
G01X1431359Y841747D01*
G01X1418819Y832351D01*
G01X1408630Y820445D01*
G01X1401285Y806604D01*
G01X1397136Y791493D01*
G01X1396383Y775841D01*
G01X451963Y775841D01*
G01X429879Y789271D01*
G01X402756Y801052D01*
G01X374281Y809030D01*
G01X344986Y813057D01*
G01X315414Y813057D01*
G01X286119Y809030D01*
G01X257644Y801052D01*
G01X230521Y789271D01*
G01X205255Y773906D01*
G01X182317Y755244D01*
G01X162133Y733633D01*
G01X145080Y709474D01*
G01X131475Y683218D01*
G01X121572Y655355D01*
G01X115556Y626402D01*
G01X113538Y596900D01*
G01X113538Y596900D01*
G01X66294Y596900D01*
G01X66294Y1386294D01*
G01X252901Y1386294D01*
G01X252901Y1364907D01*
G01X256830Y1343885D01*
G01X264556Y1323942D01*
G01X275815Y1305759D01*
G01X290223Y1289954D01*
G01X307290Y1277066D01*
G01X326434Y1267533D01*
G01X347005Y1261680D01*
G01X368300Y1259707D01*
G01X389595Y1261680D01*
G01X410166Y1267533D01*
G01X429310Y1277066D01*
G01X446377Y1289954D01*
G01X460785Y1305759D01*
G01X472044Y1323942D01*
G01X479770Y1343885D01*
G01X483699Y1364907D01*
G01X483699Y1386294D01*
G01X479770Y1407316D01*
G01X472044Y1427259D01*
G01X460785Y1445442D01*
G01X446377Y1461247D01*
G01X429310Y1474135D01*
G01X410166Y1483668D01*
G01X389595Y1489521D01*
G01X368300Y1491494D01*
G01X368300Y1491494D01*
G01X347005Y1489521D01*
G01X326434Y1483668D01*
G01X307290Y1474135D01*
G01X290223Y1461247D01*
G01X275815Y1445442D01*
G01X264556Y1427259D01*
G01X256830Y1407316D01*
G01X252901Y1386294D01*
G01X66294Y1386294D01*
G01X66294Y1636281D01*
G01X252901Y1636281D01*
G01X252901Y1614894D01*
G01X256830Y1593871D01*
G01X264556Y1573929D01*
G01X275815Y1555746D01*
G01X290223Y1539941D01*
G01X307290Y1527052D01*
G01X326434Y1517520D01*
G01X347005Y1511667D01*
G01X368300Y1509693D01*
G01X389595Y1511667D01*
G01X410166Y1517520D01*
G01X429310Y1527052D01*
G01X446377Y1539941D01*
G01X460785Y1555746D01*
G01X472044Y1573929D01*
G01X479770Y1593871D01*
G01X483699Y1614894D01*
G01X483699Y1636281D01*
G01X479770Y1657303D01*
G01X472044Y1677246D01*
G01X460785Y1695429D01*
G01X446377Y1711234D01*
G01X429310Y1724122D01*
G01X410166Y1733655D01*
G01X389595Y1739508D01*
G01X368300Y1741481D01*
G01X368300Y1741481D01*
G01X347005Y1739508D01*
G01X326434Y1733655D01*
G01X307290Y1724122D01*
G01X290223Y1711234D01*
G01X275815Y1695429D01*
G01X264556Y1677246D01*
G01X256830Y1657303D01*
G01X252901Y1636281D01*
G01X66294Y1636281D01*
G01X66294Y1800600D01*
G01X252406Y1800600D01*
G01X254408Y1787963D01*
G01X260216Y1776563D01*
G01X269263Y1767516D01*
G01X280663Y1761707D01*
G01X293300Y1759706D01*
G01X443300Y1759706D01*
G01X455937Y1761707D01*
G01X467337Y1767516D01*
G01X476384Y1776563D01*
G01X482192Y1787963D01*
G01X484194Y1800600D01*
G01X484194Y1950599D01*
G01X482192Y1963236D01*
G01X476384Y1974636D01*
G01X467337Y1983683D01*
G01X455937Y1989492D01*
G01X443300Y1991493D01*
G01X293300Y1991493D01*
G01X280663Y1989492D01*
G01X269263Y1983683D01*
G01X260216Y1974636D01*
G01X254408Y1963236D01*
G01X252406Y1950599D01*
G01X252406Y1800600D01*
G01X252406Y1800600D01*
G01X66294Y1800600D01*
G01X66294Y2495398D01*
G01X242516Y2495398D01*
G01X243749Y2473018D01*
G01X248933Y2451212D01*
G01X257902Y2430671D01*
G01X270372Y2412047D01*
G01X285948Y2395931D01*
G01X304136Y2382832D01*
G01X324359Y2373168D01*
G01X345976Y2367244D01*
G01X368300Y2365248D01*
G01X390624Y2367244D01*
G01X412241Y2373168D01*
G01X432464Y2382832D01*
G01X450652Y2395931D01*
G01X466228Y2412047D01*
G01X478698Y2430671D01*
G01X487667Y2451212D01*
G01X492851Y2473018D01*
G01X494084Y2495398D01*
G01X491328Y2517641D01*
G01X484670Y2539043D01*
G01X474321Y2558924D01*
G01X460610Y2576655D01*
G01X443972Y2591672D01*
G01X424933Y2603500D01*
G01X404098Y2611763D01*
G01X382128Y2616200D01*
G01X402252Y2620104D01*
G01X421475Y2627223D01*
G01X439287Y2637368D01*
G01X455216Y2650270D01*
G01X468839Y2665586D01*
G01X479796Y2682911D01*
G01X606806Y2555901D01*
G01X606806Y1113968D01*
G01X597489Y1100555D01*
G01X591465Y1085375D01*
G01X589047Y1069224D01*
G01X590363Y1052946D01*
G01X595344Y1037392D01*
G01X603729Y1023378D01*
G01X615079Y1011636D01*
G01X628801Y1002780D01*
G01X644176Y997274D01*
G01X660400Y995406D01*
G01X676624Y997274D01*
G01X691999Y1002780D01*
G01X705721Y1011636D01*
G01X717071Y1023378D01*
G01X725456Y1037392D01*
G01X730437Y1052946D01*
G01X731753Y1069224D01*
G01X729335Y1085375D01*
G01X723311Y1100555D01*
G01X713994Y1113968D01*
G01X713994Y1534276D01*
G01X982747Y1534276D01*
G01X985165Y1518125D01*
G01X991189Y1502945D01*
G01X1000506Y1489532D01*
G01X1000506Y1168400D01*
G01X1002332Y1154529D01*
G01X1007686Y1141603D01*
G01X1016203Y1130503D01*
G01X1181303Y965403D01*
G01X1181303Y965403D01*
G01X1192403Y956886D01*
G01X1205329Y951532D01*
G01X1219200Y949706D01*
G01X1349832Y949706D01*
G01X1363245Y940389D01*
G01X1378425Y934365D01*
G01X1394576Y931947D01*
G01X1410854Y933263D01*
G01X1426408Y938244D01*
G01X1440422Y946629D01*
G01X1452164Y957979D01*
G01X1461020Y971701D01*
G01X1466526Y987076D01*
G01X1468394Y1003300D01*
G01X1466526Y1019524D01*
G01X1461020Y1034899D01*
G01X1452164Y1048621D01*
G01X1440422Y1059971D01*
G01X1426408Y1068356D01*
G01X1410854Y1073337D01*
G01X1394576Y1074653D01*
G01X1378425Y1072235D01*
G01X1363245Y1066211D01*
G01X1349832Y1056894D01*
G01X1241399Y1056894D01*
G01X1107694Y1190599D01*
G01X1107694Y1318376D01*
G01X1117347Y1318376D01*
G01X1119765Y1302225D01*
G01X1125790Y1287045D01*
G01X1135106Y1273632D01*
G01X1135106Y1224300D01*
G01X1136932Y1210429D01*
G01X1142286Y1197503D01*
G01X1150804Y1186403D01*
G01X1232103Y1105103D01*
G01X1232103Y1105103D01*
G01X1243203Y1096586D01*
G01X1256129Y1091232D01*
G01X1270000Y1089406D01*
G01X1425601Y1089406D01*
G01X1508506Y1006501D01*
G01X1508506Y986096D01*
G01X1499189Y972683D01*
G01X1493165Y957503D01*
G01X1490747Y941352D01*
G01X1492063Y925074D01*
G01X1497044Y909520D01*
G01X1505429Y895506D01*
G01X1516779Y883764D01*
G01X1530501Y874908D01*
G01X1545876Y869402D01*
G01X1562100Y867534D01*
G01X1578324Y869402D01*
G01X1593699Y874908D01*
G01X1607421Y883764D01*
G01X1618771Y895506D01*
G01X1627156Y909520D01*
G01X1632137Y925074D01*
G01X1633453Y941352D01*
G01X1631035Y957503D01*
G01X1625011Y972683D01*
G01X1615694Y986096D01*
G01X1615694Y1028700D01*
G01X1613868Y1042571D01*
G01X1608514Y1055497D01*
G01X1599997Y1066597D01*
G01X1485697Y1180897D01*
G01X1474597Y1189414D01*
G01X1461671Y1194768D01*
G01X1447800Y1196594D01*
G01X1292199Y1196594D01*
G01X1242294Y1246499D01*
G01X1242294Y1273632D01*
G01X1251611Y1287045D01*
G01X1257635Y1302225D01*
G01X1260053Y1318376D01*
G01X1258737Y1334654D01*
G01X1253756Y1350208D01*
G01X1245371Y1364222D01*
G01X1234021Y1375964D01*
G01X1220300Y1384820D01*
G01X1204924Y1390326D01*
G01X1188700Y1392194D01*
G01X1172476Y1390326D01*
G01X1157101Y1384820D01*
G01X1143379Y1375964D01*
G01X1132029Y1364222D01*
G01X1123644Y1350208D01*
G01X1118663Y1334654D01*
G01X1117347Y1318376D01*
G01X1107694Y1318376D01*
G01X1107694Y1489532D01*
G01X1117011Y1502945D01*
G01X1123035Y1518125D01*
G01X1125453Y1534276D01*
G01X1124137Y1550554D01*
G01X1119156Y1566108D01*
G01X1110771Y1580122D01*
G01X1099421Y1591864D01*
G01X1085699Y1600720D01*
G01X1070324Y1606226D01*
G01X1054100Y1608094D01*
G01X1037876Y1606226D01*
G01X1022501Y1600720D01*
G01X1008779Y1591864D01*
G01X997429Y1580122D01*
G01X989044Y1566108D01*
G01X984063Y1550554D01*
G01X982747Y1534276D01*
G01X713994Y1534276D01*
G01X713994Y1822313D01*
G01X1424961Y1822313D01*
G01X1428260Y1806432D01*
G01X1435059Y1791706D01*
G01X1445006Y1778894D01*
G01X1445006Y1765300D01*
G01X1446832Y1751429D01*
G01X1452186Y1738503D01*
G01X1460703Y1727403D01*
G01X1737106Y1451001D01*
G01X1737106Y1451001D01*
G01X1737106Y1406068D01*
G01X1727789Y1392655D01*
G01X1721765Y1377475D01*
G01X1719347Y1361324D01*
G01X1720663Y1345046D01*
G01X1725644Y1329492D01*
G01X1734029Y1315478D01*
G01X1745379Y1303736D01*
G01X1759101Y1294880D01*
G01X1774476Y1289374D01*
G01X1790700Y1287506D01*
G01X1806924Y1289374D01*
G01X1822299Y1294880D01*
G01X1836021Y1303736D01*
G01X1847371Y1315478D01*
G01X1855756Y1329492D01*
G01X1860737Y1345046D01*
G01X1860830Y1346200D01*
G01X2528406Y1346200D01*
G01X2530319Y1324339D01*
G01X2535998Y1303142D01*
G01X2545273Y1283253D01*
G01X2557860Y1265277D01*
G01X2573377Y1249760D01*
G01X2591353Y1237173D01*
G01X2611242Y1227898D01*
G01X2632439Y1222219D01*
G01X2654300Y1220306D01*
G01X2676161Y1222219D01*
G01X2697358Y1227898D01*
G01X2717247Y1237173D01*
G01X2735223Y1249760D01*
G01X2750740Y1265277D01*
G01X2763327Y1283253D01*
G01X2772602Y1303142D01*
G01X2778281Y1324339D01*
G01X2780194Y1346200D01*
G01X2780194Y1346200D01*
G01X2782406Y1346200D01*
G01X2784319Y1324339D01*
G01X2789998Y1303142D01*
G01X2799273Y1283253D01*
G01X2811860Y1265277D01*
G01X2827377Y1249760D01*
G01X2845353Y1237173D01*
G01X2865242Y1227898D01*
G01X2886439Y1222219D01*
G01X2908300Y1220306D01*
G01X2930161Y1222219D01*
G01X2951358Y1227898D01*
G01X2971247Y1237173D01*
G01X2989223Y1249760D01*
G01X3004740Y1265277D01*
G01X3017327Y1283253D01*
G01X3026602Y1303142D01*
G01X3032281Y1324339D01*
G01X3034194Y1346200D01*
G01X3034194Y1346200D01*
G01X3032281Y1368061D01*
G01X3026602Y1389258D01*
G01X3017327Y1409147D01*
G01X3004740Y1427123D01*
G01X3000663Y1431200D01*
G01X3036406Y1431200D01*
G01X3036406Y1261200D01*
G01X3038408Y1248563D01*
G01X3044216Y1237163D01*
G01X3053263Y1228116D01*
G01X3064663Y1222308D01*
G01X3077300Y1220306D01*
G01X3247300Y1220306D01*
G01X3259937Y1222308D01*
G01X3271337Y1228116D01*
G01X3280384Y1237163D01*
G01X3286192Y1248563D01*
G01X3288194Y1261200D01*
G01X3288194Y1431200D01*
G01X3286192Y1443837D01*
G01X3280384Y1455237D01*
G01X3271337Y1464284D01*
G01X3259937Y1470092D01*
G01X3247300Y1472094D01*
G01X3077300Y1472094D01*
G01X3077300Y1472094D01*
G01X3064663Y1470092D01*
G01X3053263Y1464284D01*
G01X3044216Y1455237D01*
G01X3038408Y1443837D01*
G01X3036406Y1431200D01*
G01X3000663Y1431200D01*
G01X2989223Y1442640D01*
G01X2971247Y1455227D01*
G01X2951358Y1464502D01*
G01X2930161Y1470181D01*
G01X2908300Y1472094D01*
G01X2886439Y1470181D01*
G01X2865242Y1464502D01*
G01X2845353Y1455227D01*
G01X2827377Y1442640D01*
G01X2811860Y1427123D01*
G01X2799273Y1409147D01*
G01X2789998Y1389258D01*
G01X2784319Y1368061D01*
G01X2782406Y1346200D01*
G01X2780194Y1346200D01*
G01X2778281Y1368061D01*
G01X2772602Y1389258D01*
G01X2763327Y1409147D01*
G01X2750740Y1427123D01*
G01X2735223Y1442640D01*
G01X2717247Y1455227D01*
G01X2697358Y1464502D01*
G01X2676161Y1470181D01*
G01X2654300Y1472094D01*
G01X2632439Y1470181D01*
G01X2611242Y1464502D01*
G01X2591353Y1455227D01*
G01X2573377Y1442640D01*
G01X2557860Y1427123D01*
G01X2545273Y1409147D01*
G01X2535998Y1389258D01*
G01X2530319Y1368061D01*
G01X2528406Y1346200D01*
G01X1860830Y1346200D01*
G01X1862053Y1361324D01*
G01X1859635Y1377475D01*
G01X1853611Y1392655D01*
G01X1844294Y1406068D01*
G01X1844294Y1473200D01*
G01X1842468Y1487071D01*
G01X1837114Y1499997D01*
G01X1828597Y1511097D01*
G01X1553412Y1786281D01*
G01X1561529Y1800324D01*
G01X1566267Y1815836D01*
G01X1567382Y1832018D01*
G01X1564815Y1848033D01*
G01X1558699Y1863056D01*
G01X1549350Y1876310D01*
G01X1537251Y1887113D01*
G01X1523026Y1894906D01*
G01X1507409Y1899286D01*
G01X1491206Y1900029D01*
G01X1475254Y1897095D01*
G01X1460376Y1890636D01*
G01X1447339Y1880986D01*
G01X1436817Y1868642D01*
G01X1429353Y1854242D01*
G01X1425332Y1838528D01*
G01X1424961Y1822313D01*
G01X713994Y1822313D01*
G01X713994Y2066900D01*
G01X2126202Y2066900D01*
G01X2126202Y1866900D01*
G01X2128176Y1845605D01*
G01X2134028Y1825034D01*
G01X2143561Y1805890D01*
G01X2156450Y1788823D01*
G01X2172254Y1774415D01*
G01X2190438Y1763156D01*
G01X2210380Y1755430D01*
G01X2231403Y1751501D01*
G01X2252789Y1751501D01*
G01X2273812Y1755430D01*
G01X2293754Y1763156D01*
G01X2311938Y1774415D01*
G01X2327743Y1788823D01*
G01X2340631Y1805890D01*
G01X2350164Y1825034D01*
G01X2356017Y1845605D01*
G01X2357990Y1866900D01*
G01X2357990Y1866900D01*
G01X2496204Y1866900D01*
G01X2496204Y1666900D01*
G01X2498177Y1645605D01*
G01X2504030Y1625035D01*
G01X2513563Y1605890D01*
G01X2526451Y1588823D01*
G01X2542256Y1574415D01*
G01X2560440Y1563156D01*
G01X2580382Y1555431D01*
G01X2601405Y1551501D01*
G01X2622791Y1551501D01*
G01X2643814Y1555431D01*
G01X2663756Y1563156D01*
G01X2681940Y1574415D01*
G01X2697744Y1588823D01*
G01X2710633Y1605890D01*
G01X2720166Y1625035D01*
G01X2726018Y1645605D01*
G01X2727992Y1666900D01*
G01X2727992Y1666900D01*
G01X3056198Y1666900D01*
G01X3058171Y1645605D01*
G01X3064024Y1625035D01*
G01X3073557Y1605890D01*
G01X3086445Y1588823D01*
G01X3102250Y1574415D01*
G01X3120433Y1563156D01*
G01X3140376Y1555431D01*
G01X3161398Y1551501D01*
G01X3182785Y1551501D01*
G01X3203808Y1555431D01*
G01X3223750Y1563156D01*
G01X3241933Y1574415D01*
G01X3257738Y1588823D01*
G01X3270627Y1605890D01*
G01X3280159Y1625035D01*
G01X3286012Y1645605D01*
G01X3287986Y1666900D01*
G01X3287986Y1666900D01*
G01X3287986Y1866900D01*
G01X3286012Y1888195D01*
G01X3280159Y1908766D01*
G01X3270627Y1927910D01*
G01X3257738Y1944977D01*
G01X3241933Y1959385D01*
G01X3223750Y1970644D01*
G01X3203808Y1978370D01*
G01X3182785Y1982299D01*
G01X3161398Y1982299D01*
G01X3140376Y1978370D01*
G01X3120433Y1970644D01*
G01X3102250Y1959385D01*
G01X3086445Y1944977D01*
G01X3073557Y1927910D01*
G01X3064024Y1908766D01*
G01X3058171Y1888195D01*
G01X3056198Y1866900D01*
G01X3056198Y1666900D01*
G01X2727992Y1666900D01*
G01X2727992Y1777789D01*
G01X2744557Y1766295D01*
G01X2762863Y1757846D01*
G01X2782357Y1752698D01*
G01X2802448Y1751007D01*
G01X2822528Y1752823D01*
G01X2841990Y1758091D01*
G01X2860243Y1766653D01*
G01X2876737Y1778248D01*
G01X2890972Y1792527D01*
G01X2902517Y1809056D01*
G01X2911022Y1827337D01*
G01X2916230Y1846814D01*
G01X2917984Y1866900D01*
G01X2917984Y2066900D01*
G01X3306210Y2066900D01*
G01X3306210Y1866900D01*
G01X3308183Y1845605D01*
G01X3314036Y1825034D01*
G01X3323569Y1805890D01*
G01X3336457Y1788823D01*
G01X3352262Y1774415D01*
G01X3370446Y1763156D01*
G01X3390388Y1755430D01*
G01X3411411Y1751501D01*
G01X3432797Y1751501D01*
G01X3453820Y1755430D01*
G01X3473762Y1763156D01*
G01X3491946Y1774415D01*
G01X3507750Y1788823D01*
G01X3520639Y1805890D01*
G01X3530172Y1825034D01*
G01X3536024Y1845605D01*
G01X3537998Y1866900D01*
G01X3537998Y1866900D01*
G01X3537998Y2066900D01*
G01X3536024Y2088195D01*
G01X3530172Y2108765D01*
G01X3520639Y2127910D01*
G01X3507750Y2144977D01*
G01X3491946Y2159385D01*
G01X3473762Y2170644D01*
G01X3453820Y2178369D01*
G01X3432797Y2182299D01*
G01X3411411Y2182299D01*
G01X3390388Y2178369D01*
G01X3370446Y2170644D01*
G01X3352262Y2159385D01*
G01X3336457Y2144977D01*
G01X3323569Y2127910D01*
G01X3314036Y2108765D01*
G01X3308183Y2088195D01*
G01X3306210Y2066900D01*
G01X2917984Y2066900D01*
G01X2916010Y2088195D01*
G01X2910158Y2108765D01*
G01X2900625Y2127910D01*
G01X2887736Y2144977D01*
G01X2871932Y2159385D01*
G01X2853748Y2170644D01*
G01X2833806Y2178369D01*
G01X2812783Y2182299D01*
G01X2791397Y2182299D01*
G01X2770374Y2178369D01*
G01X2750432Y2170644D01*
G01X2732248Y2159385D01*
G01X2716443Y2144977D01*
G01X2703555Y2127910D01*
G01X2694022Y2108765D01*
G01X2688169Y2088195D01*
G01X2686196Y2066900D01*
G01X2686196Y1956011D01*
G01X2669631Y1967505D01*
G01X2651324Y1975954D01*
G01X2631831Y1981102D01*
G01X2611740Y1982793D01*
G01X2591660Y1980977D01*
G01X2572198Y1975709D01*
G01X2553944Y1967147D01*
G01X2537450Y1955552D01*
G01X2523216Y1941273D01*
G01X2511671Y1924744D01*
G01X2503166Y1906463D01*
G01X2497958Y1886986D01*
G01X2496204Y1866900D01*
G01X2496204Y1866900D01*
G01X2357990Y1866900D01*
G01X2357990Y2066900D01*
G01X2356017Y2088195D01*
G01X2350164Y2108765D01*
G01X2340631Y2127910D01*
G01X2327743Y2144977D01*
G01X2311938Y2159385D01*
G01X2293754Y2170644D01*
G01X2273812Y2178369D01*
G01X2252789Y2182299D01*
G01X2231403Y2182299D01*
G01X2210380Y2178369D01*
G01X2190438Y2170644D01*
G01X2172254Y2159385D01*
G01X2156450Y2144977D01*
G01X2143561Y2127910D01*
G01X2134028Y2108765D01*
G01X2128176Y2088195D01*
G01X2126202Y2066900D01*
G01X713994Y2066900D01*
G01X713994Y2492986D01*
G01X887005Y2492986D01*
G01X887005Y2322986D01*
G01X889006Y2310350D01*
G01X894815Y2298950D01*
G01X903862Y2289903D01*
G01X915262Y2284094D01*
G01X927899Y2282092D01*
G01X1097898Y2282092D01*
G01X1110535Y2284094D01*
G01X1121935Y2289903D01*
G01X1130982Y2298950D01*
G01X1136791Y2310350D01*
G01X1138792Y2322986D01*
G01X1138792Y2492986D01*
G01X1138792Y2492986D01*
G01X1136791Y2505623D01*
G01X1130982Y2517023D01*
G01X1121935Y2526070D01*
G01X1110535Y2531879D01*
G01X1097898Y2533880D01*
G01X927899Y2533880D01*
G01X915262Y2531879D01*
G01X903862Y2526070D01*
G01X894815Y2517023D01*
G01X889006Y2505623D01*
G01X887005Y2492986D01*
G01X713994Y2492986D01*
G01X713994Y2578100D01*
G01X712168Y2591971D01*
G01X706814Y2604897D01*
G01X698297Y2615997D01*
G01X652307Y2661986D01*
G01X887005Y2661986D01*
G01X888917Y2640125D01*
G01X894597Y2618928D01*
G01X903871Y2599039D01*
G01X916458Y2581063D01*
G01X931976Y2565546D01*
G01X949952Y2552959D01*
G01X969840Y2543685D01*
G01X991037Y2538005D01*
G01X1012899Y2536092D01*
G01X1012899Y2536092D01*
G01X1034760Y2538005D01*
G01X1055957Y2543685D01*
G01X1075846Y2552959D01*
G01X1093822Y2565546D01*
G01X1109339Y2581063D01*
G01X1121926Y2599039D01*
G01X1131200Y2618928D01*
G01X1136880Y2640125D01*
G01X1138792Y2661986D01*
G01X1136880Y2683848D01*
G01X1131200Y2705045D01*
G01X1121926Y2724933D01*
G01X1109339Y2742909D01*
G01X1093822Y2758427D01*
G01X1075846Y2771014D01*
G01X1055957Y2780288D01*
G01X1034760Y2785968D01*
G01X1012899Y2787880D01*
G01X991037Y2785968D01*
G01X969840Y2780288D01*
G01X949952Y2771014D01*
G01X931976Y2758427D01*
G01X916458Y2742909D01*
G01X903871Y2724933D01*
G01X894597Y2705045D01*
G01X888917Y2683848D01*
G01X887005Y2661986D01*
G01X652307Y2661986D01*
G01X533197Y2781097D01*
G01X533197Y2781097D01*
G01X522097Y2789614D01*
G01X509171Y2794968D01*
G01X495300Y2796794D01*
G01X481259Y2796794D01*
G01X470040Y2815383D01*
G01X455791Y2831767D01*
G01X438939Y2845459D01*
G01X419985Y2856050D01*
G01X399492Y2863225D01*
G01X378071Y2866772D01*
G01X356359Y2866584D01*
G01X335003Y2862667D01*
G01X314637Y2855138D01*
G01X295869Y2844221D01*
G01X279256Y2830240D01*
G01X265294Y2813612D01*
G01X254397Y2794831D01*
G01X246891Y2774457D01*
G01X242998Y2753096D01*
G01X242834Y2731384D01*
G01X246404Y2709967D01*
G01X253603Y2689482D01*
G01X264215Y2670540D01*
G01X277925Y2653703D01*
G01X294325Y2639473D01*
G01X312927Y2628274D01*
G01X333176Y2620438D01*
G01X354472Y2616200D01*
G01X332502Y2611763D01*
G01X311667Y2603500D01*
G01X292628Y2591672D01*
G01X275990Y2576655D01*
G01X262279Y2558924D01*
G01X251930Y2539043D01*
G01X245272Y2517641D01*
G01X242516Y2495398D01*
G01X66294Y2495398D01*
G01X66294Y2915986D01*
G01X887005Y2915986D01*
G01X888917Y2894125D01*
G01X894597Y2872928D01*
G01X903871Y2853039D01*
G01X916458Y2835063D01*
G01X931976Y2819546D01*
G01X949952Y2806959D01*
G01X969840Y2797685D01*
G01X991037Y2792005D01*
G01X1012899Y2790092D01*
G01X1012899Y2790092D01*
G01X1034760Y2792005D01*
G01X1055957Y2797685D01*
G01X1075846Y2806959D01*
G01X1093822Y2819546D01*
G01X1109339Y2835063D01*
G01X1121926Y2853039D01*
G01X1131200Y2872928D01*
G01X1136880Y2894125D01*
G01X1138792Y2915986D01*
G01X1136880Y2937848D01*
G01X1131200Y2959045D01*
G01X1121926Y2978933D01*
G01X1120269Y2981300D01*
G01X2126202Y2981300D01*
G01X2126202Y2781300D01*
G01X2128176Y2760005D01*
G01X2134028Y2739434D01*
G01X2143561Y2720290D01*
G01X2156450Y2703223D01*
G01X2172254Y2688815D01*
G01X2190438Y2677556D01*
G01X2210380Y2669830D01*
G01X2231403Y2665901D01*
G01X2252789Y2665901D01*
G01X2273812Y2669830D01*
G01X2293754Y2677556D01*
G01X2311938Y2688815D01*
G01X2327743Y2703223D01*
G01X2340631Y2720290D01*
G01X2350164Y2739434D01*
G01X2356017Y2760005D01*
G01X2357990Y2781300D01*
G01X2357990Y2781300D01*
G01X2496204Y2781300D01*
G01X2496204Y2581300D01*
G01X2498177Y2560005D01*
G01X2504030Y2539435D01*
G01X2513563Y2520290D01*
G01X2526451Y2503223D01*
G01X2542256Y2488815D01*
G01X2560440Y2477556D01*
G01X2580382Y2469831D01*
G01X2601405Y2465901D01*
G01X2622791Y2465901D01*
G01X2643814Y2469831D01*
G01X2663756Y2477556D01*
G01X2681940Y2488815D01*
G01X2697744Y2503223D01*
G01X2710633Y2520290D01*
G01X2720166Y2539435D01*
G01X2726018Y2560005D01*
G01X2727992Y2581300D01*
G01X2727992Y2581300D01*
G01X3056198Y2581300D01*
G01X3058171Y2560005D01*
G01X3064024Y2539435D01*
G01X3073557Y2520290D01*
G01X3086445Y2503223D01*
G01X3102250Y2488815D01*
G01X3120433Y2477556D01*
G01X3140376Y2469831D01*
G01X3161398Y2465901D01*
G01X3182785Y2465901D01*
G01X3203808Y2469831D01*
G01X3223750Y2477556D01*
G01X3241933Y2488815D01*
G01X3257738Y2503223D01*
G01X3270627Y2520290D01*
G01X3280159Y2539435D01*
G01X3286012Y2560005D01*
G01X3287986Y2581300D01*
G01X3287986Y2581300D01*
G01X3287986Y2781300D01*
G01X3286012Y2802595D01*
G01X3280159Y2823166D01*
G01X3270627Y2842310D01*
G01X3257738Y2859377D01*
G01X3241933Y2873785D01*
G01X3223750Y2885044D01*
G01X3203808Y2892770D01*
G01X3182785Y2896699D01*
G01X3161398Y2896699D01*
G01X3140376Y2892770D01*
G01X3120433Y2885044D01*
G01X3102250Y2873785D01*
G01X3086445Y2859377D01*
G01X3073557Y2842310D01*
G01X3064024Y2823166D01*
G01X3058171Y2802595D01*
G01X3056198Y2781300D01*
G01X3056198Y2581300D01*
G01X2727992Y2581300D01*
G01X2727992Y2692189D01*
G01X2744557Y2680695D01*
G01X2762863Y2672246D01*
G01X2782357Y2667098D01*
G01X2802448Y2665407D01*
G01X2822528Y2667223D01*
G01X2841990Y2672491D01*
G01X2860243Y2681053D01*
G01X2876737Y2692648D01*
G01X2890972Y2706927D01*
G01X2902517Y2723456D01*
G01X2911022Y2741737D01*
G01X2916230Y2761214D01*
G01X2917984Y2781300D01*
G01X2917984Y2981300D01*
G01X3306210Y2981300D01*
G01X3306210Y2781300D01*
G01X3308183Y2760005D01*
G01X3314036Y2739434D01*
G01X3323569Y2720290D01*
G01X3336457Y2703223D01*
G01X3352262Y2688815D01*
G01X3370446Y2677556D01*
G01X3390388Y2669830D01*
G01X3411411Y2665901D01*
G01X3432797Y2665901D01*
G01X3453820Y2669830D01*
G01X3473762Y2677556D01*
G01X3491946Y2688815D01*
G01X3507750Y2703223D01*
G01X3520639Y2720290D01*
G01X3530172Y2739434D01*
G01X3536024Y2760005D01*
G01X3537998Y2781300D01*
G01X3537998Y2781300D01*
G01X3537998Y2981300D01*
G01X3536024Y3002595D01*
G01X3530172Y3023165D01*
G01X3520639Y3042310D01*
G01X3507750Y3059377D01*
G01X3491946Y3073785D01*
G01X3473762Y3085044D01*
G01X3453820Y3092769D01*
G01X3432797Y3096699D01*
G01X3411411Y3096699D01*
G01X3390388Y3092769D01*
G01X3370446Y3085044D01*
G01X3352262Y3073785D01*
G01X3336457Y3059377D01*
G01X3323569Y3042310D01*
G01X3314036Y3023165D01*
G01X3308183Y3002595D01*
G01X3306210Y2981300D01*
G01X2917984Y2981300D01*
G01X2916010Y3002595D01*
G01X2910158Y3023165D01*
G01X2900625Y3042310D01*
G01X2887736Y3059377D01*
G01X2871932Y3073785D01*
G01X2853748Y3085044D01*
G01X2833806Y3092769D01*
G01X2812783Y3096699D01*
G01X2791397Y3096699D01*
G01X2770374Y3092769D01*
G01X2750432Y3085044D01*
G01X2732248Y3073785D01*
G01X2716443Y3059377D01*
G01X2703555Y3042310D01*
G01X2694022Y3023165D01*
G01X2688169Y3002595D01*
G01X2686196Y2981300D01*
G01X2686196Y2870411D01*
G01X2669631Y2881905D01*
G01X2651324Y2890354D01*
G01X2631831Y2895502D01*
G01X2611740Y2897193D01*
G01X2591660Y2895377D01*
G01X2572198Y2890109D01*
G01X2553944Y2881547D01*
G01X2537450Y2869952D01*
G01X2523216Y2855673D01*
G01X2511671Y2839144D01*
G01X2503166Y2820863D01*
G01X2497958Y2801386D01*
G01X2496204Y2781300D01*
G01X2496204Y2781300D01*
G01X2357990Y2781300D01*
G01X2357990Y2981300D01*
G01X2356017Y3002595D01*
G01X2350164Y3023165D01*
G01X2340631Y3042310D01*
G01X2327743Y3059377D01*
G01X2311938Y3073785D01*
G01X2293754Y3085044D01*
G01X2273812Y3092769D01*
G01X2252789Y3096699D01*
G01X2231403Y3096699D01*
G01X2210380Y3092769D01*
G01X2190438Y3085044D01*
G01X2172254Y3073785D01*
G01X2156450Y3059377D01*
G01X2143561Y3042310D01*
G01X2134028Y3023165D01*
G01X2128176Y3002595D01*
G01X2126202Y2981300D01*
G01X1120269Y2981300D01*
G01X1109339Y2996909D01*
G01X1093822Y3012427D01*
G01X1075846Y3025014D01*
G01X1055957Y3034288D01*
G01X1034760Y3039968D01*
G01X1012899Y3041880D01*
G01X991037Y3039968D01*
G01X969840Y3034288D01*
G01X949952Y3025014D01*
G01X931976Y3012427D01*
G01X916458Y2996909D01*
G01X903871Y2978933D01*
G01X894597Y2959045D01*
G01X888917Y2937848D01*
G01X887005Y2915986D01*
G01X66294Y2915986D01*
G01X66294Y3285400D01*
G01X1296506Y3285400D01*
G01X1296506Y3115400D01*
G01X1298508Y3102763D01*
G01X1304316Y3091363D01*
G01X1313363Y3082316D01*
G01X1324763Y3076508D01*
G01X1337400Y3074506D01*
G01X1507400Y3074506D01*
G01X1507400Y3074506D01*
G01X1520037Y3076508D01*
G01X1531437Y3082316D01*
G01X1540484Y3091363D01*
G01X1546292Y3102763D01*
G01X1548294Y3115400D01*
G01X1548294Y3200400D01*
G01X1550506Y3200400D01*
G01X1552419Y3178539D01*
G01X1558098Y3157342D01*
G01X1567373Y3137453D01*
G01X1579960Y3119477D01*
G01X1595477Y3103960D01*
G01X1613453Y3091373D01*
G01X1633342Y3082098D01*
G01X1654539Y3076419D01*
G01X1676400Y3074506D01*
G01X1698261Y3076419D01*
G01X1719458Y3082098D01*
G01X1739347Y3091373D01*
G01X1757323Y3103960D01*
G01X1772840Y3119477D01*
G01X1785427Y3137453D01*
G01X1794702Y3157342D01*
G01X1800381Y3178539D01*
G01X1802294Y3200400D01*
G01X1804506Y3200400D01*
G01X1806419Y3178539D01*
G01X1812098Y3157342D01*
G01X1821373Y3137453D01*
G01X1833960Y3119477D01*
G01X1849477Y3103960D01*
G01X1867453Y3091373D01*
G01X1887342Y3082098D01*
G01X1908539Y3076419D01*
G01X1930400Y3074506D01*
G01X1952261Y3076419D01*
G01X1973458Y3082098D01*
G01X1993347Y3091373D01*
G01X2011323Y3103960D01*
G01X2026840Y3119477D01*
G01X2039427Y3137453D01*
G01X2048702Y3157342D01*
G01X2054381Y3178539D01*
G01X2056294Y3200400D01*
G01X2054381Y3222261D01*
G01X2048702Y3243458D01*
G01X2039427Y3263347D01*
G01X2026840Y3281323D01*
G01X2011323Y3296840D01*
G01X1993347Y3309427D01*
G01X1973458Y3318702D01*
G01X1952261Y3324381D01*
G01X1930400Y3326294D01*
G01X1908539Y3324381D01*
G01X1887342Y3318702D01*
G01X1867453Y3309427D01*
G01X1849477Y3296840D01*
G01X1833960Y3281323D01*
G01X1821373Y3263347D01*
G01X1812098Y3243458D01*
G01X1806419Y3222261D01*
G01X1804506Y3200400D01*
G01X1804506Y3200400D01*
G01X1802294Y3200400D01*
G01X1800381Y3222261D01*
G01X1794702Y3243458D01*
G01X1785427Y3263347D01*
G01X1772840Y3281323D01*
G01X1757323Y3296840D01*
G01X1739347Y3309427D01*
G01X1719458Y3318702D01*
G01X1698261Y3324381D01*
G01X1676400Y3326294D01*
G01X1654539Y3324381D01*
G01X1633342Y3318702D01*
G01X1613453Y3309427D01*
G01X1595477Y3296840D01*
G01X1579960Y3281323D01*
G01X1567373Y3263347D01*
G01X1558098Y3243458D01*
G01X1552419Y3222261D01*
G01X1550506Y3200400D01*
G01X1550506Y3200400D01*
G01X1548294Y3200400D01*
G01X1548294Y3285400D01*
G01X1546292Y3298037D01*
G01X1540484Y3309437D01*
G01X1531437Y3318484D01*
G01X1520037Y3324292D01*
G01X1507400Y3326294D01*
G01X1337400Y3326294D01*
G01X1324763Y3324292D01*
G01X1313363Y3318484D01*
G01X1304316Y3309437D01*
G01X1298508Y3298037D01*
G01X1296506Y3285400D01*
G01X66294Y3285400D01*
G01X66294Y3644900D01*
G01X113538Y3644900D01*
G01X115556Y3615398D01*
G01X121572Y3586445D01*
G01X131475Y3558582D01*
G01X145080Y3532326D01*
G01X162133Y3508167D01*
G01X182317Y3486556D01*
G01X205255Y3467894D01*
G01X230521Y3452529D01*
G01X257644Y3440748D01*
G01X286119Y3432770D01*
G01X315414Y3428743D01*
G01X344986Y3428743D01*
G01X374281Y3432770D01*
G01X402756Y3440748D01*
G01X429879Y3452529D01*
G01X455145Y3467894D01*
G01X478083Y3486556D01*
G01X498267Y3508167D01*
G01X515320Y3532326D01*
G01X528925Y3558582D01*
G01X538828Y3586445D01*
G01X544844Y3615398D01*
G01X546862Y3644900D01*
G01X3085338Y3644900D01*
G01X3087356Y3615398D01*
G01X3093372Y3586445D01*
G01X3103275Y3558582D01*
G01X3116880Y3532326D01*
G01X3133933Y3508167D01*
G01X3154117Y3486556D01*
G01X3177055Y3467894D01*
G01X3202321Y3452529D01*
G01X3229444Y3440748D01*
G01X3257919Y3432770D01*
G01X3287214Y3428743D01*
G01X3316786Y3428743D01*
G01X3346081Y3432770D01*
G01X3374556Y3440748D01*
G01X3401679Y3452529D01*
G01X3426945Y3467894D01*
G01X3449883Y3486556D01*
G01X3470067Y3508167D01*
G01X3487120Y3532326D01*
G01X3500725Y3558582D01*
G01X3510628Y3586445D01*
G01X3516644Y3615398D01*
G01X3518662Y3644900D01*
G01X3516644Y3674402D01*
G01X3510628Y3703355D01*
G01X3500725Y3731218D01*
G01X3487120Y3757474D01*
G01X3470067Y3781633D01*
G01X3449883Y3803244D01*
G01X3426945Y3821906D01*
G01X3401679Y3837271D01*
G01X3374556Y3849052D01*
G01X3346081Y3857030D01*
G01X3316786Y3861057D01*
G01X3287214Y3861057D01*
G01X3257919Y3857030D01*
G01X3229444Y3849052D01*
G01X3202321Y3837271D01*
G01X3177055Y3821906D01*
G01X3154117Y3803244D01*
G01X3133933Y3781633D01*
G01X3116880Y3757474D01*
G01X3103275Y3731218D01*
G01X3093372Y3703355D01*
G01X3087356Y3674402D01*
G01X3085338Y3644900D01*
G01X3085338Y3644900D01*
G01X546862Y3644900D01*
G01X546862Y3644900D01*
G01X544844Y3674402D01*
G01X538828Y3703355D01*
G01X528925Y3731218D01*
G01X515320Y3757474D01*
G01X498267Y3781633D01*
G01X478083Y3803244D01*
G01X455145Y3821906D01*
G01X429879Y3837271D01*
G01X402756Y3849052D01*
G01X374281Y3857030D01*
G01X344986Y3861057D01*
G01X315414Y3861057D01*
G01X286119Y3857030D01*
G01X257644Y3849052D01*
G01X230521Y3837271D01*
G01X205255Y3821906D01*
G01X182317Y3803244D01*
G01X162133Y3781633D01*
G01X145080Y3757474D01*
G01X131475Y3731218D01*
G01X121572Y3703355D01*
G01X115556Y3674402D01*
G01X113538Y3644900D01*
G01X113538Y3644900D01*
G01X66294Y3644900D01*
G01X66294Y3732425D01*
G37*
G54D10*
G01X66294Y3732425D02*
G02X228600Y3894731I162306J0D01*
G01X3403600Y3894731D01*
G02X3565906Y3732425I0J-162306D01*
G01X3565906Y508000D01*
G02X3403600Y345694I-162306J0D01*
G01X228600Y345694D01*
G02X66294Y508000I0J162306D01*
G01X66294Y3732425D01*
G01X113538Y3644900D02*
G03X546862Y3644900I216662J0D01*
G03X113538Y3644900I-216662J0D01*
G01X113538Y596900D02*
G03X546862Y596900I216662J0D01*
G03X113538Y596900I-216662J0D01*
G01X533197Y2781097D02*
G03X495300Y2796794I-37897J-37897D01*
G01X481259Y2796794D01*
G03X265294Y2813612I-112959J-55499D01*
G03X354472Y2616200I103006J-72317D01*
G03X368300Y2365248I13828J-125095D01*
G03X382128Y2616200I0J125857D01*
G03X479796Y2682911I-13828J125095D01*
G01X606806Y2555901D01*
G01X606806Y1113968D01*
G03X660400Y995406I53594J-47168D01*
G03X713994Y1113968I0J71394D01*
G01X713994Y2578100D01*
G03X698297Y2615997I-53594J0D01*
G01X533197Y2781097D01*
G01X368300Y1741481D02*
G03X368300Y1509693I0J-115894D01*
G03X368300Y1741481I0J115894D01*
G01X368300Y1491494D02*
G03X368300Y1259707I0J-115894D01*
G03X368300Y1491494I0J115894D01*
G01X252406Y1800600D02*
G03X293300Y1759706I40894J0D01*
G01X443300Y1759706D01*
G03X484194Y1800600I0J40894D01*
G01X484194Y1950599D01*
G03X443300Y1991493I-40894J0D01*
G01X293300Y1991493D01*
G03X252406Y1950599I0J-40894D01*
G01X252406Y1800600D01*
G01X1012899Y2790092D02*
G03X1012899Y3041880I0J125894D01*
G03X1012899Y2790092I0J-125894D01*
G01X1138792Y2492986D02*
G03X1097898Y2533880I-40894J0D01*
G01X927899Y2533880D01*
G03X887005Y2492986I0J-40894D01*
G01X887005Y2322986D01*
G03X927899Y2282092I40894J0D01*
G01X1097898Y2282092D01*
G03X1138792Y2322986I0J40894D01*
G01X1138792Y2492986D01*
G01X1012899Y2536092D02*
G03X1012899Y2787880I0J125894D01*
G03X1012899Y2536092I0J-125894D01*
G01X1181303Y965403D02*
G03X1219200Y949706I37897J37897D01*
G01X1349832Y949706D01*
G03X1468394Y1003300I47168J53594D01*
G03X1349832Y1056894I-71394J0D01*
G01X1241399Y1056894D01*
G01X1107694Y1190599D01*
G01X1107694Y1489532D01*
G03X1054100Y1608094I-53594J47168D01*
G03X1000506Y1489532I0J-71394D01*
G01X1000506Y1168400D01*
G03X1016203Y1130503I53594J0D01*
G01X1181303Y965403D01*
G01X1232103Y1105103D02*
G03X1270000Y1089406I37897J37897D01*
G01X1425601Y1089406D01*
G01X1508506Y1006501D01*
G01X1508506Y986096D01*
G03X1562100Y867534I53594J-47168D01*
G03X1615694Y986096I0J71394D01*
G01X1615694Y1028700D01*
G03X1599997Y1066597I-53594J0D01*
G01X1485697Y1180897D01*
G03X1447800Y1196594I-37897J-37897D01*
G01X1292199Y1196594D01*
G01X1242294Y1246499D01*
G01X1242294Y1273632D01*
G03X1188700Y1392194I-53594J47168D01*
G03X1135106Y1273632I0J-71394D01*
G01X1135106Y1224300D01*
G03X1150804Y1186403I53594J0D01*
G01X1232103Y1105103D01*
G01X1507400Y3074506D02*
G03X1548294Y3115400I0J40894D01*
G01X1548294Y3285400D01*
G03X1507400Y3326294I-40894J0D01*
G01X1337400Y3326294D01*
G03X1296506Y3285400I0J-40894D01*
G01X1296506Y3115400D01*
G03X1337400Y3074506I40894J0D01*
G01X1507400Y3074506D01*
G01X1529049Y743844D02*
G03X1460995Y851343I-61409J36415D01*
G03X1414047Y733092I6646J-71084D01*
G01X1414047Y729459D01*
G03X1429744Y691563I53594J0D01*
G01X1613103Y508203D01*
G03X1619905Y502449I37897J37897D01*
G03X1744055Y523299I56495J43651D01*
G03X1657851Y615042I-67655J22801D01*
G01X1529049Y743844D01*
G01X1737106Y1451001D02*
G01X1737106Y1406068D01*
G03X1790700Y1287506I53594J-47168D01*
G03X1844294Y1406068I0J71394D01*
G01X1844294Y1473200D01*
G03X1828597Y1511097I-53594J0D01*
G01X1553412Y1786281D01*
G03X1491206Y1900029I-57352J42519D01*
G03X1445006Y1778894I4854J-71229D01*
G01X1445006Y1765300D01*
G03X1460703Y1727403I53594J0D01*
G01X1737106Y1451001D01*
G01X1550506Y3200400D02*
G03X1802294Y3200400I125894J0D01*
G03X1550506Y3200400I-125894J0D01*
G01X1804506Y3200400D02*
G03X2056294Y3200400I125894J0D01*
G03X1804506Y3200400I-125894J0D01*
G01X2047494Y676732D02*
G03X1993900Y795294I-53594J47168D01*
G03X1940306Y676732I0J-71394D01*
G01X1940306Y584200D01*
G03X1956003Y546303I53594J0D01*
G01X1960751Y541556D01*
G03X2078421Y491858I71249J4544D01*
G03X2047494Y615793I-46421J54242D01*
G01X2047494Y676732D01*
G01X2357990Y2781300D02*
G01X2357990Y2981300D01*
G03X2126202Y2981300I-115894J0D01*
G01X2126202Y2781300D01*
G03X2357990Y2781300I115894J0D01*
G01X2357990Y1866900D02*
G01X2357990Y2066900D01*
G03X2126202Y2066900I-115894J0D01*
G01X2126202Y1866900D01*
G03X2357990Y1866900I115894J0D01*
G01X2475394Y571500D02*
G03X2223606Y571500I-125894J0D01*
G03X2475394Y571500I125894J0D01*
G01X2729394Y571500D02*
G03X2477606Y571500I-125894J0D01*
G03X2729394Y571500I125894J0D01*
G01X2496204Y1866900D02*
G01X2496204Y1666900D01*
G03X2727992Y1666900I115894J0D01*
G01X2727992Y1777789D01*
G03X2917984Y1866900I74098J89111D01*
G01X2917984Y2066900D01*
G03X2686196Y2066900I-115894J0D01*
G01X2686196Y1956011D01*
G03X2496204Y1866900I-74098J-89111D01*
G01X2496204Y2781300D02*
G01X2496204Y2581300D01*
G03X2727992Y2581300I115894J0D01*
G01X2727992Y2692189D01*
G03X2917984Y2781300I74098J89111D01*
G01X2917984Y2981300D01*
G03X2686196Y2981300I-115894J0D01*
G01X2686196Y2870411D01*
G03X2496204Y2781300I-74098J-89111D01*
G01X2780194Y1346200D02*
G03X2528406Y1346200I-125894J0D01*
G03X2780194Y1346200I125894J0D01*
G01X2772500Y697394D02*
G03X2731606Y656500I0J-40894D01*
G01X2731606Y486500D01*
G03X2772500Y445606I40894J0D01*
G01X2942500Y445606D01*
G03X2983394Y486500I0J40894D01*
G01X2983394Y656500D01*
G03X2942500Y697394I-40894J0D01*
G01X2772500Y697394D01*
G01X3034194Y1346200D02*
G03X2782406Y1346200I-125894J0D01*
G03X3034194Y1346200I125894J0D01*
G01X3077300Y1472094D02*
G03X3036406Y1431200I0J-40894D01*
G01X3036406Y1261200D01*
G03X3077300Y1220306I40894J0D01*
G01X3247300Y1220306D01*
G03X3288194Y1261200I0J40894D01*
G01X3288194Y1431200D01*
G03X3247300Y1472094I-40894J0D01*
G01X3077300Y1472094D01*
G01X3287986Y1666900D02*
G01X3287986Y1866900D01*
G03X3056198Y1866900I-115894J0D01*
G01X3056198Y1666900D01*
G03X3287986Y1666900I115894J0D01*
G01X3287986Y2581300D02*
G01X3287986Y2781300D01*
G03X3056198Y2781300I-115894J0D01*
G01X3056198Y2581300D01*
G03X3287986Y2581300I115894J0D01*
G01X3085338Y3644900D02*
G03X3518662Y3644900I216662J0D01*
G03X3085338Y3644900I-216662J0D01*
G01X3085338Y596900D02*
G03X3518662Y596900I216662J0D01*
G03X3085338Y596900I-216662J0D01*
G01X3537998Y2781300D02*
G01X3537998Y2981300D01*
G03X3306210Y2981300I-115894J0D01*
G01X3306210Y2781300D01*
G03X3537998Y2781300I115894J0D01*
G01X3537998Y1866900D02*
G01X3537998Y2066900D01*
G03X3306210Y2066900I-115894J0D01*
G01X3306210Y1866900D01*
G03X3537998Y1866900I115894J0D01*
G54D11*
G01X1591654Y3200400D02*
G01X1565746Y3200400D01*
G01X1761146Y3200400D02*
G01X1787054Y3200400D01*
G01X1676400Y3285146D02*
G01X1676400Y3311054D01*
G01X1676400Y3115654D02*
G01X1676400Y3089746D01*
G01X154686Y3644900D02*
G01X128778Y3644900D01*
G01X505714Y3644900D02*
G01X531622Y3644900D01*
G01X330200Y3820414D02*
G01X330200Y3846322D01*
G01X330200Y3469386D02*
G01X330200Y3443478D01*
G01X2942246Y571500D02*
G01X2968154Y571500D01*
G01X2772754Y571500D02*
G01X2746846Y571500D01*
G01X2857500Y486754D02*
G01X2857500Y460846D01*
G01X2857500Y656246D02*
G01X2857500Y682154D01*
G01X154686Y596900D02*
G01X128778Y596900D01*
G01X505714Y596900D02*
G01X531622Y596900D01*
G01X330200Y772414D02*
G01X330200Y798322D01*
G01X330200Y421386D02*
G01X330200Y395478D01*
G01X2993046Y1346200D02*
G01X3018954Y1346200D01*
G01X2823554Y1346200D02*
G01X2797646Y1346200D01*
G01X2908300Y1261454D02*
G01X2908300Y1235546D01*
G01X2908300Y1430946D02*
G01X2908300Y1456854D01*
G01X1012899Y2323240D02*
G01X1012899Y2297332D01*
G01X1012899Y2492732D02*
G01X1012899Y2518640D01*
G01X928153Y2407986D02*
G01X902245Y2407986D01*
G01X1097644Y2407986D02*
G01X1123552Y2407986D01*
G01X368300Y2406396D02*
G01X368300Y2380488D01*
G01X283591Y2491105D02*
G01X257683Y2491105D01*
G01X453009Y2491105D02*
G01X478917Y2491105D01*
G01X3126486Y3644900D02*
G01X3100578Y3644900D01*
G01X3477514Y3644900D02*
G01X3503422Y3644900D01*
G01X3302000Y3820414D02*
G01X3302000Y3846322D01*
G01X3302000Y3469386D02*
G01X3302000Y3443478D01*
G01X3126486Y596900D02*
G01X3100578Y596900D01*
G01X3477514Y596900D02*
G01X3503422Y596900D01*
G01X3302000Y772414D02*
G01X3302000Y798322D01*
G01X3302000Y421386D02*
G01X3302000Y395478D01*
G01X3496850Y2881300D02*
G01X3522758Y2881300D01*
G01X3347358Y2881300D02*
G01X3321450Y2881300D01*
G01X3422104Y2706554D02*
G01X3422104Y2680646D01*
G01X3422104Y3056045D02*
G01X3422104Y3081953D01*
G01X3496850Y1966900D02*
G01X3522758Y1966900D01*
G01X3347358Y1966900D02*
G01X3321450Y1966900D01*
G01X3422104Y1792154D02*
G01X3422104Y1766246D01*
G01X3422104Y2141645D02*
G01X3422104Y2167553D01*
G04 Copper End*

G04 Pad Start*
G54D12*
G01X330200Y3644900D03*
G01X3302000Y3644900D03*
G01X330200Y596900D03*
G01X3302000Y596900D03*
G54D13*
G01X3172092Y1766900D03*
G01X2242096Y1966900D03*
G01X2612098Y1766900D03*
G01X2802090Y1966900D03*
G01X3422104Y1966900D03*
G01X3172092Y2681300D03*
G01X2242096Y2881300D03*
G01X2612098Y2681300D03*
G01X2802090Y2881300D03*
G01X3422104Y2881300D03*
G54D14*
G01X1422400Y3200400D03*
G54D15*
G01X1676400Y3200400D03*
G01X1930400Y3200400D03*
G54D14*
G01X3162300Y1346200D03*
G54D15*
G01X2908300Y1346200D03*
G01X2654300Y1346200D03*
G54D16*
G01X368300Y2741295D03*
G01X368300Y2491105D03*
G54D18*
G01X368300Y1375601D03*
G01X368300Y1625587D03*
G54D19*
G01X368300Y1875600D03*
G54D14*
G01X1012899Y2407986D03*
G54D15*
G01X1012899Y2661986D03*
G01X1012899Y2915986D03*
G54D14*
G01X2857500Y571500D03*
G54D15*
G01X2603500Y571500D03*
G01X2349500Y571500D03*
G04 Pad End*

G04 Via Start*
G54D20*
G01X1562100Y938928D03*
G01X1188700Y1320800D03*
G01X1714500Y2547899D03*
G01X1346200Y1460500D03*
G01X1384300Y1574800D03*
G01X1917700Y1600200D03*
G01X2120900Y1206500D03*
G01X1663700Y736600D03*
G01X2108200Y774700D03*
G01X1625600Y1257300D03*
G01X2222500Y419100D03*
G01X1508240Y558804D03*
G01X1288600Y2127080D03*
G01X882664Y2204220D03*
G01X198100Y1727200D03*
G01X495300Y1498600D03*
G01X660400Y1066800D03*
G01X2184400Y939800D03*
G01X228600Y1041400D03*
G01X1496060Y1828800D03*
G01X1790700Y1358900D03*
G01X1257300Y3378200D03*
G01X2375008Y3550699D03*
G01X464376Y1083496D03*
G54D21*
G01X1816095Y1066797D03*
G01X1907155Y1066795D03*
G01X1907150Y978049D03*
G01X1816090Y978047D03*
G01X1244600Y1828800D03*
G01X1245945Y1708746D03*
G54D20*
G01X787400Y1714500D03*
G01X1244600Y1981200D03*
G01X1242592Y1562251D03*
G01X1112972Y819153D03*
G01X1397000Y1003300D03*
G01X1054100Y1536700D03*
G01X546100Y2006600D03*
G01X533400Y1231900D03*
G01X1155700Y1460500D03*
G01X1054100Y1028700D03*
G01X1460500Y901700D03*
G01X3276600Y1130300D03*
G01X2273300Y1485900D03*
G01X2336800Y2413000D03*
G01X2667000Y3187700D03*
G01X3352800Y876300D03*
G01X889000Y1079500D03*
G01X1104900Y609600D03*
G01X1676400Y546100D03*
G01X1467641Y780259D03*
G01X1816100Y711200D03*
G01X2032000Y546100D03*
G01X1993900Y723900D03*
G01X2882900Y3505200D03*
G01X1600200Y2984500D03*
G01X1193800Y2819400D03*
G01X2446329Y2933700D03*
G01X1460500Y2374900D03*
G01X2870200Y2413000D03*
G01X3429000Y2565400D03*
G01X3422103Y3204454D03*
G01X3416300Y2286000D03*
G01X3422103Y1651038D03*
G01X2222500Y825500D03*
G01X2641600Y883900D03*
G01X2946400Y889000D03*
G01X2857500Y1143000D03*
G01X2540000Y1193800D03*
G01X1765300Y3556000D03*
G01X2108200Y3314700D03*
G01X1384300Y2565400D03*
G01X1803400Y2743200D03*
G01X1676400Y2745141D03*
G01X1562100Y2743200D03*
G01X2971800Y1143000D03*
G01X2794000Y889000D03*
G01X1764354Y2984500D03*
G01X215900Y3060700D03*
G01X660400Y3060700D03*
G01X2059162Y2881300D03*
G04 Via End*

G04 Track Start*
G54D22*
G01X370205Y2743200D02*
G01X495300Y2743200D01*
G01X368300Y2741295D02*
G01X370205Y2743200D01*
G01X1054100Y1168400D02*
G01X1054100Y1536700D01*
G01X1397000Y1003300D02*
G01X1219200Y1003300D01*
G01X1054100Y1168400D01*
G01X1501140Y1828800D02*
G01X1498600Y1826260D01*
G01X1498600Y1765300D01*
G01X1790700Y1473200D01*
G01X1790700Y1358900D01*
G01X1467641Y729459D02*
G01X1467641Y780259D01*
G01X1676400Y546100D02*
G01X1651000Y546100D01*
G01X1467641Y729459D01*
G01X1270000Y1143000D02*
G01X1188700Y1224300D01*
G01X1188700Y1320800D01*
G01X1447800Y1143000D02*
G01X1270000Y1143000D01*
G01X495300Y2743200D02*
G01X660400Y2578100D01*
G01X660400Y1066800D01*
G01X1562100Y1028700D02*
G01X1447800Y1143000D01*
G01X1562100Y938929D02*
G01X1562100Y1028700D01*
G01X2032000Y546100D02*
G01X1993900Y584200D01*
G01X1993900Y723900D01*
G04 Track End*

M02*

